<mxfile host="app.diagrams.net" modified="2024-06-26T06:02:59.056Z" agent="Mozilla/5.0 (Macintosh; Intel Mac OS X 10_15_7) AppleWebKit/537.36 (KHTML, like Gecko) Chrome/125.0.0.0 Safari/537.36" etag="IJF6bXw-zmiqBlzhALJP" version="24.6.3" type="device" pages="6">
  <diagram name="General Workflow" id="764M524WCE10g0fiqDPE">
    <mxGraphModel dx="1346" dy="658" grid="0" gridSize="10" guides="1" tooltips="1" connect="1" arrows="1" fold="1" page="0" pageScale="1" pageWidth="850" pageHeight="1100" math="0" shadow="0">
      <root>
        <mxCell id="0" />
        <mxCell id="1" parent="0" />
        <mxCell id="AVty2RS2mHh-OYDV_8O--7" value="" style="group;fontFamily=Times New Roman;fontColor=#2496ed;" parent="1" vertex="1" connectable="0">
          <mxGeometry x="460" y="157" width="90" height="120" as="geometry" />
        </mxCell>
        <mxCell id="AVty2RS2mHh-OYDV_8O--4" value="" style="shape=cylinder3;whiteSpace=wrap;html=1;boundedLbl=1;backgroundOutline=1;size=15;aspect=fixed;fontFamily=Times New Roman;" parent="AVty2RS2mHh-OYDV_8O--7" vertex="1">
          <mxGeometry width="90" height="120" as="geometry" />
        </mxCell>
        <mxCell id="AVty2RS2mHh-OYDV_8O--3" value="" style="shape=image;verticalLabelPosition=bottom;labelBackgroundColor=default;verticalAlign=top;aspect=fixed;imageAspect=0;image=https://www.docker.com/wp-content/uploads/2022/03/Moby-logo.png;fontFamily=Times New Roman;" parent="AVty2RS2mHh-OYDV_8O--7" vertex="1">
          <mxGeometry x="20" y="37" width="60" height="43.03" as="geometry" />
        </mxCell>
        <mxCell id="AVty2RS2mHh-OYDV_8O--5" value="&lt;b&gt;&lt;font style=&quot;font-size: 14px;&quot;&gt;Docker Hub&lt;/font&gt;&lt;/b&gt;" style="text;html=1;strokeColor=none;fillColor=none;align=center;verticalAlign=middle;whiteSpace=wrap;rounded=0;fontFamily=Times New Roman;" parent="AVty2RS2mHh-OYDV_8O--7" vertex="1">
          <mxGeometry x="8.5" y="85" width="73" height="30" as="geometry" />
        </mxCell>
        <mxCell id="AVty2RS2mHh-OYDV_8O--23" value="" style="group;fillColor=none;strokeColor=none;fontFamily=Times New Roman;" parent="1" vertex="1" connectable="0">
          <mxGeometry x="-40" y="354" width="80" height="100" as="geometry" />
        </mxCell>
        <mxCell id="AVty2RS2mHh-OYDV_8O--20" value="" style="shape=note;whiteSpace=wrap;html=1;backgroundOutline=1;darkOpacity=0.05;fillColor=#d5e8d4;strokeColor=#82b366;fontFamily=Times New Roman;" parent="AVty2RS2mHh-OYDV_8O--23" vertex="1">
          <mxGeometry width="80" height="100" as="geometry" />
        </mxCell>
        <mxCell id="AVty2RS2mHh-OYDV_8O--21" value="&lt;b&gt;Dockerfile&lt;/b&gt;" style="text;html=1;strokeColor=none;fillColor=none;align=center;verticalAlign=middle;whiteSpace=wrap;rounded=0;fontFamily=Times New Roman;" parent="AVty2RS2mHh-OYDV_8O--23" vertex="1">
          <mxGeometry x="10" y="35" width="60" height="30" as="geometry" />
        </mxCell>
        <mxCell id="AVty2RS2mHh-OYDV_8O--24" value="" style="shape=image;verticalLabelPosition=bottom;labelBackgroundColor=default;verticalAlign=top;aspect=fixed;imageAspect=0;image=data:image/jpeg,iVBORw0KGgoAAAANSUhEUgAAAMgAAADICAYAAACtWK6eAAAAGXRFWHRTb2Z0d2FyZQBBZG9iZSBJbWFnZVJlYWR5ccllPAAAA4ZpVFh0WE1MOmNvbS5hZG9iZS54bXAAAAAAADw/eHBhY2tldCBiZWdpbj0i77u/IiBpZD0iVzVNME1wQ2VoaUh6cmVTek5UY3prYzlkIj8+IDx4OnhtcG1ldGEgeG1sbnM6eD0iYWRvYmU6bnM6bWV0YS8iIHg6eG1wdGs9IkFkb2JlIFhNUCBDb3JlIDUuNi1jMDE0IDc5LjE1Njc5NywgMjAxNC8wOC8yMC0wOTo1MzowMiAgICAgICAgIj4gPHJkZjpSREYgeG1sbnM6cmRmPSJodHRwOi8vd3d3LnczLm9yZy8xOTk5LzAyLzIyLXJkZi1zeW50YXgtbnMjIj4gPHJkZjpEZXNjcmlwdGlvbiByZGY6YWJvdXQ9IiIgeG1sbnM6eG1wTU09Imh0dHA6Ly9ucy5hZG9iZS5jb20veGFwLzEuMC9tbS8iIHhtbG5zOnN0UmVmPSJodHRwOi8vbnMuYWRvYmUuY29tL3hhcC8xLjAvc1R5cGUvUmVzb3VyY2VSZWYjIiB4bWxuczp4bXA9Imh0dHA6Ly9ucy5hZG9iZS5jb20veGFwLzEuMC8iIHhtcE1NOk9yaWdpbmFsRG9jdW1lbnRJRD0ieG1wLmRpZDpmMzc2M2FjNC0xYjg0LTQ0YzAtYTg3Zi1kMzNjZDY4OGE3YjMiIHhtcE1NOkRvY3VtZW50SUQ9InhtcC5kaWQ6NkE3NzBEOTBFQjdDMTFFNEEwMjZCNTBBNDk5MkYxMDciIHhtcE1NOkluc3RhbmNlSUQ9InhtcC5paWQ6M0JENTI2M0VFQjdDMTFFNEEwMjZCNTBBNDk5MkYxMDciIHhtcDpDcmVhdG9yVG9vbD0iQWRvYmUgUGhvdG9zaG9wIENDIDIwMTQgKE1hY2ludG9zaCkiPiA8eG1wTU06RGVyaXZlZEZyb20gc3RSZWY6aW5zdGFuY2VJRD0ieG1wLmlpZDozMDNlZGEzOC1mMWUyLTQ3ODktYmQ0Zi03MTdiNjVmZWI3NGEiIHN0UmVmOmRvY3VtZW50SUQ9ImFkb2JlOmRvY2lkOnBob3Rvc2hvcDpkMTVjY2QzMS0zM2UzLTExNzgtYjU4Mi1lOWJkOGJlNTRlMzQiLz4gPC9yZGY6RGVzY3JpcHRpb24+IDwvcmRmOlJERj4gPC94OnhtcG1ldGE+IDw/eHBhY2tldCBlbmQ9InIiPz5MMMQcAAAP3ElEQVR42uydCbRVZRmGPxKnErOVmJbDBRWH1NRS0SLBqZxyyATFHNEgyXAeSotwRNFyAsFZc8ABp9TE2ZxxDI3lcEUFQQ1HUETk9r7934nr7cLd+5yz99nD+6z1Ll2se+7dZ+//3fv/v+/7v92ppaXFhBDt8xWdAiFkECFkECFkECFkECFkECFkECFkECFkECFkECGEDCKEDCKEDCKEDCKEDCKEDCJEruhc6y/oPnKmzqJoGM2DltITpCQsCm0PLatToSmWmE9X6PfQa9Bt0JvQxdCGOjUySJnZ0I1AQwyDvuP/vgS0H/QU9DDUz58uIo9rEBH7fO8MHQL1ivDzm7mmQWOgUf7/Qk+QQvFN6BjoVei6iOZozQrQCdDr0NVuGiGD5J71oNE+jToFWrkOC/l+PvV6yqdiS+g0yyB5YhGfRt0LPQcdCC2Z8BqmHuYTMkiiLAMdAb0MjYP6pPR3l/XpWzN0Q4p/VwYRkVgbGglNgU6HujXwybWrP7n+Cf0K+poujwzSqPO2A3QXNBEamLHBuI6FiBdNOwJaVZdMBkmDpaEh0EvQrdDWUKeMT/sO8+NlEvInGT9eGSSn9IDO8TvyWTm8I/M6s4zlTmgS9Bs3u5BBqoZ32p9Ct/ugGgx1KYjZz3aznwutqUstg8SBJjjYTXEHtG1BpyWV7/mir6V+5gt9IYO0C6dNZ1rIK5zrd9qyPCm5lroZegU6ykLmX8gg/x0cW0G3+EL2UOjrJT4fTdBpfpO4EFpfBiknDMkyT8AQ7XhoR90svgQz/wdAz0APQrtbSSuKy1bN2+Tzbl78b8gHkejlmmoht8Kq4rf1BCkWvaEbfY59hMxRFdyvwn0rrCi+AtpYBsn/NGGAhYLB+6BdTFGaerA4tBf0uGsv/zcZJCesZKG69Q2fDqynMZ0YG/vT5HX78q5IGSSjc+WxFqpaWd2q5gfp8S2bv6/+Wou/IUwGSfBxv6+FzUOMtvzCtI24kTDStbtfC0bADrBk9sLIIB3wbX+kcxp1iakDSBZhDoW5FOZUmFtpkkGSpyd0FTTZH+nLaRxmHmblmZ1nBJEbybJeAZ07gywG9YeegB6F9jC1wckjla3IrPti/RfzUV1kkOpZ3uZ38rgS2khjrDCwgpj1bqwoZmVxDxkkOj+ALvdp1FA3iigm3JPCvSmsnOZele2zNiazcjCcMvWFHoGehH5pBU4+if+DaxLuduSuRxaNchfkMjJI6Ev7Owvx82ugTTVWSg+3HYzw6Rdrv9Ypo0EYAmRPJ4ZpT7QCZmBFzVQqrtmhhZ1adrUGlAqlaRB+ud2gBywkkdQVUESFvb7Y8yv1Kok0DMI4+NH+5diX9se63qJK2D2SdXapvSKiU0tLS02/YCFvmOLckV3MmcP4qq6tSAgGdthx5obmQUt9nnWD8InEzf8M3W2haydSZJov6kfDKNOzZhCG5FiYxuxoN10r0UDmWNgcdw6M8khDDQJzrIj/HAftbeoDK7LH09DxMMrtjVqkv2WhBSfLm1t0PUTG1iZsJj4+K2sQ1tOw++A+praWojF8aqHa+3w8NZ7O4iKddPEpFxfqa+iaiRSYbOEVFBfBGDPq+YuTDPOyvmYbN8q2pr5Tor5w4DLDzqrgW2GML5L4I50T/gJ/d7G+hhGu/a3cnQtF7XxsodqbxpgEYyT6x6q+q+PJsRgUtZCMb3dlhSajXr+2sGFGiDiwyvcQH0Nc606KOE5ryrbX8gThZnwWkt0PnQfdBM3t4DMzfa7IhM6WPv3aQdMvsQDmQX/z8XWXRYyUwhTcKtHPjbS61VA6X48pVm/XFB/87EX1boTp192ubv5UUTtQUeF9Lrih8y1shYg6q+HTZZCFNwt39X/+sCFTrHbgwZ1koZCMc8SorSl5Ao600PCN7/qbqPFRWp6HDvKxdGRUc8AYm0PX+c8f18ocNVN1FAsHxMX2Bx38GBstsJCMB/9ZjF/fx6dfeqlL8WGB4ThfdD8U43MsgO3v06iFdc/8EAv5qqdYSc/9W7emPNHvDFFgL11ukFkNGg7N0DgqHG/7mOAUu28Mc/DnT/cp/WhLuLVsWotjtqasbK3l02TziJ+bbGEvyUo+r3xe4yr3sOE1ew6sAh1v4bUKHc507MtvwUqtQ3/a0SMGBbir8H4LXdc534xS5MgSAnbp+54HBK63jiNmIjtwen2ZhdZNbP53ZcQpd3vvUUx1zDYyvMpH4wUW/2X33LLLHrzdoVOhf2v8ZZYpPnPgDGBfaELEz2XmTbxZyD+097L7KMfFaNmxfvKZoX9a4zEzcA35c18vnGwdh/0rYzFz73LPUoKu7QkaYtHKUmZbaGD9fQv73cd6ZESkyyyfEaxrYTfpjRGnwe3dIDtlaVBmEWY/z/JHLJNFa0f83EMeEenmEZJ3NG4Th4vmwy1EKOPksVimNKqKKbYM0gpWojEz+oLF64001SMkK8ec+4posATkDmg7C1sa+H75DyJ8bhG/hryWLFNi36tM70TNUw1UNb2RWkdP2LXxak2/aoJlG3/2RfN2bpJ5ET63rF+zZr+GffLyhfNYJNi6N9KlFppdR+ExaE8L8fc/QdM13iMz0Z/knEYdCr0c8XOspL3Yr9Upfu1yRZ6raNmVkdt72ez6UR/8i0X4HNvD/MGNwje0PqHx3y5f+EJ7C194c70wM8Ln2IiclbQPW3g1Xq47aBalzJzJp79avLetzvHPbOKKmrwqOswrMb/EPBNDtfdF/Fzr97lwKrtZEU5G0fZh8CJV87ZVPkVY/tDkT5dpJTTGBA9ocBrF/NIbVdyc+D6XFYp0Uoq6Uant21YHWLT2p9N9fcLp1x4+dSsyfIpe5QGMjTygEeUpuniV01sZJIPwVQvcxMV4O6tAo3R+ZKTrGp8mxBk4eWGqT4d4I+jvAYwotN7zEydAIoPkAFZ/sgqUiS1WhUbN2FamHiv59G1qjs9B60TqMIseyWNY9npLYEOSDJLN78yq0Lg1P+/63TPu/oVGw0pobl/dwOKV4rR9gQ0X7J3LOFjKTNuq0bUiTr/G+mBjnJ91YLMz+N0qW5lX9DXYsxE/l6lXoMkg2aCy74AlLWwkwfd5RylpYQBgf59+xYn8JAX3T7MX7U4WdmOeAb0X4XOZfYmmDJItOFDYjmicr1WOsvCGrI6o5A549+VelQdSPu6P/AnIok52s7zFopWAZP41zDJIdmmCTvOpRtTXfc31xWxvC7sfx/gaICk4sAf7NKoy0KOwphtqik8xe+hyyyDVwjIJlkuwbILlEyyjWDTC5yotbDj94r76yXU6nnn+hNjGnxhsqvZxjOAEt66+6FPKLrq8Mkg9YV6EZRRxssbsyDLc1wS7WIgIVUPl96zqa4zxFq3TYNvw9taWoQ1JMkgxoTHi1h2x+O8mX+Ow+I+772ZF+ByjTwOqeBJxz/9oi5cgFTJIXWlduco98WyfumSEz7F8fKCvHXh3b9tBkKFk1pIxlMz8xUUR1zJtu8awVZLeMFwDSXdWLCMzfECPjHG3541qB39SMHTM/EOcgsmubobKng0xn5o6K8ogycEpFd/fyD31d1sy73BkLdRgf4otrlNef4NoipUcTDQy4VjvqBGrZlk9yypaVtPuI3NoDZJ32uYdqmmExsDAUA8McP9FT51WGaRoVDLXcVpptg4tM3K2vE5jenTWKWgIlWbMFCNYLAj8pJ2fY65jK50uPUHKDPMTC8rMqwREBhFCBhFCBhFCBhFCBhFCyCBCyCBCyCBCyCBCyCBCyCBCyCBCyCBCyCBCyCBCCBlECBlECBlECBlECBlECBlECBlECBlECBlECCGDCCGDCCGDCCGDCCGDCCGDCCGDCCGDCCGDCCGDCCFkECFkECFkECFkECFkECFkECFkECFkECFkECFkECGEDCKEDCJEhgwyG7oVatFpFBllLjSull/QqaWltvHdfeTMdfCfY6C+UGddk6pYBvqwnX9/HVpZpyc2n0GXQsObBy3V3Ogp1kRoL6gHdL4/WYRoBB9DI6BuMMbAWs1hdb7jvwYdDA2DDoUGQkvrmokUmAGdDZ0LU7xXz19cjynWwqYNNMwh0HK6hppiJcBU6EzoAhhjVhJ/IMk1wwfQSdBZ0P7QkbrYok68Ap0GXQ5jzEnyD6UR5v2Ejz5oNWg/6F+6vqJKnoP2gNaELoTmJP0H08yDfO6RBUa9doWe1PUWEXkY2h7aALoG+iKtP9yIROE8C7HpjaGtoHt1/cUCuBPaHPoRdLs1IOfW6Ez6PdCWUE/oJjePKDccA9dBG0LbQg828mCyUmryOLQLtC4XXj4dE+WC64lLoLWg3aFnsnBQWavFehHaB1odOg/6VOOm8DCI8xcLQRxGO1/K0sFltViR8f/BUBN0irWfIxD5hmmAE/0aD4HezOJBZr2a9x3oOAv5k2OhtzWucg+v4dHQKtDx0LtZPti8lLt/BJ3qdxs+WSZrnOUOXrOD/RoO92uaefK2H2S2r024RtkbekHjLvO84NeK1yx3xax53TDFOv8rLES9doYe0zjMHE9YiEyu59dqbh6/RN53FDJxdDO0KbQFNF7jsuEwt8UE8CZWgNxWkbbc3gdtA20E3WBKOqZ9o6IZero57inKFyvinvQJ0G7Qdy0knuZo/KYy1eV06vGifcEiN22YZCHxxMUhN9N8ovFcN2b7gruHFTxYUoauJm9Av7UQXmRi6n2N76phaJYh2m4WQravFf0Ll6ntDxNSTEwxQXUUNE3jPfa5402GSb7pZfniZeyLxY39p0PdoUFQs8b/AmH5xxB/YpTy6VvmxnGcR4+C1oD6Q8/LD/+DBYMHWCggZCHhrLKeCHVWDJGYq6D1oR2hR0p8Llhizv5mLDm/2BQBlEFawVj+bdAPod4WdrOVBW5K2s7CJqWxphySDNIBD1jYzVbkAcMbArex9rKwrfUOXXYZpNopB7toXFSQKQcbHlxroQECGyH8Q5dZBqmVl6EB0KoW+nzlcdFKc1/o64t+FlroCBmkrkyBDrOQSxkKvZeDY57lpmZY+0A3u5BBEoW9YP/oRjkceiuDx0jzDvNjpKmn6rLJIGnDxsRn+t35IAstMRsNKwTY5rUJOsHNLGSQhsL3UYzxxTzn98824BhYEcDKAGa9z7BQMSBkkExRiRAxPMy8QhoRIr6fhZUArAgY5WYVMkimYY6BeYVeriTaZnKb8U4WtrSyEmCuTrsMkkf4FKk0Xr7aam+8zG3FfSxsM77F9I5IGaQgMO+wp0+FxsScClUafnM7MbcV36/TKYMUlVctRLwY+RrRwWKaPYovs/mvjJig05cueitt42Du5AjoZFtwZn4zC90lhQxSWhaWjZc5GkzNL/EUQmsQIWQQIYQMIoQMIoQMIoQMIoQMIoQMIoQMIoQMIoQMIoSQQYSQQYSQQYSQQYRIlf8IMABVs2rj5+hHbgAAAABJRU5ErkJggg==;fontFamily=Times New Roman;" parent="1" vertex="1">
          <mxGeometry x="200" y="354" width="100" height="100" as="geometry" />
        </mxCell>
        <mxCell id="AVty2RS2mHh-OYDV_8O--26" value="" style="curved=1;endArrow=none;html=1;rounded=0;entryX=-0.044;entryY=0.792;entryDx=0;entryDy=0;entryPerimeter=0;startArrow=classic;startFill=1;endFill=0;fontFamily=Times New Roman;" parent="1" target="AVty2RS2mHh-OYDV_8O--4" edge="1">
          <mxGeometry width="50" height="50" relative="1" as="geometry">
            <mxPoint x="4" y="353" as="sourcePoint" />
            <mxPoint x="449" y="355" as="targetPoint" />
            <Array as="points">
              <mxPoint x="46" y="248" />
              <mxPoint x="271" y="313" />
              <mxPoint x="328" y="242" />
            </Array>
          </mxGeometry>
        </mxCell>
        <mxCell id="AVty2RS2mHh-OYDV_8O--27" value="" style="shape=flexArrow;endArrow=classic;html=1;rounded=0;fillColor=#ffe6cc;strokeColor=#d79b00;fontFamily=Times New Roman;" parent="1" target="AVty2RS2mHh-OYDV_8O--24" edge="1">
          <mxGeometry width="50" height="50" relative="1" as="geometry">
            <mxPoint x="42" y="404" as="sourcePoint" />
            <mxPoint x="449" y="355" as="targetPoint" />
          </mxGeometry>
        </mxCell>
        <mxCell id="AVty2RS2mHh-OYDV_8O--28" value="&lt;i&gt;&lt;b&gt;&lt;font style=&quot;font-size: 14px;&quot;&gt;docker build&lt;/font&gt;&lt;/b&gt;&lt;/i&gt;" style="text;html=1;strokeColor=none;fillColor=none;align=center;verticalAlign=middle;whiteSpace=wrap;rounded=0;fontFamily=Times New Roman;" parent="1" vertex="1">
          <mxGeometry x="63" y="368" width="96" height="30" as="geometry" />
        </mxCell>
        <mxCell id="AVty2RS2mHh-OYDV_8O--29" value="" style="shape=flexArrow;endArrow=classic;html=1;rounded=0;fillColor=#ffe6cc;strokeColor=#d79b00;fontFamily=Times New Roman;" parent="1" edge="1">
          <mxGeometry width="50" height="50" relative="1" as="geometry">
            <mxPoint x="300" y="403.5" as="sourcePoint" />
            <mxPoint x="469" y="280" as="targetPoint" />
          </mxGeometry>
        </mxCell>
        <mxCell id="AVty2RS2mHh-OYDV_8O--30" value="&lt;i&gt;&lt;b&gt;&lt;font style=&quot;font-size: 14px;&quot;&gt;docker push&lt;/font&gt;&lt;/b&gt;&lt;/i&gt;" style="text;html=1;strokeColor=none;fillColor=none;align=center;verticalAlign=middle;whiteSpace=wrap;rounded=0;rotation=323;fontFamily=Times New Roman;" parent="1" vertex="1">
          <mxGeometry x="329.89" y="311.69" width="91" height="30" as="geometry" />
        </mxCell>
        <mxCell id="AVty2RS2mHh-OYDV_8O--31" value="" style="shape=flexArrow;endArrow=classic;html=1;rounded=0;exitX=0.5;exitY=1;exitDx=0;exitDy=0;fillColor=#ffe6cc;strokeColor=#d79b00;fontFamily=Times New Roman;" parent="1" source="AVty2RS2mHh-OYDV_8O--24" edge="1">
          <mxGeometry width="50" height="50" relative="1" as="geometry">
            <mxPoint x="249.5" y="469" as="sourcePoint" />
            <mxPoint x="249.5" y="553" as="targetPoint" />
          </mxGeometry>
        </mxCell>
        <mxCell id="AVty2RS2mHh-OYDV_8O--34" value="&lt;i&gt;&lt;b&gt;&lt;font style=&quot;font-size: 14px;&quot;&gt;docker run&lt;/font&gt;&lt;/b&gt;&lt;/i&gt;" style="text;html=1;strokeColor=none;fillColor=none;align=center;verticalAlign=middle;whiteSpace=wrap;rounded=0;fontFamily=Times New Roman;" parent="1" vertex="1">
          <mxGeometry x="159" y="485" width="80" height="30" as="geometry" />
        </mxCell>
        <mxCell id="AVty2RS2mHh-OYDV_8O--35" value="&lt;i&gt;&lt;b&gt;&lt;font style=&quot;font-size: 14px;&quot;&gt;FROM&lt;/font&gt;&lt;/b&gt;&lt;/i&gt;" style="text;html=1;strokeColor=none;fillColor=none;align=center;verticalAlign=middle;whiteSpace=wrap;rounded=0;fontFamily=Times New Roman;" parent="1" vertex="1">
          <mxGeometry x="75.5" y="243" width="80" height="30" as="geometry" />
        </mxCell>
        <mxCell id="AVty2RS2mHh-OYDV_8O--38" value="" style="endArrow=none;dashed=1;html=1;rounded=0;strokeWidth=3;fontFamily=Times New Roman;" parent="1" edge="1">
          <mxGeometry width="50" height="50" relative="1" as="geometry">
            <mxPoint x="500" y="974" as="sourcePoint" />
            <mxPoint x="500" y="512" as="targetPoint" />
          </mxGeometry>
        </mxCell>
        <mxCell id="AVty2RS2mHh-OYDV_8O--53" value="" style="shape=flexArrow;endArrow=classic;html=1;rounded=0;fillColor=#ffe6cc;strokeColor=#d79b00;fontFamily=Times New Roman;" parent="1" edge="1">
          <mxGeometry width="50" height="50" relative="1" as="geometry">
            <mxPoint x="548" y="281" as="sourcePoint" />
            <mxPoint x="869" y="548" as="targetPoint" />
          </mxGeometry>
        </mxCell>
        <mxCell id="AVty2RS2mHh-OYDV_8O--54" value="&lt;i&gt;&lt;b&gt;&lt;font style=&quot;font-size: 14px;&quot;&gt;docker pull&lt;/font&gt;&lt;/b&gt;&lt;/i&gt;" style="text;html=1;strokeColor=none;fillColor=none;align=center;verticalAlign=middle;whiteSpace=wrap;rounded=0;rotation=40;fontFamily=Times New Roman;" parent="1" vertex="1">
          <mxGeometry x="667" y="368" width="80" height="30" as="geometry" />
        </mxCell>
        <mxCell id="AVty2RS2mHh-OYDV_8O--61" value="" style="shape=image;verticalLabelPosition=bottom;labelBackgroundColor=default;verticalAlign=top;aspect=fixed;imageAspect=0;image=data:image/svg+xml,PHN2ZyB4bWxucz0iaHR0cDovL3d3dy53My5vcmcvMjAwMC9zdmciIGhlaWdodD0iOTYiIHdpZHRoPSI5OCIgdmlld0JveD0iMCAwIDk4IDk2Ij48cGF0aCBmaWxsPSIjMjQyOTJmIiBkPSJNNDguODU0IDBDMjEuODM5IDAgMCAyMiAwIDQ5LjIxN2MwIDIxLjc1NiAxMy45OTMgNDAuMTcyIDMzLjQwNSA0Ni42OSAyLjQyNy40OSAzLjMxNi0xLjA1OSAzLjMxNi0yLjM2MiAwLTEuMTQxLS4wOC01LjA1Mi0uMDgtOS4xMjctMTMuNTkgMi45MzQtMTYuNDItNS44NjctMTYuNDItNS44NjctMi4xODQtNS43MDQtNS40Mi03LjE3LTUuNDItNy4xNy00LjQ0OC0zLjAxNS4zMjQtMy4wMTUuMzI0LTMuMDE1IDQuOTM0LjMyNiA3LjUyMyA1LjA1MiA3LjUyMyA1LjA1MiA0LjM2NyA3LjQ5NiAxMS40MDQgNS4zNzggMTQuMjM1IDQuMDc0LjQwNC0zLjE3OCAxLjY5OS01LjM3OCAzLjA3NC02LjYtMTAuODM5LTEuMTQxLTIyLjI0My01LjM3OC0yMi4yNDMtMjQuMjgzIDAtNS4zNzggMS45NC05Ljc3OCA1LjAxNC0xMy4yLS40ODUtMS4yMjItMi4xODQtNi4yNzUuNDg2LTEzLjAzOCAwIDAgNC4xMjUtMS4zMDQgMTMuNDI2IDUuMDUyYTQ2Ljk3IDQ2Ljk3IDAgMCAxIDEyLjIxNC0xLjYzYzQuMTI1IDAgOC4zMy41NzEgMTIuMjEzIDEuNjMgOS4zMDItNi4zNTYgMTMuNDI3LTUuMDUyIDEzLjQyNy01LjA1MiAyLjY3IDYuNzYzLjk3IDExLjgxNi40ODUgMTMuMDM4IDMuMTU1IDMuNDIyIDUuMDE1IDcuODIyIDUuMDE1IDEzLjIgMCAxOC45MDUtMTEuNDA0IDIzLjA2LTIyLjMyNCAyNC4yODMgMS43OCAxLjU0OCAzLjMxNiA0LjQ4MSAzLjMxNiA5LjEyNiAwIDYuNi0uMDggMTEuODk3LS4wOCAxMy41MjYgMCAxLjMwNC44OSAyLjg1MyAzLjMxNiAyLjM2NCAxOS40MTItNi41MiAzMy40MDUtMjQuOTM1IDMzLjQwNS00Ni42OTFDOTcuNzA3IDIyIDc1Ljc4OCAwIDQ4Ljg1NCAweiIgY2xpcC1ydWxlPSJldmVub2RkIiBmaWxsLXJ1bGU9ImV2ZW5vZGQiLz48L3N2Zz4=;fontFamily=Times New Roman;" parent="1" vertex="1">
          <mxGeometry x="460" y="362" width="98" height="96" as="geometry" />
        </mxCell>
        <mxCell id="AVty2RS2mHh-OYDV_8O--65" value="&lt;b&gt;&lt;font style=&quot;font-size: 30px;&quot;&gt;Development with VScode and Docker&amp;nbsp;&lt;/font&gt;&lt;/b&gt;&lt;b&gt;&lt;font style=&quot;font-size: 30px;&quot;&gt;Architecture&lt;/font&gt;&lt;/b&gt;" style="text;html=1;strokeColor=none;fillColor=none;align=center;verticalAlign=middle;whiteSpace=wrap;rounded=0;fontFamily=Times New Roman;" parent="1" vertex="1">
          <mxGeometry x="74" y="108" width="773" height="30" as="geometry" />
        </mxCell>
        <mxCell id="AVty2RS2mHh-OYDV_8O--70" value="" style="group;fontFamily=Times New Roman;" parent="1" vertex="1" connectable="0">
          <mxGeometry x="644" y="562" width="419" height="388" as="geometry" />
        </mxCell>
        <mxCell id="AVty2RS2mHh-OYDV_8O--51" value="" style="whiteSpace=wrap;html=1;fillColor=#fff2cc;strokeColor=#d6b656;fontFamily=Times New Roman;" parent="AVty2RS2mHh-OYDV_8O--70" vertex="1">
          <mxGeometry width="419" height="332" as="geometry" />
        </mxCell>
        <mxCell id="AVty2RS2mHh-OYDV_8O--69" value="" style="group;fontFamily=Times New Roman;" parent="AVty2RS2mHh-OYDV_8O--70" vertex="1" connectable="0">
          <mxGeometry x="84.50999999999999" y="10" width="250" height="378" as="geometry" />
        </mxCell>
        <mxCell id="AVty2RS2mHh-OYDV_8O--16" value="&lt;b&gt;&lt;font style=&quot;font-size: 24px;&quot;&gt;Remote Environment&lt;/font&gt;&lt;/b&gt;" style="text;html=1;strokeColor=none;fillColor=none;align=left;verticalAlign=middle;whiteSpace=wrap;rounded=0;fontFamily=Times New Roman;" parent="AVty2RS2mHh-OYDV_8O--69" vertex="1">
          <mxGeometry y="348" width="250" height="30" as="geometry" />
        </mxCell>
        <mxCell id="AVty2RS2mHh-OYDV_8O--52" value="&lt;b&gt;&lt;font style=&quot;font-size: 18px;&quot;&gt;Production Environment&lt;/font&gt;&lt;/b&gt;" style="text;html=1;strokeColor=none;fillColor=none;align=center;verticalAlign=middle;whiteSpace=wrap;rounded=0;fontFamily=Times New Roman;" parent="AVty2RS2mHh-OYDV_8O--69" vertex="1">
          <mxGeometry x="7.3700000000000045" width="235.25" height="30" as="geometry" />
        </mxCell>
        <mxCell id="AVty2RS2mHh-OYDV_8O--57" value="" style="whiteSpace=wrap;html=1;fillColor=#FFFAFC;fontFamily=Times New Roman;" parent="AVty2RS2mHh-OYDV_8O--69" vertex="1">
          <mxGeometry x="14.490000000000009" y="92" width="208.75" height="201.75" as="geometry" />
        </mxCell>
        <mxCell id="AVty2RS2mHh-OYDV_8O--58" value="" style="shape=image;verticalLabelPosition=bottom;labelBackgroundColor=default;verticalAlign=top;aspect=fixed;imageAspect=0;image=data:image/jpeg,iVBORw0KGgoAAAANSUhEUgAAAMgAAADICAYAAACtWK6eAAAAGXRFWHRTb2Z0d2FyZQBBZG9iZSBJbWFnZVJlYWR5ccllPAAAA4ZpVFh0WE1MOmNvbS5hZG9iZS54bXAAAAAAADw/eHBhY2tldCBiZWdpbj0i77u/IiBpZD0iVzVNME1wQ2VoaUh6cmVTek5UY3prYzlkIj8+IDx4OnhtcG1ldGEgeG1sbnM6eD0iYWRvYmU6bnM6bWV0YS8iIHg6eG1wdGs9IkFkb2JlIFhNUCBDb3JlIDUuNi1jMDE0IDc5LjE1Njc5NywgMjAxNC8wOC8yMC0wOTo1MzowMiAgICAgICAgIj4gPHJkZjpSREYgeG1sbnM6cmRmPSJodHRwOi8vd3d3LnczLm9yZy8xOTk5LzAyLzIyLXJkZi1zeW50YXgtbnMjIj4gPHJkZjpEZXNjcmlwdGlvbiByZGY6YWJvdXQ9IiIgeG1sbnM6eG1wTU09Imh0dHA6Ly9ucy5hZG9iZS5jb20veGFwLzEuMC9tbS8iIHhtbG5zOnN0UmVmPSJodHRwOi8vbnMuYWRvYmUuY29tL3hhcC8xLjAvc1R5cGUvUmVzb3VyY2VSZWYjIiB4bWxuczp4bXA9Imh0dHA6Ly9ucy5hZG9iZS5jb20veGFwLzEuMC8iIHhtcE1NOk9yaWdpbmFsRG9jdW1lbnRJRD0ieG1wLmRpZDpmMzc2M2FjNC0xYjg0LTQ0YzAtYTg3Zi1kMzNjZDY4OGE3YjMiIHhtcE1NOkRvY3VtZW50SUQ9InhtcC5kaWQ6NkE3NzBEOTBFQjdDMTFFNEEwMjZCNTBBNDk5MkYxMDciIHhtcE1NOkluc3RhbmNlSUQ9InhtcC5paWQ6M0JENTI2M0VFQjdDMTFFNEEwMjZCNTBBNDk5MkYxMDciIHhtcDpDcmVhdG9yVG9vbD0iQWRvYmUgUGhvdG9zaG9wIENDIDIwMTQgKE1hY2ludG9zaCkiPiA8eG1wTU06RGVyaXZlZEZyb20gc3RSZWY6aW5zdGFuY2VJRD0ieG1wLmlpZDozMDNlZGEzOC1mMWUyLTQ3ODktYmQ0Zi03MTdiNjVmZWI3NGEiIHN0UmVmOmRvY3VtZW50SUQ9ImFkb2JlOmRvY2lkOnBob3Rvc2hvcDpkMTVjY2QzMS0zM2UzLTExNzgtYjU4Mi1lOWJkOGJlNTRlMzQiLz4gPC9yZGY6RGVzY3JpcHRpb24+IDwvcmRmOlJERj4gPC94OnhtcG1ldGE+IDw/eHBhY2tldCBlbmQ9InIiPz5MMMQcAAAP3ElEQVR42uydCbRVZRmGPxKnErOVmJbDBRWH1NRS0SLBqZxyyATFHNEgyXAeSotwRNFyAsFZc8ABp9TE2ZxxDI3lcEUFQQ1HUETk9r7934nr7cLd+5yz99nD+6z1Ll2se+7dZ+//3fv/v+/7v92ppaXFhBDt8xWdAiFkECFkECFkECFkECFkECFkECFkECFkECFkECGEDCKEDCKEDCKEDCKEDCKEDCJEruhc6y/oPnKmzqJoGM2DltITpCQsCm0PLatToSmWmE9X6PfQa9Bt0JvQxdCGOjUySJnZ0I1AQwyDvuP/vgS0H/QU9DDUz58uIo9rEBH7fO8MHQL1ivDzm7mmQWOgUf7/Qk+QQvFN6BjoVei6iOZozQrQCdDr0NVuGiGD5J71oNE+jToFWrkOC/l+PvV6yqdiS+g0yyB5YhGfRt0LPQcdCC2Z8BqmHuYTMkiiLAMdAb0MjYP6pPR3l/XpWzN0Q4p/VwYRkVgbGglNgU6HujXwybWrP7n+Cf0K+poujwzSqPO2A3QXNBEamLHBuI6FiBdNOwJaVZdMBkmDpaEh0EvQrdDWUKeMT/sO8+NlEvInGT9eGSSn9IDO8TvyWTm8I/M6s4zlTmgS9Bs3u5BBqoZ32p9Ct/ugGgx1KYjZz3aznwutqUstg8SBJjjYTXEHtG1BpyWV7/mir6V+5gt9IYO0C6dNZ1rIK5zrd9qyPCm5lroZegU6ykLmX8gg/x0cW0G3+EL2UOjrJT4fTdBpfpO4EFpfBiknDMkyT8AQ7XhoR90svgQz/wdAz0APQrtbSSuKy1bN2+Tzbl78b8gHkejlmmoht8Kq4rf1BCkWvaEbfY59hMxRFdyvwn0rrCi+AtpYBsn/NGGAhYLB+6BdTFGaerA4tBf0uGsv/zcZJCesZKG69Q2fDqynMZ0YG/vT5HX78q5IGSSjc+WxFqpaWd2q5gfp8S2bv6/+Wou/IUwGSfBxv6+FzUOMtvzCtI24kTDStbtfC0bADrBk9sLIIB3wbX+kcxp1iakDSBZhDoW5FOZUmFtpkkGSpyd0FTTZH+nLaRxmHmblmZ1nBJEbybJeAZ07gywG9YeegB6F9jC1wckjla3IrPti/RfzUV1kkOpZ3uZ38rgS2khjrDCwgpj1bqwoZmVxDxkkOj+ALvdp1FA3iigm3JPCvSmsnOZele2zNiazcjCcMvWFHoGehH5pBU4+if+DaxLuduSuRxaNchfkMjJI6Ev7Owvx82ugTTVWSg+3HYzw6Rdrv9Ypo0EYAmRPJ4ZpT7QCZmBFzVQqrtmhhZ1adrUGlAqlaRB+ud2gBywkkdQVUESFvb7Y8yv1Kok0DMI4+NH+5diX9se63qJK2D2SdXapvSKiU0tLS02/YCFvmOLckV3MmcP4qq6tSAgGdthx5obmQUt9nnWD8InEzf8M3W2haydSZJov6kfDKNOzZhCG5FiYxuxoN10r0UDmWNgcdw6M8khDDQJzrIj/HAftbeoDK7LH09DxMMrtjVqkv2WhBSfLm1t0PUTG1iZsJj4+K2sQ1tOw++A+praWojF8aqHa+3w8NZ7O4iKddPEpFxfqa+iaiRSYbOEVFBfBGDPq+YuTDPOyvmYbN8q2pr5Tor5w4DLDzqrgW2GML5L4I50T/gJ/d7G+hhGu/a3cnQtF7XxsodqbxpgEYyT6x6q+q+PJsRgUtZCMb3dlhSajXr+2sGFGiDiwyvcQH0Nc606KOE5ryrbX8gThZnwWkt0PnQfdBM3t4DMzfa7IhM6WPv3aQdMvsQDmQX/z8XWXRYyUwhTcKtHPjbS61VA6X48pVm/XFB/87EX1boTp192ubv5UUTtQUeF9Lrih8y1shYg6q+HTZZCFNwt39X/+sCFTrHbgwZ1koZCMc8SorSl5Ao600PCN7/qbqPFRWp6HDvKxdGRUc8AYm0PX+c8f18ocNVN1FAsHxMX2Bx38GBstsJCMB/9ZjF/fx6dfeqlL8WGB4ThfdD8U43MsgO3v06iFdc/8EAv5qqdYSc/9W7emPNHvDFFgL11ukFkNGg7N0DgqHG/7mOAUu28Mc/DnT/cp/WhLuLVsWotjtqasbK3l02TziJ+bbGEvyUo+r3xe4yr3sOE1ew6sAh1v4bUKHc507MtvwUqtQ3/a0SMGBbir8H4LXdc534xS5MgSAnbp+54HBK63jiNmIjtwen2ZhdZNbP53ZcQpd3vvUUx1zDYyvMpH4wUW/2X33LLLHrzdoVOhf2v8ZZYpPnPgDGBfaELEz2XmTbxZyD+097L7KMfFaNmxfvKZoX9a4zEzcA35c18vnGwdh/0rYzFz73LPUoKu7QkaYtHKUmZbaGD9fQv73cd6ZESkyyyfEaxrYTfpjRGnwe3dIDtlaVBmEWY/z/JHLJNFa0f83EMeEenmEZJ3NG4Th4vmwy1EKOPksVimNKqKKbYM0gpWojEz+oLF64001SMkK8ec+4posATkDmg7C1sa+H75DyJ8bhG/hryWLFNi36tM70TNUw1UNb2RWkdP2LXxak2/aoJlG3/2RfN2bpJ5ET63rF+zZr+GffLyhfNYJNi6N9KlFppdR+ExaE8L8fc/QdM13iMz0Z/knEYdCr0c8XOspL3Yr9Upfu1yRZ6raNmVkdt72ez6UR/8i0X4HNvD/MGNwje0PqHx3y5f+EJ7C194c70wM8Ln2IiclbQPW3g1Xq47aBalzJzJp79avLetzvHPbOKKmrwqOswrMb/EPBNDtfdF/Fzr97lwKrtZEU5G0fZh8CJV87ZVPkVY/tDkT5dpJTTGBA9ocBrF/NIbVdyc+D6XFYp0Uoq6Uant21YHWLT2p9N9fcLp1x4+dSsyfIpe5QGMjTygEeUpuniV01sZJIPwVQvcxMV4O6tAo3R+ZKTrGp8mxBk4eWGqT4d4I+jvAYwotN7zEydAIoPkAFZ/sgqUiS1WhUbN2FamHiv59G1qjs9B60TqMIseyWNY9npLYEOSDJLN78yq0Lg1P+/63TPu/oVGw0pobl/dwOKV4rR9gQ0X7J3LOFjKTNuq0bUiTr/G+mBjnJ91YLMz+N0qW5lX9DXYsxE/l6lXoMkg2aCy74AlLWwkwfd5RylpYQBgf59+xYn8JAX3T7MX7U4WdmOeAb0X4XOZfYmmDJItOFDYjmicr1WOsvCGrI6o5A549+VelQdSPu6P/AnIok52s7zFopWAZP41zDJIdmmCTvOpRtTXfc31xWxvC7sfx/gaICk4sAf7NKoy0KOwphtqik8xe+hyyyDVwjIJlkuwbILlEyyjWDTC5yotbDj94r76yXU6nnn+hNjGnxhsqvZxjOAEt66+6FPKLrq8Mkg9YV6EZRRxssbsyDLc1wS7WIgIVUPl96zqa4zxFq3TYNvw9taWoQ1JMkgxoTHi1h2x+O8mX+Ow+I+772ZF+ByjTwOqeBJxz/9oi5cgFTJIXWlduco98WyfumSEz7F8fKCvHXh3b9tBkKFk1pIxlMz8xUUR1zJtu8awVZLeMFwDSXdWLCMzfECPjHG3541qB39SMHTM/EOcgsmubobKng0xn5o6K8ogycEpFd/fyD31d1sy73BkLdRgf4otrlNef4NoipUcTDQy4VjvqBGrZlk9yypaVtPuI3NoDZJ32uYdqmmExsDAUA8McP9FT51WGaRoVDLXcVpptg4tM3K2vE5jenTWKWgIlWbMFCNYLAj8pJ2fY65jK50uPUHKDPMTC8rMqwREBhFCBhFCBhFCBhFCBhFCyCBCyCBCyCBCyCBCyCBCyCBCyCBCyCBCyCBCyCBCCBlECBlECBlECBlECBlECBlECBlECBlECBlECCGDCCGDCCGDCCGDCCGDCCGDCCGDCCGDCCGDCCGDCCFkECFkECFkECFkECFkECFkECFkECFkECFkECFkECGEDCKEDCJEhgwyG7oVatFpFBllLjSull/QqaWltvHdfeTMdfCfY6C+UGddk6pYBvqwnX9/HVpZpyc2n0GXQsObBy3V3Ogp1kRoL6gHdL4/WYRoBB9DI6BuMMbAWs1hdb7jvwYdDA2DDoUGQkvrmokUmAGdDZ0LU7xXz19cjynWwqYNNMwh0HK6hppiJcBU6EzoAhhjVhJ/IMk1wwfQSdBZ0P7QkbrYok68Ap0GXQ5jzEnyD6UR5v2Ejz5oNWg/6F+6vqJKnoP2gNaELoTmJP0H08yDfO6RBUa9doWe1PUWEXkY2h7aALoG+iKtP9yIROE8C7HpjaGtoHt1/cUCuBPaHPoRdLs1IOfW6Ez6PdCWUE/oJjePKDccA9dBG0LbQg828mCyUmryOLQLtC4XXj4dE+WC64lLoLWg3aFnsnBQWavFehHaB1odOg/6VOOm8DCI8xcLQRxGO1/K0sFltViR8f/BUBN0irWfIxD5hmmAE/0aD4HezOJBZr2a9x3oOAv5k2OhtzWucg+v4dHQKtDx0LtZPti8lLt/BJ3qdxs+WSZrnOUOXrOD/RoO92uaefK2H2S2r024RtkbekHjLvO84NeK1yx3xax53TDFOv8rLES9doYe0zjMHE9YiEyu59dqbh6/RN53FDJxdDO0KbQFNF7jsuEwt8UE8CZWgNxWkbbc3gdtA20E3WBKOqZ9o6IZero57inKFyvinvQJ0G7Qdy0knuZo/KYy1eV06vGifcEiN22YZCHxxMUhN9N8ovFcN2b7gruHFTxYUoauJm9Av7UQXmRi6n2N76phaJYh2m4WQravFf0Ll6ntDxNSTEwxQXUUNE3jPfa5402GSb7pZfniZeyLxY39p0PdoUFQs8b/AmH5xxB/YpTy6VvmxnGcR4+C1oD6Q8/LD/+DBYMHWCggZCHhrLKeCHVWDJGYq6D1oR2hR0p8Llhizv5mLDm/2BQBlEFawVj+bdAPod4WdrOVBW5K2s7CJqWxphySDNIBD1jYzVbkAcMbArex9rKwrfUOXXYZpNopB7toXFSQKQcbHlxroQECGyH8Q5dZBqmVl6EB0KoW+nzlcdFKc1/o64t+FlroCBmkrkyBDrOQSxkKvZeDY57lpmZY+0A3u5BBEoW9YP/oRjkceiuDx0jzDvNjpKmn6rLJIGnDxsRn+t35IAstMRsNKwTY5rUJOsHNLGSQhsL3UYzxxTzn98824BhYEcDKAGa9z7BQMSBkkExRiRAxPMy8QhoRIr6fhZUArAgY5WYVMkimYY6BeYVeriTaZnKb8U4WtrSyEmCuTrsMkkf4FKk0Xr7aam+8zG3FfSxsM77F9I5IGaQgMO+wp0+FxsScClUafnM7MbcV36/TKYMUlVctRLwY+RrRwWKaPYovs/mvjJig05cueitt42Du5AjoZFtwZn4zC90lhQxSWhaWjZc5GkzNL/EUQmsQIWQQIYQMIoQMIoQMIoQMIoQMIoQMIoQMIoQMIoQMIoSQQYSQQYSQQYSQQYRIlf8IMABVs2rj5+hHbgAAAABJRU5ErkJggg==;fontFamily=Times New Roman;" parent="AVty2RS2mHh-OYDV_8O--69" vertex="1">
          <mxGeometry x="14.490000000000009" y="92" width="100" height="100" as="geometry" />
        </mxCell>
        <mxCell id="AVty2RS2mHh-OYDV_8O--59" value="" style="shape=note;whiteSpace=wrap;html=1;backgroundOutline=1;darkOpacity=0.05;fillColor=#d5e8d4;strokeColor=#82b366;aspect=fixed;fontFamily=Times New Roman;" parent="AVty2RS2mHh-OYDV_8O--69" vertex="1">
          <mxGeometry x="131.36" y="172" width="60" height="75" as="geometry" />
        </mxCell>
        <mxCell id="AVty2RS2mHh-OYDV_8O--60" value="&lt;b&gt;Code&lt;/b&gt;" style="text;html=1;strokeColor=none;fillColor=none;align=center;verticalAlign=middle;whiteSpace=wrap;rounded=0;fontFamily=Times New Roman;" parent="AVty2RS2mHh-OYDV_8O--69" vertex="1">
          <mxGeometry x="115.86000000000001" y="251" width="91" height="30" as="geometry" />
        </mxCell>
        <mxCell id="AVty2RS2mHh-OYDV_8O--64" value="" style="curved=1;endArrow=classic;html=1;rounded=0;entryX=0.036;entryY=0.747;entryDx=0;entryDy=0;entryPerimeter=0;fontFamily=Times New Roman;" parent="1" source="AVty2RS2mHh-OYDV_8O--61" target="AVty2RS2mHh-OYDV_8O--59" edge="1">
          <mxGeometry width="50" height="50" relative="1" as="geometry">
            <mxPoint x="605" y="515" as="sourcePoint" />
            <mxPoint x="655" y="465" as="targetPoint" />
            <Array as="points">
              <mxPoint x="630" y="526" />
              <mxPoint x="601" y="666" />
              <mxPoint x="649" y="764" />
            </Array>
          </mxGeometry>
        </mxCell>
        <mxCell id="AVty2RS2mHh-OYDV_8O--71" value="" style="group;fontFamily=Times New Roman;" parent="1" vertex="1" connectable="0">
          <mxGeometry x="-221" y="559" width="616" height="388" as="geometry" />
        </mxCell>
        <mxCell id="AVty2RS2mHh-OYDV_8O--32" value="" style="whiteSpace=wrap;html=1;fillColor=#fff2cc;strokeColor=#d6b656;fontFamily=Times New Roman;" parent="AVty2RS2mHh-OYDV_8O--71" vertex="1">
          <mxGeometry x="197" width="419" height="332" as="geometry" />
        </mxCell>
        <mxCell id="AVty2RS2mHh-OYDV_8O--6" value="" style="shape=image;verticalLabelPosition=bottom;labelBackgroundColor=default;verticalAlign=top;aspect=fixed;imageAspect=0;image=data:image/svg+xml,PHN2ZyB4bWxucz0iaHR0cDovL3d3dy53My5vcmcvMjAwMC9zdmciIGZpbGw9Im5vbmUiIHZpZXdCb3g9IjAgMCAxMDAgMTAwIj4mI3hhOzxtYXNrIGhlaWdodD0iMTAwIiB3aWR0aD0iMTAwIiB5PSIwIiB4PSIwIiBtYXNrVW5pdHM9InVzZXJTcGFjZU9uVXNlIiBpZD0ibWFzazAiPiYjeGE7PHBhdGggZmlsbD0id2hpdGUiIGQ9Ik03MC45MTE5IDk5LjMxNzFDNzIuNDg2OSA5OS45MzA3IDc0LjI4MjggOTkuODkxNCA3NS44NzI1IDk5LjEyNjRMOTYuNDYwOCA4OS4yMTk3Qzk4LjYyNDIgODguMTc4NyAxMDAgODUuOTg5MiAxMDAgODMuNTg3MlYxNi40MTMzQzEwMCAxNC4wMTEzIDk4LjYyNDMgMTEuODIxOCA5Ni40NjA5IDEwLjc4MDhMNzUuODcyNSAwLjg3Mzc1NkM3My43ODYyIC0wLjEzMDEyOSA3MS4zNDQ2IDAuMTE1NzYgNjkuNTEzNSAxLjQ0Njk1QzY5LjI1MiAxLjYzNzExIDY5LjAwMjggMS44NDk0MyA2OC43NjkgMi4wODM0MUwyOS4zNTUxIDM4LjA0MTVMMTIuMTg3MiAyNS4wMDk2QzEwLjU4OSAyMy43OTY1IDguMzUzNjMgMjMuODk1OSA2Ljg2OTMzIDI1LjI0NjFMMS4zNjMwMyAzMC4yNTQ5Qy0wLjQ1MjU1MiAzMS45MDY0IC0wLjQ1NDYzMyAzNC43NjI3IDEuMzU4NTMgMzYuNDE3TDE2LjI0NzEgNTAuMDAwMUwxLjM1ODUzIDYzLjU4MzJDLTAuNDU0NjMzIDY1LjIzNzQgLTAuNDUyNTUyIDY4LjA5MzggMS4zNjMwMyA2OS43NDUzTDYuODY5MzMgNzQuNzU0MUM4LjM1MzYzIDc2LjEwNDMgMTAuNTg5IDc2LjIwMzcgMTIuMTg3MiA3NC45OTA1TDI5LjM1NTEgNjEuOTU4N0w2OC43NjkgOTcuOTE2N0M2OS4zOTI1IDk4LjU0MDYgNzAuMTI0NiA5OS4wMTA0IDcwLjkxMTkgOTkuMzE3MVpNNzUuMDE1MiAyNy4yOTg5TDQ1LjEwOTEgNTAuMDAwMUw3NS4wMTUyIDcyLjcwMTJWMjcuMjk4OVoiIGNsaXAtcnVsZT0iZXZlbm9kZCIgZmlsbC1ydWxlPSJldmVub2RkIi8+JiN4YTs8L21hc2s+JiN4YTs8ZyBtYXNrPSJ1cmwoI21hc2swKSI+JiN4YTs8cGF0aCBmaWxsPSIjMDA2NUE5IiBkPSJNOTYuNDYxNCAxMC43OTYyTDc1Ljg1NjkgMC44NzU1NDJDNzMuNDcxOSAtMC4yNzI3NzMgNzAuNjIxNyAwLjIxMTYxMSA2OC43NSAyLjA4MzMzTDEuMjk4NTggNjMuNTgzMkMtMC41MTU2OTMgNjUuMjM3MyAtMC41MTM2MDcgNjguMDkzNyAxLjMwMzA4IDY5Ljc0NTJMNi44MTI3MiA3NC43NTRDOC4yOTc5MyA3Ni4xMDQyIDEwLjUzNDcgNzYuMjAzNiAxMi4xMzM4IDc0Ljk5MDVMOTMuMzYwOSAxMy4zNjk5Qzk2LjA4NiAxMS4zMDI2IDEwMCAxMy4yNDYyIDEwMCAxNi42NjY3VjE2LjQyNzVDMTAwIDE0LjAyNjUgOTguNjI0NiAxMS44Mzc4IDk2LjQ2MTQgMTAuNzk2MloiLz4mI3hhOzxnIGZpbHRlcj0idXJsKCNmaWx0ZXIwX2QpIj4mI3hhOzxwYXRoIGZpbGw9IiMwMDdBQ0MiIGQ9Ik05Ni40NjE0IDg5LjIwMzhMNzUuODU2OSA5OS4xMjQ1QzczLjQ3MTkgMTAwLjI3MyA3MC42MjE3IDk5Ljc4ODQgNjguNzUgOTcuOTE2N0wxLjI5ODU4IDM2LjQxNjlDLTAuNTE1NjkzIDM0Ljc2MjcgLTAuNTEzNjA3IDMxLjkwNjMgMS4zMDMwOCAzMC4yNTQ4TDYuODEyNzIgMjUuMjQ2QzguMjk3OTMgMjMuODk1OCAxMC41MzQ3IDIzLjc5NjQgMTIuMTMzOCAyNS4wMDk1TDkzLjM2MDkgODYuNjMwMUM5Ni4wODYgODguNjk3NCAxMDAgODYuNzUzOCAxMDAgODMuMzMzNFY4My41NzI2QzEwMCA4NS45NzM1IDk4LjYyNDYgODguMTYyMiA5Ni40NjE0IDg5LjIwMzhaIi8+JiN4YTs8L2c+JiN4YTs8ZyBmaWx0ZXI9InVybCgjZmlsdGVyMV9kKSI+JiN4YTs8cGF0aCBmaWxsPSIjMUY5Q0YwIiBkPSJNNzUuODU3OCA5OS4xMjYzQzczLjQ3MjEgMTAwLjI3NCA3MC42MjE5IDk5Ljc4ODUgNjguNzUgOTcuOTE2NkM3MS4wNTY0IDEwMC4yMjMgNzUgOTguNTg5NSA3NSA5NS4zMjc4VjQuNjcyMTNDNzUgMS40MTAzOSA3MS4wNTY0IC0wLjIyMzEwNiA2OC43NSAyLjA4MzI5QzcwLjYyMTkgMC4yMTE0MDIgNzMuNDcyMSAtMC4yNzM2NjYgNzUuODU3OCAwLjg3MzYzM0w5Ni40NTg3IDEwLjc4MDdDOTguNjIzNCAxMS44MjE3IDEwMCAxNC4wMTEyIDEwMCAxNi40MTMyVjgzLjU4NzFDMTAwIDg1Ljk4OTEgOTguNjIzNCA4OC4xNzg2IDk2LjQ1ODYgODkuMjE5Nkw3NS44NTc4IDk5LjEyNjNaIi8+JiN4YTs8L2c+JiN4YTs8ZyBvcGFjaXR5PSIwLjI1IiBzdHlsZT0ibWl4LWJsZW5kLW1vZGU6b3ZlcmxheSI+JiN4YTs8cGF0aCBmaWxsPSJ1cmwoI3BhaW50MF9saW5lYXIpIiBkPSJNNzAuODUxMSA5OS4zMTcxQzcyLjQyNjEgOTkuOTMwNiA3NC4yMjIxIDk5Ljg5MTMgNzUuODExNyA5OS4xMjY0TDk2LjQgODkuMjE5N0M5OC41NjM0IDg4LjE3ODcgOTkuOTM5MiA4NS45ODkyIDk5LjkzOTIgODMuNTg3MVYxNi40MTMzQzk5LjkzOTIgMTQuMDExMiA5OC41NjM1IDExLjgyMTcgOTYuNDAwMSAxMC43ODA3TDc1LjgxMTcgMC44NzM2OTVDNzMuNzI1NSAtMC4xMzAxOSA3MS4yODM4IDAuMTE1Njk5IDY5LjQ1MjcgMS40NDY4OEM2OS4xOTEyIDEuNjM3MDUgNjguOTQyIDEuODQ5MzcgNjguNzA4MiAyLjA4MzM1TDI5LjI5NDMgMzguMDQxNEwxMi4xMjY0IDI1LjAwOTZDMTAuNTI4MyAyMy43OTY0IDguMjkyODUgMjMuODk1OSA2LjgwODU1IDI1LjI0NkwxLjMwMjI1IDMwLjI1NDhDLTAuNTEzMzM0IDMxLjkwNjQgLTAuNTE1NDE1IDM0Ljc2MjcgMS4yOTc3NSAzNi40MTY5TDE2LjE4NjMgNTBMMS4yOTc3NSA2My41ODMyQy0wLjUxNTQxNSA2NS4yMzc0IC0wLjUxMzMzNCA2OC4wOTM3IDEuMzAyMjUgNjkuNzQ1Mkw2LjgwODU1IDc0Ljc1NEM4LjI5Mjg1IDc2LjEwNDIgMTAuNTI4MyA3Ni4yMDM2IDEyLjEyNjQgNzQuOTkwNUwyOS4yOTQzIDYxLjk1ODZMNjguNzA4MiA5Ny45MTY3QzY5LjMzMTcgOTguNTQwNSA3MC4wNjM4IDk5LjAxMDQgNzAuODUxMSA5OS4zMTcxWk03NC45NTQ0IDI3LjI5ODlMNDUuMDQ4MyA1MEw3NC45NTQ0IDcyLjcwMTJWMjcuMjk4OVoiIGNsaXAtcnVsZT0iZXZlbm9kZCIgZmlsbC1ydWxlPSJldmVub2RkIi8+JiN4YTs8L2c+JiN4YTs8L2c+JiN4YTs8ZGVmcz4mI3hhOzxmaWx0ZXIgY29sb3ItaW50ZXJwb2xhdGlvbi1maWx0ZXJzPSJzUkdCIiBmaWx0ZXJVbml0cz0idXNlclNwYWNlT25Vc2UiIGhlaWdodD0iOTIuMjQ1NiIgd2lkdGg9IjExNi43MjciIHk9IjE1LjgyOTEiIHg9Ii04LjM5NDExIiBpZD0iZmlsdGVyMF9kIj4mI3hhOzxmZUZsb29kIHJlc3VsdD0iQmFja2dyb3VuZEltYWdlRml4IiBmbG9vZC1vcGFjaXR5PSIwIi8+JiN4YTs8ZmVDb2xvck1hdHJpeCB2YWx1ZXM9IjAgMCAwIDAgMCAwIDAgMCAwIDAgMCAwIDAgMCAwIDAgMCAwIDEyNyAwIiB0eXBlPSJtYXRyaXgiIGluPSJTb3VyY2VBbHBoYSIvPiYjeGE7PGZlT2Zmc2V0Lz4mI3hhOzxmZUdhdXNzaWFuQmx1ciBzdGREZXZpYXRpb249IjQuMTY2NjciLz4mI3hhOzxmZUNvbG9yTWF0cml4IHZhbHVlcz0iMCAwIDAgMCAwIDAgMCAwIDAgMCAwIDAgMCAwIDAgMCAwIDAgMC4yNSAwIiB0eXBlPSJtYXRyaXgiLz4mI3hhOzxmZUJsZW5kIHJlc3VsdD0iZWZmZWN0MV9kcm9wU2hhZG93IiBpbjI9IkJhY2tncm91bmRJbWFnZUZpeCIgbW9kZT0ib3ZlcmxheSIvPiYjeGE7PGZlQmxlbmQgcmVzdWx0PSJzaGFwZSIgaW4yPSJlZmZlY3QxX2Ryb3BTaGFkb3ciIGluPSJTb3VyY2VHcmFwaGljIiBtb2RlPSJub3JtYWwiLz4mI3hhOzwvZmlsdGVyPiYjeGE7PGZpbHRlciBjb2xvci1pbnRlcnBvbGF0aW9uLWZpbHRlcnM9InNSR0IiIGZpbHRlclVuaXRzPSJ1c2VyU3BhY2VPblVzZSIgaGVpZ2h0PSIxMTYuMTUxIiB3aWR0aD0iNDcuOTE2NyIgeT0iLTguMDc1NTgiIHg9IjYwLjQxNjciIGlkPSJmaWx0ZXIxX2QiPiYjeGE7PGZlRmxvb2QgcmVzdWx0PSJCYWNrZ3JvdW5kSW1hZ2VGaXgiIGZsb29kLW9wYWNpdHk9IjAiLz4mI3hhOzxmZUNvbG9yTWF0cml4IHZhbHVlcz0iMCAwIDAgMCAwIDAgMCAwIDAgMCAwIDAgMCAwIDAgMCAwIDAgMTI3IDAiIHR5cGU9Im1hdHJpeCIgaW49IlNvdXJjZUFscGhhIi8+JiN4YTs8ZmVPZmZzZXQvPiYjeGE7PGZlR2F1c3NpYW5CbHVyIHN0ZERldmlhdGlvbj0iNC4xNjY2NyIvPiYjeGE7PGZlQ29sb3JNYXRyaXggdmFsdWVzPSIwIDAgMCAwIDAgMCAwIDAgMCAwIDAgMCAwIDAgMCAwIDAgMCAwLjI1IDAiIHR5cGU9Im1hdHJpeCIvPiYjeGE7PGZlQmxlbmQgcmVzdWx0PSJlZmZlY3QxX2Ryb3BTaGFkb3ciIGluMj0iQmFja2dyb3VuZEltYWdlRml4IiBtb2RlPSJvdmVybGF5Ii8+JiN4YTs8ZmVCbGVuZCByZXN1bHQ9InNoYXBlIiBpbjI9ImVmZmVjdDFfZHJvcFNoYWRvdyIgaW49IlNvdXJjZUdyYXBoaWMiIG1vZGU9Im5vcm1hbCIvPiYjeGE7PC9maWx0ZXI+JiN4YTs8bGluZWFyR3JhZGllbnQgZ3JhZGllbnRVbml0cz0idXNlclNwYWNlT25Vc2UiIHkyPSI5OS43NDIzIiB4Mj0iNDkuOTM5MiIgeTE9IjAuMjU3ODEyIiB4MT0iNDkuOTM5MiIgaWQ9InBhaW50MF9saW5lYXIiPiYjeGE7PHN0b3Agc3RvcC1jb2xvcj0id2hpdGUiLz4mI3hhOzxzdG9wIHN0b3Atb3BhY2l0eT0iMCIgc3RvcC1jb2xvcj0id2hpdGUiIG9mZnNldD0iMSIvPiYjeGE7PC9saW5lYXJHcmFkaWVudD4mI3hhOzwvZGVmcz4mI3hhOzwvc3ZnPg==;fontFamily=Times New Roman;" parent="AVty2RS2mHh-OYDV_8O--71" vertex="1">
          <mxGeometry x="213" y="10" width="60" height="60" as="geometry" />
        </mxCell>
        <mxCell id="AVty2RS2mHh-OYDV_8O--8" value="&lt;b&gt;&lt;font style=&quot;font-size: 24px;&quot;&gt;Local Environment&lt;/font&gt;&lt;/b&gt;" style="text;html=1;strokeColor=none;fillColor=none;align=left;verticalAlign=middle;whiteSpace=wrap;rounded=0;fontFamily=Times New Roman;" parent="AVty2RS2mHh-OYDV_8O--71" vertex="1">
          <mxGeometry x="281.49" y="358" width="250" height="30" as="geometry" />
        </mxCell>
        <mxCell id="AVty2RS2mHh-OYDV_8O--33" value="&lt;b&gt;&lt;font style=&quot;font-size: 18px;&quot;&gt;Development Environment&lt;/font&gt;&lt;/b&gt;" style="text;html=1;strokeColor=none;fillColor=none;align=center;verticalAlign=middle;whiteSpace=wrap;rounded=0;fontFamily=Times New Roman;" parent="AVty2RS2mHh-OYDV_8O--71" vertex="1">
          <mxGeometry x="288.87" y="12" width="235.25" height="30" as="geometry" />
        </mxCell>
        <mxCell id="AVty2RS2mHh-OYDV_8O--39" value="" style="whiteSpace=wrap;html=1;fillColor=#FFFAFC;fontFamily=Times New Roman;" parent="AVty2RS2mHh-OYDV_8O--71" vertex="1">
          <mxGeometry x="380.13" y="112.25" width="208.75" height="201.75" as="geometry" />
        </mxCell>
        <mxCell id="AVty2RS2mHh-OYDV_8O--36" value="" style="shape=image;verticalLabelPosition=bottom;labelBackgroundColor=default;verticalAlign=top;aspect=fixed;imageAspect=0;image=data:image/jpeg,iVBORw0KGgoAAAANSUhEUgAAAMgAAADICAYAAACtWK6eAAAAGXRFWHRTb2Z0d2FyZQBBZG9iZSBJbWFnZVJlYWR5ccllPAAAA4ZpVFh0WE1MOmNvbS5hZG9iZS54bXAAAAAAADw/eHBhY2tldCBiZWdpbj0i77u/IiBpZD0iVzVNME1wQ2VoaUh6cmVTek5UY3prYzlkIj8+IDx4OnhtcG1ldGEgeG1sbnM6eD0iYWRvYmU6bnM6bWV0YS8iIHg6eG1wdGs9IkFkb2JlIFhNUCBDb3JlIDUuNi1jMDE0IDc5LjE1Njc5NywgMjAxNC8wOC8yMC0wOTo1MzowMiAgICAgICAgIj4gPHJkZjpSREYgeG1sbnM6cmRmPSJodHRwOi8vd3d3LnczLm9yZy8xOTk5LzAyLzIyLXJkZi1zeW50YXgtbnMjIj4gPHJkZjpEZXNjcmlwdGlvbiByZGY6YWJvdXQ9IiIgeG1sbnM6eG1wTU09Imh0dHA6Ly9ucy5hZG9iZS5jb20veGFwLzEuMC9tbS8iIHhtbG5zOnN0UmVmPSJodHRwOi8vbnMuYWRvYmUuY29tL3hhcC8xLjAvc1R5cGUvUmVzb3VyY2VSZWYjIiB4bWxuczp4bXA9Imh0dHA6Ly9ucy5hZG9iZS5jb20veGFwLzEuMC8iIHhtcE1NOk9yaWdpbmFsRG9jdW1lbnRJRD0ieG1wLmRpZDpmMzc2M2FjNC0xYjg0LTQ0YzAtYTg3Zi1kMzNjZDY4OGE3YjMiIHhtcE1NOkRvY3VtZW50SUQ9InhtcC5kaWQ6NkE3NzBEOTBFQjdDMTFFNEEwMjZCNTBBNDk5MkYxMDciIHhtcE1NOkluc3RhbmNlSUQ9InhtcC5paWQ6M0JENTI2M0VFQjdDMTFFNEEwMjZCNTBBNDk5MkYxMDciIHhtcDpDcmVhdG9yVG9vbD0iQWRvYmUgUGhvdG9zaG9wIENDIDIwMTQgKE1hY2ludG9zaCkiPiA8eG1wTU06RGVyaXZlZEZyb20gc3RSZWY6aW5zdGFuY2VJRD0ieG1wLmlpZDozMDNlZGEzOC1mMWUyLTQ3ODktYmQ0Zi03MTdiNjVmZWI3NGEiIHN0UmVmOmRvY3VtZW50SUQ9ImFkb2JlOmRvY2lkOnBob3Rvc2hvcDpkMTVjY2QzMS0zM2UzLTExNzgtYjU4Mi1lOWJkOGJlNTRlMzQiLz4gPC9yZGY6RGVzY3JpcHRpb24+IDwvcmRmOlJERj4gPC94OnhtcG1ldGE+IDw/eHBhY2tldCBlbmQ9InIiPz5MMMQcAAAP3ElEQVR42uydCbRVZRmGPxKnErOVmJbDBRWH1NRS0SLBqZxyyATFHNEgyXAeSotwRNFyAsFZc8ABp9TE2ZxxDI3lcEUFQQ1HUETk9r7934nr7cLd+5yz99nD+6z1Ll2se+7dZ+//3fv/v+/7v92ppaXFhBDt8xWdAiFkECFkECFkECFkECFkECFkECFkECFkECFkECGEDCKEDCKEDCKEDCKEDCKEDCJEruhc6y/oPnKmzqJoGM2DltITpCQsCm0PLatToSmWmE9X6PfQa9Bt0JvQxdCGOjUySJnZ0I1AQwyDvuP/vgS0H/QU9DDUz58uIo9rEBH7fO8MHQL1ivDzm7mmQWOgUf7/Qk+QQvFN6BjoVei6iOZozQrQCdDr0NVuGiGD5J71oNE+jToFWrkOC/l+PvV6yqdiS+g0yyB5YhGfRt0LPQcdCC2Z8BqmHuYTMkiiLAMdAb0MjYP6pPR3l/XpWzN0Q4p/VwYRkVgbGglNgU6HujXwybWrP7n+Cf0K+poujwzSqPO2A3QXNBEamLHBuI6FiBdNOwJaVZdMBkmDpaEh0EvQrdDWUKeMT/sO8+NlEvInGT9eGSSn9IDO8TvyWTm8I/M6s4zlTmgS9Bs3u5BBqoZ32p9Ct/ugGgx1KYjZz3aznwutqUstg8SBJjjYTXEHtG1BpyWV7/mir6V+5gt9IYO0C6dNZ1rIK5zrd9qyPCm5lroZegU6ykLmX8gg/x0cW0G3+EL2UOjrJT4fTdBpfpO4EFpfBiknDMkyT8AQ7XhoR90svgQz/wdAz0APQrtbSSuKy1bN2+Tzbl78b8gHkejlmmoht8Kq4rf1BCkWvaEbfY59hMxRFdyvwn0rrCi+AtpYBsn/NGGAhYLB+6BdTFGaerA4tBf0uGsv/zcZJCesZKG69Q2fDqynMZ0YG/vT5HX78q5IGSSjc+WxFqpaWd2q5gfp8S2bv6/+Wou/IUwGSfBxv6+FzUOMtvzCtI24kTDStbtfC0bADrBk9sLIIB3wbX+kcxp1iakDSBZhDoW5FOZUmFtpkkGSpyd0FTTZH+nLaRxmHmblmZ1nBJEbybJeAZ07gywG9YeegB6F9jC1wckjla3IrPti/RfzUV1kkOpZ3uZ38rgS2khjrDCwgpj1bqwoZmVxDxkkOj+ALvdp1FA3iigm3JPCvSmsnOZele2zNiazcjCcMvWFHoGehH5pBU4+if+DaxLuduSuRxaNchfkMjJI6Ev7Owvx82ugTTVWSg+3HYzw6Rdrv9Ypo0EYAmRPJ4ZpT7QCZmBFzVQqrtmhhZ1adrUGlAqlaRB+ud2gBywkkdQVUESFvb7Y8yv1Kok0DMI4+NH+5diX9se63qJK2D2SdXapvSKiU0tLS02/YCFvmOLckV3MmcP4qq6tSAgGdthx5obmQUt9nnWD8InEzf8M3W2haydSZJov6kfDKNOzZhCG5FiYxuxoN10r0UDmWNgcdw6M8khDDQJzrIj/HAftbeoDK7LH09DxMMrtjVqkv2WhBSfLm1t0PUTG1iZsJj4+K2sQ1tOw++A+praWojF8aqHa+3w8NZ7O4iKddPEpFxfqa+iaiRSYbOEVFBfBGDPq+YuTDPOyvmYbN8q2pr5Tor5w4DLDzqrgW2GML5L4I50T/gJ/d7G+hhGu/a3cnQtF7XxsodqbxpgEYyT6x6q+q+PJsRgUtZCMb3dlhSajXr+2sGFGiDiwyvcQH0Nc606KOE5ryrbX8gThZnwWkt0PnQfdBM3t4DMzfa7IhM6WPv3aQdMvsQDmQX/z8XWXRYyUwhTcKtHPjbS61VA6X48pVm/XFB/87EX1boTp192ubv5UUTtQUeF9Lrih8y1shYg6q+HTZZCFNwt39X/+sCFTrHbgwZ1koZCMc8SorSl5Ao600PCN7/qbqPFRWp6HDvKxdGRUc8AYm0PX+c8f18ocNVN1FAsHxMX2Bx38GBstsJCMB/9ZjF/fx6dfeqlL8WGB4ThfdD8U43MsgO3v06iFdc/8EAv5qqdYSc/9W7emPNHvDFFgL11ukFkNGg7N0DgqHG/7mOAUu28Mc/DnT/cp/WhLuLVsWotjtqasbK3l02TziJ+bbGEvyUo+r3xe4yr3sOE1ew6sAh1v4bUKHc507MtvwUqtQ3/a0SMGBbir8H4LXdc534xS5MgSAnbp+54HBK63jiNmIjtwen2ZhdZNbP53ZcQpd3vvUUx1zDYyvMpH4wUW/2X33LLLHrzdoVOhf2v8ZZYpPnPgDGBfaELEz2XmTbxZyD+097L7KMfFaNmxfvKZoX9a4zEzcA35c18vnGwdh/0rYzFz73LPUoKu7QkaYtHKUmZbaGD9fQv73cd6ZESkyyyfEaxrYTfpjRGnwe3dIDtlaVBmEWY/z/JHLJNFa0f83EMeEenmEZJ3NG4Th4vmwy1EKOPksVimNKqKKbYM0gpWojEz+oLF64001SMkK8ec+4posATkDmg7C1sa+H75DyJ8bhG/hryWLFNi36tM70TNUw1UNb2RWkdP2LXxak2/aoJlG3/2RfN2bpJ5ET63rF+zZr+GffLyhfNYJNi6N9KlFppdR+ExaE8L8fc/QdM13iMz0Z/knEYdCr0c8XOspL3Yr9Upfu1yRZ6raNmVkdt72ez6UR/8i0X4HNvD/MGNwje0PqHx3y5f+EJ7C194c70wM8Ln2IiclbQPW3g1Xq47aBalzJzJp79avLetzvHPbOKKmrwqOswrMb/EPBNDtfdF/Fzr97lwKrtZEU5G0fZh8CJV87ZVPkVY/tDkT5dpJTTGBA9ocBrF/NIbVdyc+D6XFYp0Uoq6Uant21YHWLT2p9N9fcLp1x4+dSsyfIpe5QGMjTygEeUpuniV01sZJIPwVQvcxMV4O6tAo3R+ZKTrGp8mxBk4eWGqT4d4I+jvAYwotN7zEydAIoPkAFZ/sgqUiS1WhUbN2FamHiv59G1qjs9B60TqMIseyWNY9npLYEOSDJLN78yq0Lg1P+/63TPu/oVGw0pobl/dwOKV4rR9gQ0X7J3LOFjKTNuq0bUiTr/G+mBjnJ91YLMz+N0qW5lX9DXYsxE/l6lXoMkg2aCy74AlLWwkwfd5RylpYQBgf59+xYn8JAX3T7MX7U4WdmOeAb0X4XOZfYmmDJItOFDYjmicr1WOsvCGrI6o5A549+VelQdSPu6P/AnIok52s7zFopWAZP41zDJIdmmCTvOpRtTXfc31xWxvC7sfx/gaICk4sAf7NKoy0KOwphtqik8xe+hyyyDVwjIJlkuwbILlEyyjWDTC5yotbDj94r76yXU6nnn+hNjGnxhsqvZxjOAEt66+6FPKLrq8Mkg9YV6EZRRxssbsyDLc1wS7WIgIVUPl96zqa4zxFq3TYNvw9taWoQ1JMkgxoTHi1h2x+O8mX+Ow+I+772ZF+ByjTwOqeBJxz/9oi5cgFTJIXWlduco98WyfumSEz7F8fKCvHXh3b9tBkKFk1pIxlMz8xUUR1zJtu8awVZLeMFwDSXdWLCMzfECPjHG3541qB39SMHTM/EOcgsmubobKng0xn5o6K8ogycEpFd/fyD31d1sy73BkLdRgf4otrlNef4NoipUcTDQy4VjvqBGrZlk9yypaVtPuI3NoDZJ32uYdqmmExsDAUA8McP9FT51WGaRoVDLXcVpptg4tM3K2vE5jenTWKWgIlWbMFCNYLAj8pJ2fY65jK50uPUHKDPMTC8rMqwREBhFCBhFCBhFCBhFCBhFCyCBCyCBCyCBCyCBCyCBCyCBCyCBCyCBCyCBCyCBCCBlECBlECBlECBlECBlECBlECBlECBlECBlECCGDCCGDCCGDCCGDCCGDCCGDCCGDCCGDCCGDCCGDCCFkECFkECFkECFkECFkECFkECFkECFkECFkECFkECGEDCKEDCJEhgwyG7oVatFpFBllLjSull/QqaWltvHdfeTMdfCfY6C+UGddk6pYBvqwnX9/HVpZpyc2n0GXQsObBy3V3Ogp1kRoL6gHdL4/WYRoBB9DI6BuMMbAWs1hdb7jvwYdDA2DDoUGQkvrmokUmAGdDZ0LU7xXz19cjynWwqYNNMwh0HK6hppiJcBU6EzoAhhjVhJ/IMk1wwfQSdBZ0P7QkbrYok68Ap0GXQ5jzEnyD6UR5v2Ejz5oNWg/6F+6vqJKnoP2gNaELoTmJP0H08yDfO6RBUa9doWe1PUWEXkY2h7aALoG+iKtP9yIROE8C7HpjaGtoHt1/cUCuBPaHPoRdLs1IOfW6Ez6PdCWUE/oJjePKDccA9dBG0LbQg828mCyUmryOLQLtC4XXj4dE+WC64lLoLWg3aFnsnBQWavFehHaB1odOg/6VOOm8DCI8xcLQRxGO1/K0sFltViR8f/BUBN0irWfIxD5hmmAE/0aD4HezOJBZr2a9x3oOAv5k2OhtzWucg+v4dHQKtDx0LtZPti8lLt/BJ3qdxs+WSZrnOUOXrOD/RoO92uaefK2H2S2r024RtkbekHjLvO84NeK1yx3xax53TDFOv8rLES9doYe0zjMHE9YiEyu59dqbh6/RN53FDJxdDO0KbQFNF7jsuEwt8UE8CZWgNxWkbbc3gdtA20E3WBKOqZ9o6IZero57inKFyvinvQJ0G7Qdy0knuZo/KYy1eV06vGifcEiN22YZCHxxMUhN9N8ovFcN2b7gruHFTxYUoauJm9Av7UQXmRi6n2N76phaJYh2m4WQravFf0Ll6ntDxNSTEwxQXUUNE3jPfa5402GSb7pZfniZeyLxY39p0PdoUFQs8b/AmH5xxB/YpTy6VvmxnGcR4+C1oD6Q8/LD/+DBYMHWCggZCHhrLKeCHVWDJGYq6D1oR2hR0p8Llhizv5mLDm/2BQBlEFawVj+bdAPod4WdrOVBW5K2s7CJqWxphySDNIBD1jYzVbkAcMbArex9rKwrfUOXXYZpNopB7toXFSQKQcbHlxroQECGyH8Q5dZBqmVl6EB0KoW+nzlcdFKc1/o64t+FlroCBmkrkyBDrOQSxkKvZeDY57lpmZY+0A3u5BBEoW9YP/oRjkceiuDx0jzDvNjpKmn6rLJIGnDxsRn+t35IAstMRsNKwTY5rUJOsHNLGSQhsL3UYzxxTzn98824BhYEcDKAGa9z7BQMSBkkExRiRAxPMy8QhoRIr6fhZUArAgY5WYVMkimYY6BeYVeriTaZnKb8U4WtrSyEmCuTrsMkkf4FKk0Xr7aam+8zG3FfSxsM77F9I5IGaQgMO+wp0+FxsScClUafnM7MbcV36/TKYMUlVctRLwY+RrRwWKaPYovs/mvjJig05cueitt42Du5AjoZFtwZn4zC90lhQxSWhaWjZc5GkzNL/EUQmsQIWQQIYQMIoQMIoQMIoQMIoQMIoQMIoQMIoQMIoQMIoSQQYSQQYSQQYSQQYRIlf8IMABVs2rj5+hHbgAAAABJRU5ErkJggg==;fontFamily=Times New Roman;" parent="AVty2RS2mHh-OYDV_8O--71" vertex="1">
          <mxGeometry x="380.13" y="112.25" width="100" height="100" as="geometry" />
        </mxCell>
        <mxCell id="AVty2RS2mHh-OYDV_8O--40" value="&lt;b&gt;&lt;font style=&quot;font-size: 16px;&quot;&gt;Dev Container&lt;/font&gt;&lt;/b&gt;" style="text;html=1;strokeColor=none;fillColor=none;align=center;verticalAlign=middle;whiteSpace=wrap;rounded=0;fontFamily=Times New Roman;" parent="AVty2RS2mHh-OYDV_8O--71" vertex="1">
          <mxGeometry x="400" y="82.25" width="169" height="30" as="geometry" />
        </mxCell>
        <mxCell id="AVty2RS2mHh-OYDV_8O--48" style="edgeStyle=orthogonalEdgeStyle;rounded=0;orthogonalLoop=1;jettySize=auto;html=1;exitX=0;exitY=0;exitDx=80;exitDy=65;exitPerimeter=0;entryX=-0.001;entryY=0.683;entryDx=0;entryDy=0;entryPerimeter=0;fontFamily=Times New Roman;" parent="AVty2RS2mHh-OYDV_8O--71" source="AVty2RS2mHh-OYDV_8O--42" target="AVty2RS2mHh-OYDV_8O--36" edge="1">
          <mxGeometry relative="1" as="geometry" />
        </mxCell>
        <mxCell id="AVty2RS2mHh-OYDV_8O--42" value="" style="shape=note;whiteSpace=wrap;html=1;backgroundOutline=1;darkOpacity=0.05;fillColor=#d5e8d4;strokeColor=#82b366;fontFamily=Times New Roman;" parent="AVty2RS2mHh-OYDV_8O--71" vertex="1">
          <mxGeometry x="213" y="115" width="80" height="100" as="geometry" />
        </mxCell>
        <mxCell id="AVty2RS2mHh-OYDV_8O--43" value="&lt;b&gt;devcontainer.json&lt;/b&gt;" style="text;html=1;strokeColor=none;fillColor=none;align=center;verticalAlign=middle;whiteSpace=wrap;rounded=0;fontFamily=Times New Roman;" parent="AVty2RS2mHh-OYDV_8O--71" vertex="1">
          <mxGeometry x="226" y="214.75" width="60" height="30" as="geometry" />
        </mxCell>
        <mxCell id="AVty2RS2mHh-OYDV_8O--44" value="&lt;b&gt;Local File System&lt;/b&gt;" style="shape=cylinder3;whiteSpace=wrap;html=1;boundedLbl=1;backgroundOutline=1;size=15;fillColor=#dae8fc;strokeColor=#6c8ebf;fontFamily=Times New Roman;" parent="AVty2RS2mHh-OYDV_8O--71" vertex="1">
          <mxGeometry x="28" y="226" width="60" height="80" as="geometry" />
        </mxCell>
        <mxCell id="AVty2RS2mHh-OYDV_8O--45" value="&lt;b&gt;Local Folder&lt;/b&gt;" style="shape=cylinder3;whiteSpace=wrap;html=1;boundedLbl=1;backgroundOutline=1;size=15;fillColor=#dae8fc;strokeColor=#6c8ebf;fontFamily=Times New Roman;" parent="AVty2RS2mHh-OYDV_8O--71" vertex="1">
          <mxGeometry x="394" y="226" width="60" height="80" as="geometry" />
        </mxCell>
        <mxCell id="AVty2RS2mHh-OYDV_8O--47" style="edgeStyle=orthogonalEdgeStyle;rounded=0;orthogonalLoop=1;jettySize=auto;html=1;exitX=1;exitY=0.5;exitDx=0;exitDy=0;exitPerimeter=0;entryX=0;entryY=0.5;entryDx=0;entryDy=0;entryPerimeter=0;fontFamily=Times New Roman;" parent="AVty2RS2mHh-OYDV_8O--71" source="AVty2RS2mHh-OYDV_8O--44" target="AVty2RS2mHh-OYDV_8O--45" edge="1">
          <mxGeometry relative="1" as="geometry" />
        </mxCell>
        <mxCell id="AVty2RS2mHh-OYDV_8O--49" value="&lt;b&gt;Settings&lt;/b&gt;" style="text;html=1;strokeColor=none;fillColor=none;align=center;verticalAlign=middle;whiteSpace=wrap;rounded=0;fontFamily=Times New Roman;" parent="AVty2RS2mHh-OYDV_8O--71" vertex="1">
          <mxGeometry x="302" y="150" width="60" height="30" as="geometry" />
        </mxCell>
        <mxCell id="AVty2RS2mHh-OYDV_8O--50" value="&lt;b&gt;&lt;font style=&quot;font-size: 14px;&quot;&gt;Volume Mount&lt;/font&gt;&lt;/b&gt;" style="text;html=1;strokeColor=none;fillColor=none;align=center;verticalAlign=middle;whiteSpace=wrap;rounded=0;fontFamily=Times New Roman;" parent="AVty2RS2mHh-OYDV_8O--71" vertex="1">
          <mxGeometry x="93" y="239" width="99" height="30" as="geometry" />
        </mxCell>
        <mxCell id="AVty2RS2mHh-OYDV_8O--55" value="" style="shape=note;whiteSpace=wrap;html=1;backgroundOutline=1;darkOpacity=0.05;fillColor=#d5e8d4;strokeColor=#82b366;aspect=fixed;fontFamily=Times New Roman;" parent="AVty2RS2mHh-OYDV_8O--71" vertex="1">
          <mxGeometry x="497" y="192.25" width="60" height="75" as="geometry" />
        </mxCell>
        <mxCell id="AVty2RS2mHh-OYDV_8O--56" value="&lt;b&gt;Code&lt;/b&gt;" style="text;html=1;strokeColor=none;fillColor=none;align=center;verticalAlign=middle;whiteSpace=wrap;rounded=0;fontFamily=Times New Roman;" parent="AVty2RS2mHh-OYDV_8O--71" vertex="1">
          <mxGeometry x="480.13" y="265" width="91" height="30" as="geometry" />
        </mxCell>
        <mxCell id="AVty2RS2mHh-OYDV_8O--67" value="" style="endArrow=classic;html=1;rounded=0;exitX=1;exitY=0.5;exitDx=0;exitDy=0;exitPerimeter=0;fontFamily=Times New Roman;" parent="AVty2RS2mHh-OYDV_8O--71" source="AVty2RS2mHh-OYDV_8O--45" edge="1">
          <mxGeometry width="50" height="50" relative="1" as="geometry">
            <mxPoint x="454" y="282" as="sourcePoint" />
            <mxPoint x="495" y="235" as="targetPoint" />
          </mxGeometry>
        </mxCell>
        <mxCell id="AVty2RS2mHh-OYDV_8O--63" value="" style="curved=1;endArrow=classic;html=1;rounded=0;fontFamily=Times New Roman;" parent="1" source="AVty2RS2mHh-OYDV_8O--55" target="AVty2RS2mHh-OYDV_8O--61" edge="1">
          <mxGeometry width="50" height="50" relative="1" as="geometry">
            <mxPoint x="342" y="561" as="sourcePoint" />
            <mxPoint x="392" y="511" as="targetPoint" />
            <Array as="points">
              <mxPoint x="392" y="561" />
            </Array>
          </mxGeometry>
        </mxCell>
        <mxCell id="AVty2RS2mHh-OYDV_8O--72" value="&lt;b&gt;&lt;font style=&quot;font-size: 14px;&quot;&gt;GitHub&lt;/font&gt;&lt;/b&gt;" style="text;html=1;strokeColor=none;fillColor=none;align=center;verticalAlign=middle;whiteSpace=wrap;rounded=0;fontFamily=Times New Roman;" parent="1" vertex="1">
          <mxGeometry x="468.5" y="461" width="73" height="30" as="geometry" />
        </mxCell>
      </root>
    </mxGraphModel>
  </diagram>
  <diagram id="YyEkn1tNChCvSponO0j4" name="VScode Workflow">
    <mxGraphModel dx="946" dy="658" grid="0" gridSize="10" guides="1" tooltips="1" connect="1" arrows="1" fold="1" page="0" pageScale="1" pageWidth="850" pageHeight="1100" math="0" shadow="0">
      <root>
        <mxCell id="0" />
        <mxCell id="1" parent="0" />
        <mxCell id="T3kCYnvl8Ig83lV9UvoX-1" value="" style="shape=step;perimeter=stepPerimeter;whiteSpace=wrap;html=1;fixedSize=1;fillStyle=hatch;fillColor=#6666FF;strokeColor=#000066;gradientColor=none;strokeWidth=2;sketch=1;curveFitting=1;jiggle=2;shadow=1;fontFamily=Times New Roman;" parent="1" vertex="1">
          <mxGeometry x="174" y="316" width="120" height="80" as="geometry" />
        </mxCell>
        <mxCell id="T3kCYnvl8Ig83lV9UvoX-2" value="&lt;p style=&quot;font-size: 11px;&quot;&gt;&lt;font style=&quot;font-size: 11px;&quot;&gt;Set the Dockerfile file&lt;/font&gt;&lt;/p&gt;" style="text;html=1;strokeColor=none;fillColor=none;align=center;verticalAlign=middle;whiteSpace=wrap;rounded=0;fontStyle=1;fontSize=11;fontColor=#333333;fontFamily=Times New Roman;" parent="1" vertex="1">
          <mxGeometry x="192" y="270" width="79" height="30" as="geometry" />
        </mxCell>
        <mxCell id="T3kCYnvl8Ig83lV9UvoX-3" value="" style="shape=step;perimeter=stepPerimeter;whiteSpace=wrap;html=1;fixedSize=1;fillStyle=hatch;fillColor=#6666FF;strokeColor=#000066;gradientColor=none;strokeWidth=2;sketch=1;curveFitting=1;jiggle=2;shadow=1;fontFamily=Times New Roman;" parent="1" vertex="1">
          <mxGeometry x="298" y="316" width="120" height="80" as="geometry" />
        </mxCell>
        <mxCell id="T3kCYnvl8Ig83lV9UvoX-4" value="&lt;p style=&quot;font-size: 11px;&quot;&gt;&lt;font style=&quot;font-size: 11px;&quot;&gt;Set the &lt;br&gt;devcontainer file&lt;/font&gt;&lt;/p&gt;" style="text;html=1;strokeColor=none;fillColor=none;align=center;verticalAlign=middle;whiteSpace=wrap;rounded=0;fontStyle=1;fontSize=11;fontColor=#333333;fontFamily=Times New Roman;" parent="1" vertex="1">
          <mxGeometry x="304" y="270" width="99" height="30" as="geometry" />
        </mxCell>
        <mxCell id="T3kCYnvl8Ig83lV9UvoX-5" value="" style="shape=step;perimeter=stepPerimeter;whiteSpace=wrap;html=1;fixedSize=1;fillStyle=hatch;fillColor=#6666FF;strokeColor=#000066;gradientColor=none;strokeWidth=2;sketch=1;curveFitting=1;jiggle=2;shadow=1;fontFamily=Times New Roman;" parent="1" vertex="1">
          <mxGeometry x="419" y="316" width="120" height="80" as="geometry" />
        </mxCell>
        <mxCell id="T3kCYnvl8Ig83lV9UvoX-6" value="&lt;p style=&quot;font-size: 11px;&quot;&gt;&lt;font style=&quot;font-size: 11px;&quot;&gt;Develop inside a containerized environment&lt;/font&gt;&lt;/p&gt;" style="text;html=1;strokeColor=none;fillColor=none;align=center;verticalAlign=middle;whiteSpace=wrap;rounded=0;fontStyle=1;fontSize=11;fontColor=#333333;fontFamily=Times New Roman;" parent="1" vertex="1">
          <mxGeometry x="413" y="270" width="132" height="30" as="geometry" />
        </mxCell>
        <mxCell id="T3kCYnvl8Ig83lV9UvoX-7" value="" style="shape=step;perimeter=stepPerimeter;whiteSpace=wrap;html=1;fixedSize=1;fillStyle=hatch;fillColor=#6666FF;strokeColor=#000066;gradientColor=none;strokeWidth=2;sketch=1;curveFitting=1;jiggle=2;shadow=1;fontFamily=Times New Roman;" parent="1" vertex="1">
          <mxGeometry x="548" y="316" width="120" height="80" as="geometry" />
        </mxCell>
        <mxCell id="T3kCYnvl8Ig83lV9UvoX-8" value="&lt;p style=&quot;font-size: 11px;&quot;&gt;&lt;font style=&quot;font-size: 11px;&quot;&gt;Test the code and environment&lt;/font&gt;&lt;/p&gt;" style="text;html=1;strokeColor=none;fillColor=none;align=center;verticalAlign=middle;whiteSpace=wrap;rounded=0;fontStyle=1;fontSize=11;fontColor=#333333;fontFamily=Times New Roman;" parent="1" vertex="1">
          <mxGeometry x="560" y="270" width="104" height="30" as="geometry" />
        </mxCell>
        <mxCell id="T3kCYnvl8Ig83lV9UvoX-9" value="" style="shape=step;perimeter=stepPerimeter;whiteSpace=wrap;html=1;fixedSize=1;fillStyle=hatch;fillColor=#6666FF;strokeColor=#000066;gradientColor=none;strokeWidth=2;sketch=1;curveFitting=1;jiggle=2;shadow=1;fontFamily=Times New Roman;" parent="1" vertex="1">
          <mxGeometry x="684" y="314" width="120" height="80" as="geometry" />
        </mxCell>
        <mxCell id="T3kCYnvl8Ig83lV9UvoX-10" value="&lt;p style=&quot;font-size: 11px;&quot;&gt;&lt;font style=&quot;font-size: 11px;&quot;&gt;Deploy to production&lt;/font&gt;&lt;/p&gt;" style="text;html=1;strokeColor=none;fillColor=none;align=center;verticalAlign=middle;whiteSpace=wrap;rounded=0;fontStyle=1;fontSize=11;fontColor=#333333;fontFamily=Times New Roman;" parent="1" vertex="1">
          <mxGeometry x="696" y="270" width="96" height="30" as="geometry" />
        </mxCell>
        <mxCell id="T3kCYnvl8Ig83lV9UvoX-11" value="" style="shape=step;perimeter=stepPerimeter;whiteSpace=wrap;html=1;fixedSize=1;fillStyle=hatch;fillColor=#6666FF;strokeColor=#000066;gradientColor=none;strokeWidth=2;sketch=1;curveFitting=1;jiggle=2;shadow=1;fontFamily=Times New Roman;" parent="1" vertex="1">
          <mxGeometry x="46" y="316" width="120" height="80" as="geometry" />
        </mxCell>
        <mxCell id="T3kCYnvl8Ig83lV9UvoX-12" value="&lt;p style=&quot;font-size: 11px;&quot;&gt;&lt;font style=&quot;font-size: 11px;&quot;&gt;Install dependencies&lt;/font&gt;&lt;/p&gt;" style="text;html=1;strokeColor=none;fillColor=none;align=center;verticalAlign=middle;whiteSpace=wrap;rounded=0;fontStyle=1;fontSize=11;fontColor=#333333;fontFamily=Times New Roman;" parent="1" vertex="1">
          <mxGeometry x="64" y="270" width="79" height="30" as="geometry" />
        </mxCell>
        <mxCell id="T3kCYnvl8Ig83lV9UvoX-13" value="" style="shape=image;verticalLabelPosition=bottom;labelBackgroundColor=default;verticalAlign=top;aspect=fixed;imageAspect=0;image=data:image/svg+xml,PHN2ZyB4bWxucz0iaHR0cDovL3d3dy53My5vcmcvMjAwMC9zdmciIGZpbGw9Im5vbmUiIHZpZXdCb3g9IjAgMCAxMDAgMTAwIj4mI3hhOzxtYXNrIGhlaWdodD0iMTAwIiB3aWR0aD0iMTAwIiB5PSIwIiB4PSIwIiBtYXNrVW5pdHM9InVzZXJTcGFjZU9uVXNlIiBpZD0ibWFzazAiPiYjeGE7PHBhdGggZmlsbD0id2hpdGUiIGQ9Ik03MC45MTE5IDk5LjMxNzFDNzIuNDg2OSA5OS45MzA3IDc0LjI4MjggOTkuODkxNCA3NS44NzI1IDk5LjEyNjRMOTYuNDYwOCA4OS4yMTk3Qzk4LjYyNDIgODguMTc4NyAxMDAgODUuOTg5MiAxMDAgODMuNTg3MlYxNi40MTMzQzEwMCAxNC4wMTEzIDk4LjYyNDMgMTEuODIxOCA5Ni40NjA5IDEwLjc4MDhMNzUuODcyNSAwLjg3Mzc1NkM3My43ODYyIC0wLjEzMDEyOSA3MS4zNDQ2IDAuMTE1NzYgNjkuNTEzNSAxLjQ0Njk1QzY5LjI1MiAxLjYzNzExIDY5LjAwMjggMS44NDk0MyA2OC43NjkgMi4wODM0MUwyOS4zNTUxIDM4LjA0MTVMMTIuMTg3MiAyNS4wMDk2QzEwLjU4OSAyMy43OTY1IDguMzUzNjMgMjMuODk1OSA2Ljg2OTMzIDI1LjI0NjFMMS4zNjMwMyAzMC4yNTQ5Qy0wLjQ1MjU1MiAzMS45MDY0IC0wLjQ1NDYzMyAzNC43NjI3IDEuMzU4NTMgMzYuNDE3TDE2LjI0NzEgNTAuMDAwMUwxLjM1ODUzIDYzLjU4MzJDLTAuNDU0NjMzIDY1LjIzNzQgLTAuNDUyNTUyIDY4LjA5MzggMS4zNjMwMyA2OS43NDUzTDYuODY5MzMgNzQuNzU0MUM4LjM1MzYzIDc2LjEwNDMgMTAuNTg5IDc2LjIwMzcgMTIuMTg3MiA3NC45OTA1TDI5LjM1NTEgNjEuOTU4N0w2OC43NjkgOTcuOTE2N0M2OS4zOTI1IDk4LjU0MDYgNzAuMTI0NiA5OS4wMTA0IDcwLjkxMTkgOTkuMzE3MVpNNzUuMDE1MiAyNy4yOTg5TDQ1LjEwOTEgNTAuMDAwMUw3NS4wMTUyIDcyLjcwMTJWMjcuMjk4OVoiIGNsaXAtcnVsZT0iZXZlbm9kZCIgZmlsbC1ydWxlPSJldmVub2RkIi8+JiN4YTs8L21hc2s+JiN4YTs8ZyBtYXNrPSJ1cmwoI21hc2swKSI+JiN4YTs8cGF0aCBmaWxsPSIjMDA2NUE5IiBkPSJNOTYuNDYxNCAxMC43OTYyTDc1Ljg1NjkgMC44NzU1NDJDNzMuNDcxOSAtMC4yNzI3NzMgNzAuNjIxNyAwLjIxMTYxMSA2OC43NSAyLjA4MzMzTDEuMjk4NTggNjMuNTgzMkMtMC41MTU2OTMgNjUuMjM3MyAtMC41MTM2MDcgNjguMDkzNyAxLjMwMzA4IDY5Ljc0NTJMNi44MTI3MiA3NC43NTRDOC4yOTc5MyA3Ni4xMDQyIDEwLjUzNDcgNzYuMjAzNiAxMi4xMzM4IDc0Ljk5MDVMOTMuMzYwOSAxMy4zNjk5Qzk2LjA4NiAxMS4zMDI2IDEwMCAxMy4yNDYyIDEwMCAxNi42NjY3VjE2LjQyNzVDMTAwIDE0LjAyNjUgOTguNjI0NiAxMS44Mzc4IDk2LjQ2MTQgMTAuNzk2MloiLz4mI3hhOzxnIGZpbHRlcj0idXJsKCNmaWx0ZXIwX2QpIj4mI3hhOzxwYXRoIGZpbGw9IiMwMDdBQ0MiIGQ9Ik05Ni40NjE0IDg5LjIwMzhMNzUuODU2OSA5OS4xMjQ1QzczLjQ3MTkgMTAwLjI3MyA3MC42MjE3IDk5Ljc4ODQgNjguNzUgOTcuOTE2N0wxLjI5ODU4IDM2LjQxNjlDLTAuNTE1NjkzIDM0Ljc2MjcgLTAuNTEzNjA3IDMxLjkwNjMgMS4zMDMwOCAzMC4yNTQ4TDYuODEyNzIgMjUuMjQ2QzguMjk3OTMgMjMuODk1OCAxMC41MzQ3IDIzLjc5NjQgMTIuMTMzOCAyNS4wMDk1TDkzLjM2MDkgODYuNjMwMUM5Ni4wODYgODguNjk3NCAxMDAgODYuNzUzOCAxMDAgODMuMzMzNFY4My41NzI2QzEwMCA4NS45NzM1IDk4LjYyNDYgODguMTYyMiA5Ni40NjE0IDg5LjIwMzhaIi8+JiN4YTs8L2c+JiN4YTs8ZyBmaWx0ZXI9InVybCgjZmlsdGVyMV9kKSI+JiN4YTs8cGF0aCBmaWxsPSIjMUY5Q0YwIiBkPSJNNzUuODU3OCA5OS4xMjYzQzczLjQ3MjEgMTAwLjI3NCA3MC42MjE5IDk5Ljc4ODUgNjguNzUgOTcuOTE2NkM3MS4wNTY0IDEwMC4yMjMgNzUgOTguNTg5NSA3NSA5NS4zMjc4VjQuNjcyMTNDNzUgMS40MTAzOSA3MS4wNTY0IC0wLjIyMzEwNiA2OC43NSAyLjA4MzI5QzcwLjYyMTkgMC4yMTE0MDIgNzMuNDcyMSAtMC4yNzM2NjYgNzUuODU3OCAwLjg3MzYzM0w5Ni40NTg3IDEwLjc4MDdDOTguNjIzNCAxMS44MjE3IDEwMCAxNC4wMTEyIDEwMCAxNi40MTMyVjgzLjU4NzFDMTAwIDg1Ljk4OTEgOTguNjIzNCA4OC4xNzg2IDk2LjQ1ODYgODkuMjE5Nkw3NS44NTc4IDk5LjEyNjNaIi8+JiN4YTs8L2c+JiN4YTs8ZyBvcGFjaXR5PSIwLjI1IiBzdHlsZT0ibWl4LWJsZW5kLW1vZGU6b3ZlcmxheSI+JiN4YTs8cGF0aCBmaWxsPSJ1cmwoI3BhaW50MF9saW5lYXIpIiBkPSJNNzAuODUxMSA5OS4zMTcxQzcyLjQyNjEgOTkuOTMwNiA3NC4yMjIxIDk5Ljg5MTMgNzUuODExNyA5OS4xMjY0TDk2LjQgODkuMjE5N0M5OC41NjM0IDg4LjE3ODcgOTkuOTM5MiA4NS45ODkyIDk5LjkzOTIgODMuNTg3MVYxNi40MTMzQzk5LjkzOTIgMTQuMDExMiA5OC41NjM1IDExLjgyMTcgOTYuNDAwMSAxMC43ODA3TDc1LjgxMTcgMC44NzM2OTVDNzMuNzI1NSAtMC4xMzAxOSA3MS4yODM4IDAuMTE1Njk5IDY5LjQ1MjcgMS40NDY4OEM2OS4xOTEyIDEuNjM3MDUgNjguOTQyIDEuODQ5MzcgNjguNzA4MiAyLjA4MzM1TDI5LjI5NDMgMzguMDQxNEwxMi4xMjY0IDI1LjAwOTZDMTAuNTI4MyAyMy43OTY0IDguMjkyODUgMjMuODk1OSA2LjgwODU1IDI1LjI0NkwxLjMwMjI1IDMwLjI1NDhDLTAuNTEzMzM0IDMxLjkwNjQgLTAuNTE1NDE1IDM0Ljc2MjcgMS4yOTc3NSAzNi40MTY5TDE2LjE4NjMgNTBMMS4yOTc3NSA2My41ODMyQy0wLjUxNTQxNSA2NS4yMzc0IC0wLjUxMzMzNCA2OC4wOTM3IDEuMzAyMjUgNjkuNzQ1Mkw2LjgwODU1IDc0Ljc1NEM4LjI5Mjg1IDc2LjEwNDIgMTAuNTI4MyA3Ni4yMDM2IDEyLjEyNjQgNzQuOTkwNUwyOS4yOTQzIDYxLjk1ODZMNjguNzA4MiA5Ny45MTY3QzY5LjMzMTcgOTguNTQwNSA3MC4wNjM4IDk5LjAxMDQgNzAuODUxMSA5OS4zMTcxWk03NC45NTQ0IDI3LjI5ODlMNDUuMDQ4MyA1MEw3NC45NTQ0IDcyLjcwMTJWMjcuMjk4OVoiIGNsaXAtcnVsZT0iZXZlbm9kZCIgZmlsbC1ydWxlPSJldmVub2RkIi8+JiN4YTs8L2c+JiN4YTs8L2c+JiN4YTs8ZGVmcz4mI3hhOzxmaWx0ZXIgY29sb3ItaW50ZXJwb2xhdGlvbi1maWx0ZXJzPSJzUkdCIiBmaWx0ZXJVbml0cz0idXNlclNwYWNlT25Vc2UiIGhlaWdodD0iOTIuMjQ1NiIgd2lkdGg9IjExNi43MjciIHk9IjE1LjgyOTEiIHg9Ii04LjM5NDExIiBpZD0iZmlsdGVyMF9kIj4mI3hhOzxmZUZsb29kIHJlc3VsdD0iQmFja2dyb3VuZEltYWdlRml4IiBmbG9vZC1vcGFjaXR5PSIwIi8+JiN4YTs8ZmVDb2xvck1hdHJpeCB2YWx1ZXM9IjAgMCAwIDAgMCAwIDAgMCAwIDAgMCAwIDAgMCAwIDAgMCAwIDEyNyAwIiB0eXBlPSJtYXRyaXgiIGluPSJTb3VyY2VBbHBoYSIvPiYjeGE7PGZlT2Zmc2V0Lz4mI3hhOzxmZUdhdXNzaWFuQmx1ciBzdGREZXZpYXRpb249IjQuMTY2NjciLz4mI3hhOzxmZUNvbG9yTWF0cml4IHZhbHVlcz0iMCAwIDAgMCAwIDAgMCAwIDAgMCAwIDAgMCAwIDAgMCAwIDAgMC4yNSAwIiB0eXBlPSJtYXRyaXgiLz4mI3hhOzxmZUJsZW5kIHJlc3VsdD0iZWZmZWN0MV9kcm9wU2hhZG93IiBpbjI9IkJhY2tncm91bmRJbWFnZUZpeCIgbW9kZT0ib3ZlcmxheSIvPiYjeGE7PGZlQmxlbmQgcmVzdWx0PSJzaGFwZSIgaW4yPSJlZmZlY3QxX2Ryb3BTaGFkb3ciIGluPSJTb3VyY2VHcmFwaGljIiBtb2RlPSJub3JtYWwiLz4mI3hhOzwvZmlsdGVyPiYjeGE7PGZpbHRlciBjb2xvci1pbnRlcnBvbGF0aW9uLWZpbHRlcnM9InNSR0IiIGZpbHRlclVuaXRzPSJ1c2VyU3BhY2VPblVzZSIgaGVpZ2h0PSIxMTYuMTUxIiB3aWR0aD0iNDcuOTE2NyIgeT0iLTguMDc1NTgiIHg9IjYwLjQxNjciIGlkPSJmaWx0ZXIxX2QiPiYjeGE7PGZlRmxvb2QgcmVzdWx0PSJCYWNrZ3JvdW5kSW1hZ2VGaXgiIGZsb29kLW9wYWNpdHk9IjAiLz4mI3hhOzxmZUNvbG9yTWF0cml4IHZhbHVlcz0iMCAwIDAgMCAwIDAgMCAwIDAgMCAwIDAgMCAwIDAgMCAwIDAgMTI3IDAiIHR5cGU9Im1hdHJpeCIgaW49IlNvdXJjZUFscGhhIi8+JiN4YTs8ZmVPZmZzZXQvPiYjeGE7PGZlR2F1c3NpYW5CbHVyIHN0ZERldmlhdGlvbj0iNC4xNjY2NyIvPiYjeGE7PGZlQ29sb3JNYXRyaXggdmFsdWVzPSIwIDAgMCAwIDAgMCAwIDAgMCAwIDAgMCAwIDAgMCAwIDAgMCAwLjI1IDAiIHR5cGU9Im1hdHJpeCIvPiYjeGE7PGZlQmxlbmQgcmVzdWx0PSJlZmZlY3QxX2Ryb3BTaGFkb3ciIGluMj0iQmFja2dyb3VuZEltYWdlRml4IiBtb2RlPSJvdmVybGF5Ii8+JiN4YTs8ZmVCbGVuZCByZXN1bHQ9InNoYXBlIiBpbjI9ImVmZmVjdDFfZHJvcFNoYWRvdyIgaW49IlNvdXJjZUdyYXBoaWMiIG1vZGU9Im5vcm1hbCIvPiYjeGE7PC9maWx0ZXI+JiN4YTs8bGluZWFyR3JhZGllbnQgZ3JhZGllbnRVbml0cz0idXNlclNwYWNlT25Vc2UiIHkyPSI5OS43NDIzIiB4Mj0iNDkuOTM5MiIgeTE9IjAuMjU3ODEyIiB4MT0iNDkuOTM5MiIgaWQ9InBhaW50MF9saW5lYXIiPiYjeGE7PHN0b3Agc3RvcC1jb2xvcj0id2hpdGUiLz4mI3hhOzxzdG9wIHN0b3Atb3BhY2l0eT0iMCIgc3RvcC1jb2xvcj0id2hpdGUiIG9mZnNldD0iMSIvPiYjeGE7PC9saW5lYXJHcmFkaWVudD4mI3hhOzwvZGVmcz4mI3hhOzwvc3ZnPg==;fontFamily=Times New Roman;" parent="1" vertex="1">
          <mxGeometry x="76" y="445.9" width="60" height="60" as="geometry" />
        </mxCell>
        <mxCell id="T3kCYnvl8Ig83lV9UvoX-14" value="" style="shape=image;verticalLabelPosition=bottom;labelBackgroundColor=default;verticalAlign=top;aspect=fixed;imageAspect=0;image=data:image/jpeg,iVBORw0KGgoAAAANSUhEUgAAAMgAAADICAYAAACtWK6eAAAAGXRFWHRTb2Z0d2FyZQBBZG9iZSBJbWFnZVJlYWR5ccllPAAAA4ZpVFh0WE1MOmNvbS5hZG9iZS54bXAAAAAAADw/eHBhY2tldCBiZWdpbj0i77u/IiBpZD0iVzVNME1wQ2VoaUh6cmVTek5UY3prYzlkIj8+IDx4OnhtcG1ldGEgeG1sbnM6eD0iYWRvYmU6bnM6bWV0YS8iIHg6eG1wdGs9IkFkb2JlIFhNUCBDb3JlIDUuNi1jMDE0IDc5LjE1Njc5NywgMjAxNC8wOC8yMC0wOTo1MzowMiAgICAgICAgIj4gPHJkZjpSREYgeG1sbnM6cmRmPSJodHRwOi8vd3d3LnczLm9yZy8xOTk5LzAyLzIyLXJkZi1zeW50YXgtbnMjIj4gPHJkZjpEZXNjcmlwdGlvbiByZGY6YWJvdXQ9IiIgeG1sbnM6eG1wTU09Imh0dHA6Ly9ucy5hZG9iZS5jb20veGFwLzEuMC9tbS8iIHhtbG5zOnN0UmVmPSJodHRwOi8vbnMuYWRvYmUuY29tL3hhcC8xLjAvc1R5cGUvUmVzb3VyY2VSZWYjIiB4bWxuczp4bXA9Imh0dHA6Ly9ucy5hZG9iZS5jb20veGFwLzEuMC8iIHhtcE1NOk9yaWdpbmFsRG9jdW1lbnRJRD0ieG1wLmRpZDpmMzc2M2FjNC0xYjg0LTQ0YzAtYTg3Zi1kMzNjZDY4OGE3YjMiIHhtcE1NOkRvY3VtZW50SUQ9InhtcC5kaWQ6NkE3NzBEOTBFQjdDMTFFNEEwMjZCNTBBNDk5MkYxMDciIHhtcE1NOkluc3RhbmNlSUQ9InhtcC5paWQ6M0JENTI2M0VFQjdDMTFFNEEwMjZCNTBBNDk5MkYxMDciIHhtcDpDcmVhdG9yVG9vbD0iQWRvYmUgUGhvdG9zaG9wIENDIDIwMTQgKE1hY2ludG9zaCkiPiA8eG1wTU06RGVyaXZlZEZyb20gc3RSZWY6aW5zdGFuY2VJRD0ieG1wLmlpZDozMDNlZGEzOC1mMWUyLTQ3ODktYmQ0Zi03MTdiNjVmZWI3NGEiIHN0UmVmOmRvY3VtZW50SUQ9ImFkb2JlOmRvY2lkOnBob3Rvc2hvcDpkMTVjY2QzMS0zM2UzLTExNzgtYjU4Mi1lOWJkOGJlNTRlMzQiLz4gPC9yZGY6RGVzY3JpcHRpb24+IDwvcmRmOlJERj4gPC94OnhtcG1ldGE+IDw/eHBhY2tldCBlbmQ9InIiPz5MMMQcAAAP3ElEQVR42uydCbRVZRmGPxKnErOVmJbDBRWH1NRS0SLBqZxyyATFHNEgyXAeSotwRNFyAsFZc8ABp9TE2ZxxDI3lcEUFQQ1HUETk9r7934nr7cLd+5yz99nD+6z1Ll2se+7dZ+//3fv/v+/7v92ppaXFhBDt8xWdAiFkECFkECFkECFkECFkECFkECFkECFkECFkECGEDCKEDCKEDCKEDCKEDCKEDCJEruhc6y/oPnKmzqJoGM2DltITpCQsCm0PLatToSmWmE9X6PfQa9Bt0JvQxdCGOjUySJnZ0I1AQwyDvuP/vgS0H/QU9DDUz58uIo9rEBH7fO8MHQL1ivDzm7mmQWOgUf7/Qk+QQvFN6BjoVei6iOZozQrQCdDr0NVuGiGD5J71oNE+jToFWrkOC/l+PvV6yqdiS+g0yyB5YhGfRt0LPQcdCC2Z8BqmHuYTMkiiLAMdAb0MjYP6pPR3l/XpWzN0Q4p/VwYRkVgbGglNgU6HujXwybWrP7n+Cf0K+poujwzSqPO2A3QXNBEamLHBuI6FiBdNOwJaVZdMBkmDpaEh0EvQrdDWUKeMT/sO8+NlEvInGT9eGSSn9IDO8TvyWTm8I/M6s4zlTmgS9Bs3u5BBqoZ32p9Ct/ugGgx1KYjZz3aznwutqUstg8SBJjjYTXEHtG1BpyWV7/mir6V+5gt9IYO0C6dNZ1rIK5zrd9qyPCm5lroZegU6ykLmX8gg/x0cW0G3+EL2UOjrJT4fTdBpfpO4EFpfBiknDMkyT8AQ7XhoR90svgQz/wdAz0APQrtbSSuKy1bN2+Tzbl78b8gHkejlmmoht8Kq4rf1BCkWvaEbfY59hMxRFdyvwn0rrCi+AtpYBsn/NGGAhYLB+6BdTFGaerA4tBf0uGsv/zcZJCesZKG69Q2fDqynMZ0YG/vT5HX78q5IGSSjc+WxFqpaWd2q5gfp8S2bv6/+Wou/IUwGSfBxv6+FzUOMtvzCtI24kTDStbtfC0bADrBk9sLIIB3wbX+kcxp1iakDSBZhDoW5FOZUmFtpkkGSpyd0FTTZH+nLaRxmHmblmZ1nBJEbybJeAZ07gywG9YeegB6F9jC1wckjla3IrPti/RfzUV1kkOpZ3uZ38rgS2khjrDCwgpj1bqwoZmVxDxkkOj+ALvdp1FA3iigm3JPCvSmsnOZele2zNiazcjCcMvWFHoGehH5pBU4+if+DaxLuduSuRxaNchfkMjJI6Ev7Owvx82ugTTVWSg+3HYzw6Rdrv9Ypo0EYAmRPJ4ZpT7QCZmBFzVQqrtmhhZ1adrUGlAqlaRB+ud2gBywkkdQVUESFvb7Y8yv1Kok0DMI4+NH+5diX9se63qJK2D2SdXapvSKiU0tLS02/YCFvmOLckV3MmcP4qq6tSAgGdthx5obmQUt9nnWD8InEzf8M3W2haydSZJov6kfDKNOzZhCG5FiYxuxoN10r0UDmWNgcdw6M8khDDQJzrIj/HAftbeoDK7LH09DxMMrtjVqkv2WhBSfLm1t0PUTG1iZsJj4+K2sQ1tOw++A+praWojF8aqHa+3w8NZ7O4iKddPEpFxfqa+iaiRSYbOEVFBfBGDPq+YuTDPOyvmYbN8q2pr5Tor5w4DLDzqrgW2GML5L4I50T/gJ/d7G+hhGu/a3cnQtF7XxsodqbxpgEYyT6x6q+q+PJsRgUtZCMb3dlhSajXr+2sGFGiDiwyvcQH0Nc606KOE5ryrbX8gThZnwWkt0PnQfdBM3t4DMzfa7IhM6WPv3aQdMvsQDmQX/z8XWXRYyUwhTcKtHPjbS61VA6X48pVm/XFB/87EX1boTp192ubv5UUTtQUeF9Lrih8y1shYg6q+HTZZCFNwt39X/+sCFTrHbgwZ1koZCMc8SorSl5Ao600PCN7/qbqPFRWp6HDvKxdGRUc8AYm0PX+c8f18ocNVN1FAsHxMX2Bx38GBstsJCMB/9ZjF/fx6dfeqlL8WGB4ThfdD8U43MsgO3v06iFdc/8EAv5qqdYSc/9W7emPNHvDFFgL11ukFkNGg7N0DgqHG/7mOAUu28Mc/DnT/cp/WhLuLVsWotjtqasbK3l02TziJ+bbGEvyUo+r3xe4yr3sOE1ew6sAh1v4bUKHc507MtvwUqtQ3/a0SMGBbir8H4LXdc534xS5MgSAnbp+54HBK63jiNmIjtwen2ZhdZNbP53ZcQpd3vvUUx1zDYyvMpH4wUW/2X33LLLHrzdoVOhf2v8ZZYpPnPgDGBfaELEz2XmTbxZyD+097L7KMfFaNmxfvKZoX9a4zEzcA35c18vnGwdh/0rYzFz73LPUoKu7QkaYtHKUmZbaGD9fQv73cd6ZESkyyyfEaxrYTfpjRGnwe3dIDtlaVBmEWY/z/JHLJNFa0f83EMeEenmEZJ3NG4Th4vmwy1EKOPksVimNKqKKbYM0gpWojEz+oLF64001SMkK8ec+4posATkDmg7C1sa+H75DyJ8bhG/hryWLFNi36tM70TNUw1UNb2RWkdP2LXxak2/aoJlG3/2RfN2bpJ5ET63rF+zZr+GffLyhfNYJNi6N9KlFppdR+ExaE8L8fc/QdM13iMz0Z/knEYdCr0c8XOspL3Yr9Upfu1yRZ6raNmVkdt72ez6UR/8i0X4HNvD/MGNwje0PqHx3y5f+EJ7C194c70wM8Ln2IiclbQPW3g1Xq47aBalzJzJp79avLetzvHPbOKKmrwqOswrMb/EPBNDtfdF/Fzr97lwKrtZEU5G0fZh8CJV87ZVPkVY/tDkT5dpJTTGBA9ocBrF/NIbVdyc+D6XFYp0Uoq6Uant21YHWLT2p9N9fcLp1x4+dSsyfIpe5QGMjTygEeUpuniV01sZJIPwVQvcxMV4O6tAo3R+ZKTrGp8mxBk4eWGqT4d4I+jvAYwotN7zEydAIoPkAFZ/sgqUiS1WhUbN2FamHiv59G1qjs9B60TqMIseyWNY9npLYEOSDJLN78yq0Lg1P+/63TPu/oVGw0pobl/dwOKV4rR9gQ0X7J3LOFjKTNuq0bUiTr/G+mBjnJ91YLMz+N0qW5lX9DXYsxE/l6lXoMkg2aCy74AlLWwkwfd5RylpYQBgf59+xYn8JAX3T7MX7U4WdmOeAb0X4XOZfYmmDJItOFDYjmicr1WOsvCGrI6o5A549+VelQdSPu6P/AnIok52s7zFopWAZP41zDJIdmmCTvOpRtTXfc31xWxvC7sfx/gaICk4sAf7NKoy0KOwphtqik8xe+hyyyDVwjIJlkuwbILlEyyjWDTC5yotbDj94r76yXU6nnn+hNjGnxhsqvZxjOAEt66+6FPKLrq8Mkg9YV6EZRRxssbsyDLc1wS7WIgIVUPl96zqa4zxFq3TYNvw9taWoQ1JMkgxoTHi1h2x+O8mX+Ow+I+772ZF+ByjTwOqeBJxz/9oi5cgFTJIXWlduco98WyfumSEz7F8fKCvHXh3b9tBkKFk1pIxlMz8xUUR1zJtu8awVZLeMFwDSXdWLCMzfECPjHG3541qB39SMHTM/EOcgsmubobKng0xn5o6K8ogycEpFd/fyD31d1sy73BkLdRgf4otrlNef4NoipUcTDQy4VjvqBGrZlk9yypaVtPuI3NoDZJ32uYdqmmExsDAUA8McP9FT51WGaRoVDLXcVpptg4tM3K2vE5jenTWKWgIlWbMFCNYLAj8pJ2fY65jK50uPUHKDPMTC8rMqwREBhFCBhFCBhFCBhFCBhFCyCBCyCBCyCBCyCBCyCBCyCBCyCBCyCBCyCBCyCBCCBlECBlECBlECBlECBlECBlECBlECBlECBlECCGDCCGDCCGDCCGDCCGDCCGDCCGDCCGDCCGDCCGDCCFkECFkECFkECFkECFkECFkECFkECFkECFkECFkECGEDCKEDCJEhgwyG7oVatFpFBllLjSull/QqaWltvHdfeTMdfCfY6C+UGddk6pYBvqwnX9/HVpZpyc2n0GXQsObBy3V3Ogp1kRoL6gHdL4/WYRoBB9DI6BuMMbAWs1hdb7jvwYdDA2DDoUGQkvrmokUmAGdDZ0LU7xXz19cjynWwqYNNMwh0HK6hppiJcBU6EzoAhhjVhJ/IMk1wwfQSdBZ0P7QkbrYok68Ap0GXQ5jzEnyD6UR5v2Ejz5oNWg/6F+6vqJKnoP2gNaELoTmJP0H08yDfO6RBUa9doWe1PUWEXkY2h7aALoG+iKtP9yIROE8C7HpjaGtoHt1/cUCuBPaHPoRdLs1IOfW6Ez6PdCWUE/oJjePKDccA9dBG0LbQg828mCyUmryOLQLtC4XXj4dE+WC64lLoLWg3aFnsnBQWavFehHaB1odOg/6VOOm8DCI8xcLQRxGO1/K0sFltViR8f/BUBN0irWfIxD5hmmAE/0aD4HezOJBZr2a9x3oOAv5k2OhtzWucg+v4dHQKtDx0LtZPti8lLt/BJ3qdxs+WSZrnOUOXrOD/RoO92uaefK2H2S2r024RtkbekHjLvO84NeK1yx3xax53TDFOv8rLES9doYe0zjMHE9YiEyu59dqbh6/RN53FDJxdDO0KbQFNF7jsuEwt8UE8CZWgNxWkbbc3gdtA20E3WBKOqZ9o6IZero57inKFyvinvQJ0G7Qdy0knuZo/KYy1eV06vGifcEiN22YZCHxxMUhN9N8ovFcN2b7gruHFTxYUoauJm9Av7UQXmRi6n2N76phaJYh2m4WQravFf0Ll6ntDxNSTEwxQXUUNE3jPfa5402GSb7pZfniZeyLxY39p0PdoUFQs8b/AmH5xxB/YpTy6VvmxnGcR4+C1oD6Q8/LD/+DBYMHWCggZCHhrLKeCHVWDJGYq6D1oR2hR0p8Llhizv5mLDm/2BQBlEFawVj+bdAPod4WdrOVBW5K2s7CJqWxphySDNIBD1jYzVbkAcMbArex9rKwrfUOXXYZpNopB7toXFSQKQcbHlxroQECGyH8Q5dZBqmVl6EB0KoW+nzlcdFKc1/o64t+FlroCBmkrkyBDrOQSxkKvZeDY57lpmZY+0A3u5BBEoW9YP/oRjkceiuDx0jzDvNjpKmn6rLJIGnDxsRn+t35IAstMRsNKwTY5rUJOsHNLGSQhsL3UYzxxTzn98824BhYEcDKAGa9z7BQMSBkkExRiRAxPMy8QhoRIr6fhZUArAgY5WYVMkimYY6BeYVeriTaZnKb8U4WtrSyEmCuTrsMkkf4FKk0Xr7aam+8zG3FfSxsM77F9I5IGaQgMO+wp0+FxsScClUafnM7MbcV36/TKYMUlVctRLwY+RrRwWKaPYovs/mvjJig05cueitt42Du5AjoZFtwZn4zC90lhQxSWhaWjZc5GkzNL/EUQmsQIWQQIYQMIoQMIoQMIoQMIoQMIoQMIoQMIoQMIoQMIoSQQYSQQYSQQYSQQYRIlf8IMABVs2rj5+hHbgAAAABJRU5ErkJggg==;fontFamily=Times New Roman;" parent="1" vertex="1">
          <mxGeometry x="429" y="405.9" width="100" height="100" as="geometry" />
        </mxCell>
        <mxCell id="T3kCYnvl8Ig83lV9UvoX-15" value="" style="shape=image;verticalLabelPosition=bottom;labelBackgroundColor=default;verticalAlign=top;aspect=fixed;imageAspect=0;image=data:image/svg+xml,PHN2ZyB4bWxucz0iaHR0cDovL3d3dy53My5vcmcvMjAwMC9zdmciIGhlaWdodD0iOTYiIHdpZHRoPSI5OCIgdmlld0JveD0iMCAwIDk4IDk2Ij48cGF0aCBmaWxsPSIjMjQyOTJmIiBkPSJNNDguODU0IDBDMjEuODM5IDAgMCAyMiAwIDQ5LjIxN2MwIDIxLjc1NiAxMy45OTMgNDAuMTcyIDMzLjQwNSA0Ni42OSAyLjQyNy40OSAzLjMxNi0xLjA1OSAzLjMxNi0yLjM2MiAwLTEuMTQxLS4wOC01LjA1Mi0uMDgtOS4xMjctMTMuNTkgMi45MzQtMTYuNDItNS44NjctMTYuNDItNS44NjctMi4xODQtNS43MDQtNS40Mi03LjE3LTUuNDItNy4xNy00LjQ0OC0zLjAxNS4zMjQtMy4wMTUuMzI0LTMuMDE1IDQuOTM0LjMyNiA3LjUyMyA1LjA1MiA3LjUyMyA1LjA1MiA0LjM2NyA3LjQ5NiAxMS40MDQgNS4zNzggMTQuMjM1IDQuMDc0LjQwNC0zLjE3OCAxLjY5OS01LjM3OCAzLjA3NC02LjYtMTAuODM5LTEuMTQxLTIyLjI0My01LjM3OC0yMi4yNDMtMjQuMjgzIDAtNS4zNzggMS45NC05Ljc3OCA1LjAxNC0xMy4yLS40ODUtMS4yMjItMi4xODQtNi4yNzUuNDg2LTEzLjAzOCAwIDAgNC4xMjUtMS4zMDQgMTMuNDI2IDUuMDUyYTQ2Ljk3IDQ2Ljk3IDAgMCAxIDEyLjIxNC0xLjYzYzQuMTI1IDAgOC4zMy41NzEgMTIuMjEzIDEuNjMgOS4zMDItNi4zNTYgMTMuNDI3LTUuMDUyIDEzLjQyNy01LjA1MiAyLjY3IDYuNzYzLjk3IDExLjgxNi40ODUgMTMuMDM4IDMuMTU1IDMuNDIyIDUuMDE1IDcuODIyIDUuMDE1IDEzLjIgMCAxOC45MDUtMTEuNDA0IDIzLjA2LTIyLjMyNCAyNC4yODMgMS43OCAxLjU0OCAzLjMxNiA0LjQ4MSAzLjMxNiA5LjEyNiAwIDYuNi0uMDggMTEuODk3LS4wOCAxMy41MjYgMCAxLjMwNC44OSAyLjg1MyAzLjMxNiAyLjM2NCAxOS40MTItNi41MiAzMy40MDUtMjQuOTM1IDMzLjQwNS00Ni42OTFDOTcuNzA3IDIyIDc1Ljc4OCAwIDQ4Ljg1NCAweiIgY2xpcC1ydWxlPSJldmVub2RkIiBmaWxsLXJ1bGU9ImV2ZW5vZGQiLz48L3N2Zz4=;fontFamily=Times New Roman;" parent="1" vertex="1">
          <mxGeometry x="568" y="660" width="80" height="78.37" as="geometry" />
        </mxCell>
        <mxCell id="T3kCYnvl8Ig83lV9UvoX-16" value="" style="shape=image;verticalLabelPosition=bottom;labelBackgroundColor=default;verticalAlign=top;aspect=fixed;imageAspect=0;image=https://www.docker.com/wp-content/uploads/2022/03/Moby-logo.png;fontFamily=Times New Roman;" parent="1" vertex="1">
          <mxGeometry x="66" y="554.41" width="80" height="57.37" as="geometry" />
        </mxCell>
        <mxCell id="T3kCYnvl8Ig83lV9UvoX-17" value="" style="dashed=0;outlineConnect=0;html=1;align=center;labelPosition=center;verticalLabelPosition=bottom;verticalAlign=top;shape=mxgraph.weblogos.json;shadow=0;fontFamily=Times New Roman;" parent="1" vertex="1">
          <mxGeometry x="323" y="430.09999999999997" width="70" height="75.8" as="geometry" />
        </mxCell>
        <mxCell id="T3kCYnvl8Ig83lV9UvoX-18" value="" style="shape=image;verticalLabelPosition=bottom;labelBackgroundColor=default;verticalAlign=top;aspect=fixed;imageAspect=0;image=https://www.docker.com/wp-content/uploads/2022/03/Moby-logo.png;fontFamily=Times New Roman;" parent="1" vertex="1">
          <mxGeometry x="568" y="554.41" width="80" height="57.37" as="geometry" />
        </mxCell>
        <mxCell id="T3kCYnvl8Ig83lV9UvoX-19" value="" style="shape=image;verticalLabelPosition=bottom;labelBackgroundColor=default;verticalAlign=top;aspect=fixed;imageAspect=0;image=data:image/jpeg,iVBORw0KGgoAAAANSUhEUgAAAMgAAADICAYAAACtWK6eAAAAGXRFWHRTb2Z0d2FyZQBBZG9iZSBJbWFnZVJlYWR5ccllPAAAA4ZpVFh0WE1MOmNvbS5hZG9iZS54bXAAAAAAADw/eHBhY2tldCBiZWdpbj0i77u/IiBpZD0iVzVNME1wQ2VoaUh6cmVTek5UY3prYzlkIj8+IDx4OnhtcG1ldGEgeG1sbnM6eD0iYWRvYmU6bnM6bWV0YS8iIHg6eG1wdGs9IkFkb2JlIFhNUCBDb3JlIDUuNi1jMDE0IDc5LjE1Njc5NywgMjAxNC8wOC8yMC0wOTo1MzowMiAgICAgICAgIj4gPHJkZjpSREYgeG1sbnM6cmRmPSJodHRwOi8vd3d3LnczLm9yZy8xOTk5LzAyLzIyLXJkZi1zeW50YXgtbnMjIj4gPHJkZjpEZXNjcmlwdGlvbiByZGY6YWJvdXQ9IiIgeG1sbnM6eG1wTU09Imh0dHA6Ly9ucy5hZG9iZS5jb20veGFwLzEuMC9tbS8iIHhtbG5zOnN0UmVmPSJodHRwOi8vbnMuYWRvYmUuY29tL3hhcC8xLjAvc1R5cGUvUmVzb3VyY2VSZWYjIiB4bWxuczp4bXA9Imh0dHA6Ly9ucy5hZG9iZS5jb20veGFwLzEuMC8iIHhtcE1NOk9yaWdpbmFsRG9jdW1lbnRJRD0ieG1wLmRpZDpmMzc2M2FjNC0xYjg0LTQ0YzAtYTg3Zi1kMzNjZDY4OGE3YjMiIHhtcE1NOkRvY3VtZW50SUQ9InhtcC5kaWQ6NkE3NzBEOTBFQjdDMTFFNEEwMjZCNTBBNDk5MkYxMDciIHhtcE1NOkluc3RhbmNlSUQ9InhtcC5paWQ6M0JENTI2M0VFQjdDMTFFNEEwMjZCNTBBNDk5MkYxMDciIHhtcDpDcmVhdG9yVG9vbD0iQWRvYmUgUGhvdG9zaG9wIENDIDIwMTQgKE1hY2ludG9zaCkiPiA8eG1wTU06RGVyaXZlZEZyb20gc3RSZWY6aW5zdGFuY2VJRD0ieG1wLmlpZDozMDNlZGEzOC1mMWUyLTQ3ODktYmQ0Zi03MTdiNjVmZWI3NGEiIHN0UmVmOmRvY3VtZW50SUQ9ImFkb2JlOmRvY2lkOnBob3Rvc2hvcDpkMTVjY2QzMS0zM2UzLTExNzgtYjU4Mi1lOWJkOGJlNTRlMzQiLz4gPC9yZGY6RGVzY3JpcHRpb24+IDwvcmRmOlJERj4gPC94OnhtcG1ldGE+IDw/eHBhY2tldCBlbmQ9InIiPz5MMMQcAAAP3ElEQVR42uydCbRVZRmGPxKnErOVmJbDBRWH1NRS0SLBqZxyyATFHNEgyXAeSotwRNFyAsFZc8ABp9TE2ZxxDI3lcEUFQQ1HUETk9r7934nr7cLd+5yz99nD+6z1Ll2se+7dZ+//3fv/v+/7v92ppaXFhBDt8xWdAiFkECFkECFkECFkECFkECFkECFkECFkECFkECGEDCKEDCKEDCKEDCKEDCKEDCJEruhc6y/oPnKmzqJoGM2DltITpCQsCm0PLatToSmWmE9X6PfQa9Bt0JvQxdCGOjUySJnZ0I1AQwyDvuP/vgS0H/QU9DDUz58uIo9rEBH7fO8MHQL1ivDzm7mmQWOgUf7/Qk+QQvFN6BjoVei6iOZozQrQCdDr0NVuGiGD5J71oNE+jToFWrkOC/l+PvV6yqdiS+g0yyB5YhGfRt0LPQcdCC2Z8BqmHuYTMkiiLAMdAb0MjYP6pPR3l/XpWzN0Q4p/VwYRkVgbGglNgU6HujXwybWrP7n+Cf0K+poujwzSqPO2A3QXNBEamLHBuI6FiBdNOwJaVZdMBkmDpaEh0EvQrdDWUKeMT/sO8+NlEvInGT9eGSSn9IDO8TvyWTm8I/M6s4zlTmgS9Bs3u5BBqoZ32p9Ct/ugGgx1KYjZz3aznwutqUstg8SBJjjYTXEHtG1BpyWV7/mir6V+5gt9IYO0C6dNZ1rIK5zrd9qyPCm5lroZegU6ykLmX8gg/x0cW0G3+EL2UOjrJT4fTdBpfpO4EFpfBiknDMkyT8AQ7XhoR90svgQz/wdAz0APQrtbSSuKy1bN2+Tzbl78b8gHkejlmmoht8Kq4rf1BCkWvaEbfY59hMxRFdyvwn0rrCi+AtpYBsn/NGGAhYLB+6BdTFGaerA4tBf0uGsv/zcZJCesZKG69Q2fDqynMZ0YG/vT5HX78q5IGSSjc+WxFqpaWd2q5gfp8S2bv6/+Wou/IUwGSfBxv6+FzUOMtvzCtI24kTDStbtfC0bADrBk9sLIIB3wbX+kcxp1iakDSBZhDoW5FOZUmFtpkkGSpyd0FTTZH+nLaRxmHmblmZ1nBJEbybJeAZ07gywG9YeegB6F9jC1wckjla3IrPti/RfzUV1kkOpZ3uZ38rgS2khjrDCwgpj1bqwoZmVxDxkkOj+ALvdp1FA3iigm3JPCvSmsnOZele2zNiazcjCcMvWFHoGehH5pBU4+if+DaxLuduSuRxaNchfkMjJI6Ev7Owvx82ugTTVWSg+3HYzw6Rdrv9Ypo0EYAmRPJ4ZpT7QCZmBFzVQqrtmhhZ1adrUGlAqlaRB+ud2gBywkkdQVUESFvb7Y8yv1Kok0DMI4+NH+5diX9se63qJK2D2SdXapvSKiU0tLS02/YCFvmOLckV3MmcP4qq6tSAgGdthx5obmQUt9nnWD8InEzf8M3W2haydSZJov6kfDKNOzZhCG5FiYxuxoN10r0UDmWNgcdw6M8khDDQJzrIj/HAftbeoDK7LH09DxMMrtjVqkv2WhBSfLm1t0PUTG1iZsJj4+K2sQ1tOw++A+praWojF8aqHa+3w8NZ7O4iKddPEpFxfqa+iaiRSYbOEVFBfBGDPq+YuTDPOyvmYbN8q2pr5Tor5w4DLDzqrgW2GML5L4I50T/gJ/d7G+hhGu/a3cnQtF7XxsodqbxpgEYyT6x6q+q+PJsRgUtZCMb3dlhSajXr+2sGFGiDiwyvcQH0Nc606KOE5ryrbX8gThZnwWkt0PnQfdBM3t4DMzfa7IhM6WPv3aQdMvsQDmQX/z8XWXRYyUwhTcKtHPjbS61VA6X48pVm/XFB/87EX1boTp192ubv5UUTtQUeF9Lrih8y1shYg6q+HTZZCFNwt39X/+sCFTrHbgwZ1koZCMc8SorSl5Ao600PCN7/qbqPFRWp6HDvKxdGRUc8AYm0PX+c8f18ocNVN1FAsHxMX2Bx38GBstsJCMB/9ZjF/fx6dfeqlL8WGB4ThfdD8U43MsgO3v06iFdc/8EAv5qqdYSc/9W7emPNHvDFFgL11ukFkNGg7N0DgqHG/7mOAUu28Mc/DnT/cp/WhLuLVsWotjtqasbK3l02TziJ+bbGEvyUo+r3xe4yr3sOE1ew6sAh1v4bUKHc507MtvwUqtQ3/a0SMGBbir8H4LXdc534xS5MgSAnbp+54HBK63jiNmIjtwen2ZhdZNbP53ZcQpd3vvUUx1zDYyvMpH4wUW/2X33LLLHrzdoVOhf2v8ZZYpPnPgDGBfaELEz2XmTbxZyD+097L7KMfFaNmxfvKZoX9a4zEzcA35c18vnGwdh/0rYzFz73LPUoKu7QkaYtHKUmZbaGD9fQv73cd6ZESkyyyfEaxrYTfpjRGnwe3dIDtlaVBmEWY/z/JHLJNFa0f83EMeEenmEZJ3NG4Th4vmwy1EKOPksVimNKqKKbYM0gpWojEz+oLF64001SMkK8ec+4posATkDmg7C1sa+H75DyJ8bhG/hryWLFNi36tM70TNUw1UNb2RWkdP2LXxak2/aoJlG3/2RfN2bpJ5ET63rF+zZr+GffLyhfNYJNi6N9KlFppdR+ExaE8L8fc/QdM13iMz0Z/knEYdCr0c8XOspL3Yr9Upfu1yRZ6raNmVkdt72ez6UR/8i0X4HNvD/MGNwje0PqHx3y5f+EJ7C194c70wM8Ln2IiclbQPW3g1Xq47aBalzJzJp79avLetzvHPbOKKmrwqOswrMb/EPBNDtfdF/Fzr97lwKrtZEU5G0fZh8CJV87ZVPkVY/tDkT5dpJTTGBA9ocBrF/NIbVdyc+D6XFYp0Uoq6Uant21YHWLT2p9N9fcLp1x4+dSsyfIpe5QGMjTygEeUpuniV01sZJIPwVQvcxMV4O6tAo3R+ZKTrGp8mxBk4eWGqT4d4I+jvAYwotN7zEydAIoPkAFZ/sgqUiS1WhUbN2FamHiv59G1qjs9B60TqMIseyWNY9npLYEOSDJLN78yq0Lg1P+/63TPu/oVGw0pobl/dwOKV4rR9gQ0X7J3LOFjKTNuq0bUiTr/G+mBjnJ91YLMz+N0qW5lX9DXYsxE/l6lXoMkg2aCy74AlLWwkwfd5RylpYQBgf59+xYn8JAX3T7MX7U4WdmOeAb0X4XOZfYmmDJItOFDYjmicr1WOsvCGrI6o5A549+VelQdSPu6P/AnIok52s7zFopWAZP41zDJIdmmCTvOpRtTXfc31xWxvC7sfx/gaICk4sAf7NKoy0KOwphtqik8xe+hyyyDVwjIJlkuwbILlEyyjWDTC5yotbDj94r76yXU6nnn+hNjGnxhsqvZxjOAEt66+6FPKLrq8Mkg9YV6EZRRxssbsyDLc1wS7WIgIVUPl96zqa4zxFq3TYNvw9taWoQ1JMkgxoTHi1h2x+O8mX+Ow+I+772ZF+ByjTwOqeBJxz/9oi5cgFTJIXWlduco98WyfumSEz7F8fKCvHXh3b9tBkKFk1pIxlMz8xUUR1zJtu8awVZLeMFwDSXdWLCMzfECPjHG3541qB39SMHTM/EOcgsmubobKng0xn5o6K8ogycEpFd/fyD31d1sy73BkLdRgf4otrlNef4NoipUcTDQy4VjvqBGrZlk9yypaVtPuI3NoDZJ32uYdqmmExsDAUA8McP9FT51WGaRoVDLXcVpptg4tM3K2vE5jenTWKWgIlWbMFCNYLAj8pJ2fY65jK50uPUHKDPMTC8rMqwREBhFCBhFCBhFCBhFCBhFCyCBCyCBCyCBCyCBCyCBCyCBCyCBCyCBCyCBCyCBCCBlECBlECBlECBlECBlECBlECBlECBlECBlECCGDCCGDCCGDCCGDCCGDCCGDCCGDCCGDCCGDCCGDCCFkECFkECFkECFkECFkECFkECFkECFkECFkECFkECGEDCKEDCJEhgwyG7oVatFpFBllLjSull/QqaWltvHdfeTMdfCfY6C+UGddk6pYBvqwnX9/HVpZpyc2n0GXQsObBy3V3Ogp1kRoL6gHdL4/WYRoBB9DI6BuMMbAWs1hdb7jvwYdDA2DDoUGQkvrmokUmAGdDZ0LU7xXz19cjynWwqYNNMwh0HK6hppiJcBU6EzoAhhjVhJ/IMk1wwfQSdBZ0P7QkbrYok68Ap0GXQ5jzEnyD6UR5v2Ejz5oNWg/6F+6vqJKnoP2gNaELoTmJP0H08yDfO6RBUa9doWe1PUWEXkY2h7aALoG+iKtP9yIROE8C7HpjaGtoHt1/cUCuBPaHPoRdLs1IOfW6Ez6PdCWUE/oJjePKDccA9dBG0LbQg828mCyUmryOLQLtC4XXj4dE+WC64lLoLWg3aFnsnBQWavFehHaB1odOg/6VOOm8DCI8xcLQRxGO1/K0sFltViR8f/BUBN0irWfIxD5hmmAE/0aD4HezOJBZr2a9x3oOAv5k2OhtzWucg+v4dHQKtDx0LtZPti8lLt/BJ3qdxs+WSZrnOUOXrOD/RoO92uaefK2H2S2r024RtkbekHjLvO84NeK1yx3xax53TDFOv8rLES9doYe0zjMHE9YiEyu59dqbh6/RN53FDJxdDO0KbQFNF7jsuEwt8UE8CZWgNxWkbbc3gdtA20E3WBKOqZ9o6IZero57inKFyvinvQJ0G7Qdy0knuZo/KYy1eV06vGifcEiN22YZCHxxMUhN9N8ovFcN2b7gruHFTxYUoauJm9Av7UQXmRi6n2N76phaJYh2m4WQravFf0Ll6ntDxNSTEwxQXUUNE3jPfa5402GSb7pZfniZeyLxY39p0PdoUFQs8b/AmH5xxB/YpTy6VvmxnGcR4+C1oD6Q8/LD/+DBYMHWCggZCHhrLKeCHVWDJGYq6D1oR2hR0p8Llhizv5mLDm/2BQBlEFawVj+bdAPod4WdrOVBW5K2s7CJqWxphySDNIBD1jYzVbkAcMbArex9rKwrfUOXXYZpNopB7toXFSQKQcbHlxroQECGyH8Q5dZBqmVl6EB0KoW+nzlcdFKc1/o64t+FlroCBmkrkyBDrOQSxkKvZeDY57lpmZY+0A3u5BBEoW9YP/oRjkceiuDx0jzDvNjpKmn6rLJIGnDxsRn+t35IAstMRsNKwTY5rUJOsHNLGSQhsL3UYzxxTzn98824BhYEcDKAGa9z7BQMSBkkExRiRAxPMy8QhoRIr6fhZUArAgY5WYVMkimYY6BeYVeriTaZnKb8U4WtrSyEmCuTrsMkkf4FKk0Xr7aam+8zG3FfSxsM77F9I5IGaQgMO+wp0+FxsScClUafnM7MbcV36/TKYMUlVctRLwY+RrRwWKaPYovs/mvjJig05cueitt42Du5AjoZFtwZn4zC90lhQxSWhaWjZc5GkzNL/EUQmsQIWQQIYQMIoQMIoQMIoQMIoQMIoQMIoQMIoQMIoQMIoSQQYSQQYSQQYSQQYRIlf8IMABVs2rj5+hHbgAAAABJRU5ErkJggg==;fontFamily=Times New Roman;" parent="1" vertex="1">
          <mxGeometry x="694" y="405.9" width="100" height="100" as="geometry" />
        </mxCell>
        <mxCell id="T3kCYnvl8Ig83lV9UvoX-20" value="" style="group;aspect=fixed;fontFamily=Times New Roman;" parent="1" vertex="1" connectable="0">
          <mxGeometry x="204" y="427.69" width="60" height="78.21" as="geometry" />
        </mxCell>
        <mxCell id="T3kCYnvl8Ig83lV9UvoX-21" value="" style="shape=note;whiteSpace=wrap;html=1;backgroundOutline=1;darkOpacity=0.05;fillColor=#E1EFF7;strokeColor=#000066;fontFamily=Times New Roman;" parent="T3kCYnvl8Ig83lV9UvoX-20" vertex="1">
          <mxGeometry width="60" height="74.99589041095889" as="geometry" />
        </mxCell>
        <mxCell id="T3kCYnvl8Ig83lV9UvoX-22" value="&lt;b&gt;Dockerfile&lt;/b&gt;" style="text;html=1;strokeColor=none;fillColor=none;align=center;verticalAlign=middle;whiteSpace=wrap;rounded=0;fontFamily=Times New Roman;" parent="T3kCYnvl8Ig83lV9UvoX-20" vertex="1">
          <mxGeometry x="7.5" y="55.71123287671232" width="45" height="22.498767123287667" as="geometry" />
        </mxCell>
        <mxCell id="T3kCYnvl8Ig83lV9UvoX-23" value="" style="image;sketch=0;aspect=fixed;html=1;points=[];align=center;fontSize=12;image=img/lib/mscae/Docker.svg;fontFamily=Times New Roman;" parent="T3kCYnvl8Ig83lV9UvoX-20" vertex="1">
          <mxGeometry x="11.25" y="24.967203287671225" width="37.497945205479446" height="30.748315068493145" as="geometry" />
        </mxCell>
        <mxCell id="T3kCYnvl8Ig83lV9UvoX-24" value="" style="shape=image;verticalLabelPosition=bottom;labelBackgroundColor=default;verticalAlign=top;aspect=fixed;imageAspect=0;image=https://upload.wikimedia.org/wikipedia/commons/thumb/c/c3/Python-logo-notext.svg/1869px-Python-logo-notext.svg.png;fontFamily=Times New Roman;" parent="1" vertex="1">
          <mxGeometry x="441.5" y="529.5899999999999" width="75" height="82.19" as="geometry" />
        </mxCell>
        <mxCell id="T3kCYnvl8Ig83lV9UvoX-25" value="" style="image;aspect=fixed;html=1;points=[];align=center;fontSize=12;image=img/lib/azure2/general/Load_Test.svg;fontFamily=Times New Roman;" parent="1" vertex="1">
          <mxGeometry x="574" y="439.9" width="68" height="66" as="geometry" />
        </mxCell>
        <mxCell id="T3kCYnvl8Ig83lV9UvoX-26" value="" style="shape=image;verticalLabelPosition=bottom;labelBackgroundColor=default;verticalAlign=top;aspect=fixed;imageAspect=0;image=https://upload.wikimedia.org/wikipedia/commons/thumb/c/c3/Python-logo-notext.svg/1869px-Python-logo-notext.svg.png;fontFamily=Times New Roman;" parent="1" vertex="1">
          <mxGeometry x="706.5" y="529.5899999999999" width="75" height="82.19" as="geometry" />
        </mxCell>
        <mxCell id="T3kCYnvl8Ig83lV9UvoX-27" value="" style="curved=1;endArrow=classic;html=1;rounded=0;entryX=0.25;entryY=1;entryDx=0;entryDy=0;fontFamily=Times New Roman;" parent="1" target="T3kCYnvl8Ig83lV9UvoX-26" edge="1">
          <mxGeometry width="50" height="50" relative="1" as="geometry">
            <mxPoint x="648" y="700" as="sourcePoint" />
            <mxPoint x="716" y="646" as="targetPoint" />
            <Array as="points">
              <mxPoint x="698" y="700" />
            </Array>
          </mxGeometry>
        </mxCell>
        <mxCell id="T3kCYnvl8Ig83lV9UvoX-28" value="" style="curved=1;endArrow=classic;html=1;rounded=0;exitX=1;exitY=0.75;exitDx=0;exitDy=0;fontFamily=Times New Roman;" parent="1" source="T3kCYnvl8Ig83lV9UvoX-18" target="T3kCYnvl8Ig83lV9UvoX-19" edge="1">
          <mxGeometry width="50" height="50" relative="1" as="geometry">
            <mxPoint x="659" y="601" as="sourcePoint" />
            <mxPoint x="706.5" y="498" as="targetPoint" />
            <Array as="points">
              <mxPoint x="679.5" y="586" />
              <mxPoint x="697" y="552" />
            </Array>
          </mxGeometry>
        </mxCell>
        <mxCell id="T3kCYnvl8Ig83lV9UvoX-29" value="" style="curved=1;endArrow=none;html=1;rounded=0;exitX=0;exitY=0.638;exitDx=0;exitDy=0;exitPerimeter=0;endFill=0;startArrow=classic;startFill=1;fontFamily=Times New Roman;" parent="1" source="T3kCYnvl8Ig83lV9UvoX-18" target="T3kCYnvl8Ig83lV9UvoX-14" edge="1">
          <mxGeometry width="50" height="50" relative="1" as="geometry">
            <mxPoint x="554" y="586" as="sourcePoint" />
            <mxPoint x="491" y="505.9" as="targetPoint" />
            <Array as="points">
              <mxPoint x="531.5" y="585.9" />
              <mxPoint x="514" y="551.9" />
            </Array>
          </mxGeometry>
        </mxCell>
        <mxCell id="T3kCYnvl8Ig83lV9UvoX-30" value="" style="curved=1;endArrow=none;html=1;rounded=0;exitX=0;exitY=0.5;exitDx=0;exitDy=0;endFill=0;startArrow=classic;startFill=1;fontFamily=Times New Roman;" parent="1" source="T3kCYnvl8Ig83lV9UvoX-15" target="T3kCYnvl8Ig83lV9UvoX-24" edge="1">
          <mxGeometry width="50" height="50" relative="1" as="geometry">
            <mxPoint x="557" y="699.78" as="sourcePoint" />
            <mxPoint x="480" y="611.78" as="targetPoint" />
            <Array as="points">
              <mxPoint x="507" y="699.78" />
            </Array>
          </mxGeometry>
        </mxCell>
        <mxCell id="T3kCYnvl8Ig83lV9UvoX-31" value="This step is optional, you can import an image directly from &lt;br&gt;&lt;b&gt;DockerHub&lt;/b&gt;" style="whiteSpace=wrap;html=1;shape=mxgraph.basic.cloud_callout;fillColor=#E1EFF7;fontFamily=Times New Roman;" parent="1" vertex="1">
          <mxGeometry x="231" y="108" width="212" height="148" as="geometry" />
        </mxCell>
        <mxCell id="T3kCYnvl8Ig83lV9UvoX-32" value="&lt;b&gt;&lt;font style=&quot;font-size: 30px;&quot;&gt;Development with VScode and Docker Workflow&lt;/font&gt;&lt;/b&gt;" style="text;html=1;strokeColor=none;fillColor=none;align=center;verticalAlign=middle;whiteSpace=wrap;rounded=0;fontFamily=Times New Roman;" parent="1" vertex="1">
          <mxGeometry x="64" y="64" width="722" height="30" as="geometry" />
        </mxCell>
      </root>
    </mxGraphModel>
  </diagram>
  <diagram id="iaNsl_Vq1E-tIud9fXWb" name="Building Docker">
    <mxGraphModel dx="546" dy="258" grid="0" gridSize="10" guides="1" tooltips="1" connect="1" arrows="1" fold="1" page="0" pageScale="1" pageWidth="850" pageHeight="1100" math="0" shadow="0">
      <root>
        <mxCell id="0" />
        <mxCell id="1" parent="0" />
        <mxCell id="QxhtP_bBP53_qYXOe-Gc-1" value="" style="group;aspect=fixed;fontFamily=Times New Roman;" parent="1" vertex="1" connectable="0">
          <mxGeometry x="419" y="694" width="60" height="78.21" as="geometry" />
        </mxCell>
        <mxCell id="QxhtP_bBP53_qYXOe-Gc-2" value="" style="shape=note;whiteSpace=wrap;html=1;backgroundOutline=1;darkOpacity=0.05;fillColor=#E1EFF7;strokeColor=#000066;fontFamily=Times New Roman;" parent="QxhtP_bBP53_qYXOe-Gc-1" vertex="1">
          <mxGeometry width="60" height="74.99589041095889" as="geometry" />
        </mxCell>
        <mxCell id="QxhtP_bBP53_qYXOe-Gc-3" value="&lt;b&gt;Dockerfile&lt;/b&gt;" style="text;html=1;strokeColor=none;fillColor=none;align=center;verticalAlign=middle;whiteSpace=wrap;rounded=0;fontFamily=Times New Roman;" parent="QxhtP_bBP53_qYXOe-Gc-1" vertex="1">
          <mxGeometry x="7.5" y="55.71123287671232" width="45" height="22.498767123287667" as="geometry" />
        </mxCell>
        <mxCell id="QxhtP_bBP53_qYXOe-Gc-4" value="" style="image;sketch=0;aspect=fixed;html=1;points=[];align=center;fontSize=12;image=img/lib/mscae/Docker.svg;fontFamily=Times New Roman;" parent="QxhtP_bBP53_qYXOe-Gc-1" vertex="1">
          <mxGeometry x="11.25" y="24.967203287671225" width="37.497945205479446" height="30.748315068493145" as="geometry" />
        </mxCell>
        <mxCell id="QxhtP_bBP53_qYXOe-Gc-5" value="" style="shape=flexArrow;endArrow=classic;html=1;rounded=0;sketch=1;curveFitting=1;jiggle=2;fillColor=#0000FF;strokeColor=#6c8ebf;gradientColor=none;fontFamily=Times New Roman;" parent="1" edge="1">
          <mxGeometry width="50" height="50" relative="1" as="geometry">
            <mxPoint x="544" y="732.61" as="sourcePoint" />
            <mxPoint x="640" y="733" as="targetPoint" />
          </mxGeometry>
        </mxCell>
        <mxCell id="mqXQISDSsDl_yivasYSx-2" value="" style="shape=flexArrow;endArrow=classic;html=1;rounded=0;sketch=1;curveFitting=1;jiggle=2;fillColor=#0000FF;strokeColor=#6c8ebf;gradientColor=none;fontFamily=Times New Roman;" parent="1" edge="1">
          <mxGeometry width="50" height="50" relative="1" as="geometry">
            <mxPoint x="844" y="732.6" as="sourcePoint" />
            <mxPoint x="940" y="732.99" as="targetPoint" />
          </mxGeometry>
        </mxCell>
        <mxCell id="mqXQISDSsDl_yivasYSx-3" value="" style="shape=image;verticalLabelPosition=bottom;labelBackgroundColor=default;verticalAlign=top;aspect=fixed;imageAspect=0;image=data:image/jpeg,iVBORw0KGgoAAAANSUhEUgAAAMgAAADICAYAAACtWK6eAAAAGXRFWHRTb2Z0d2FyZQBBZG9iZSBJbWFnZVJlYWR5ccllPAAAA4ZpVFh0WE1MOmNvbS5hZG9iZS54bXAAAAAAADw/eHBhY2tldCBiZWdpbj0i77u/IiBpZD0iVzVNME1wQ2VoaUh6cmVTek5UY3prYzlkIj8+IDx4OnhtcG1ldGEgeG1sbnM6eD0iYWRvYmU6bnM6bWV0YS8iIHg6eG1wdGs9IkFkb2JlIFhNUCBDb3JlIDUuNi1jMDE0IDc5LjE1Njc5NywgMjAxNC8wOC8yMC0wOTo1MzowMiAgICAgICAgIj4gPHJkZjpSREYgeG1sbnM6cmRmPSJodHRwOi8vd3d3LnczLm9yZy8xOTk5LzAyLzIyLXJkZi1zeW50YXgtbnMjIj4gPHJkZjpEZXNjcmlwdGlvbiByZGY6YWJvdXQ9IiIgeG1sbnM6eG1wTU09Imh0dHA6Ly9ucy5hZG9iZS5jb20veGFwLzEuMC9tbS8iIHhtbG5zOnN0UmVmPSJodHRwOi8vbnMuYWRvYmUuY29tL3hhcC8xLjAvc1R5cGUvUmVzb3VyY2VSZWYjIiB4bWxuczp4bXA9Imh0dHA6Ly9ucy5hZG9iZS5jb20veGFwLzEuMC8iIHhtcE1NOk9yaWdpbmFsRG9jdW1lbnRJRD0ieG1wLmRpZDpmMzc2M2FjNC0xYjg0LTQ0YzAtYTg3Zi1kMzNjZDY4OGE3YjMiIHhtcE1NOkRvY3VtZW50SUQ9InhtcC5kaWQ6NkE3NzBEOTBFQjdDMTFFNEEwMjZCNTBBNDk5MkYxMDciIHhtcE1NOkluc3RhbmNlSUQ9InhtcC5paWQ6M0JENTI2M0VFQjdDMTFFNEEwMjZCNTBBNDk5MkYxMDciIHhtcDpDcmVhdG9yVG9vbD0iQWRvYmUgUGhvdG9zaG9wIENDIDIwMTQgKE1hY2ludG9zaCkiPiA8eG1wTU06RGVyaXZlZEZyb20gc3RSZWY6aW5zdGFuY2VJRD0ieG1wLmlpZDozMDNlZGEzOC1mMWUyLTQ3ODktYmQ0Zi03MTdiNjVmZWI3NGEiIHN0UmVmOmRvY3VtZW50SUQ9ImFkb2JlOmRvY2lkOnBob3Rvc2hvcDpkMTVjY2QzMS0zM2UzLTExNzgtYjU4Mi1lOWJkOGJlNTRlMzQiLz4gPC9yZGY6RGVzY3JpcHRpb24+IDwvcmRmOlJERj4gPC94OnhtcG1ldGE+IDw/eHBhY2tldCBlbmQ9InIiPz5MMMQcAAAP3ElEQVR42uydCbRVZRmGPxKnErOVmJbDBRWH1NRS0SLBqZxyyATFHNEgyXAeSotwRNFyAsFZc8ABp9TE2ZxxDI3lcEUFQQ1HUETk9r7934nr7cLd+5yz99nD+6z1Ll2se+7dZ+//3fv/v+/7v92ppaXFhBDt8xWdAiFkECFkECFkECFkECFkECFkECFkECFkECFkECGEDCKEDCKEDCKEDCKEDCKEDCJEruhc6y/oPnKmzqJoGM2DltITpCQsCm0PLatToSmWmE9X6PfQa9Bt0JvQxdCGOjUySJnZ0I1AQwyDvuP/vgS0H/QU9DDUz58uIo9rEBH7fO8MHQL1ivDzm7mmQWOgUf7/Qk+QQvFN6BjoVei6iOZozQrQCdDr0NVuGiGD5J71oNE+jToFWrkOC/l+PvV6yqdiS+g0yyB5YhGfRt0LPQcdCC2Z8BqmHuYTMkiiLAMdAb0MjYP6pPR3l/XpWzN0Q4p/VwYRkVgbGglNgU6HujXwybWrP7n+Cf0K+poujwzSqPO2A3QXNBEamLHBuI6FiBdNOwJaVZdMBkmDpaEh0EvQrdDWUKeMT/sO8+NlEvInGT9eGSSn9IDO8TvyWTm8I/M6s4zlTmgS9Bs3u5BBqoZ32p9Ct/ugGgx1KYjZz3aznwutqUstg8SBJjjYTXEHtG1BpyWV7/mir6V+5gt9IYO0C6dNZ1rIK5zrd9qyPCm5lroZegU6ykLmX8gg/x0cW0G3+EL2UOjrJT4fTdBpfpO4EFpfBiknDMkyT8AQ7XhoR90svgQz/wdAz0APQrtbSSuKy1bN2+Tzbl78b8gHkejlmmoht8Kq4rf1BCkWvaEbfY59hMxRFdyvwn0rrCi+AtpYBsn/NGGAhYLB+6BdTFGaerA4tBf0uGsv/zcZJCesZKG69Q2fDqynMZ0YG/vT5HX78q5IGSSjc+WxFqpaWd2q5gfp8S2bv6/+Wou/IUwGSfBxv6+FzUOMtvzCtI24kTDStbtfC0bADrBk9sLIIB3wbX+kcxp1iakDSBZhDoW5FOZUmFtpkkGSpyd0FTTZH+nLaRxmHmblmZ1nBJEbybJeAZ07gywG9YeegB6F9jC1wckjla3IrPti/RfzUV1kkOpZ3uZ38rgS2khjrDCwgpj1bqwoZmVxDxkkOj+ALvdp1FA3iigm3JPCvSmsnOZele2zNiazcjCcMvWFHoGehH5pBU4+if+DaxLuduSuRxaNchfkMjJI6Ev7Owvx82ugTTVWSg+3HYzw6Rdrv9Ypo0EYAmRPJ4ZpT7QCZmBFzVQqrtmhhZ1adrUGlAqlaRB+ud2gBywkkdQVUESFvb7Y8yv1Kok0DMI4+NH+5diX9se63qJK2D2SdXapvSKiU0tLS02/YCFvmOLckV3MmcP4qq6tSAgGdthx5obmQUt9nnWD8InEzf8M3W2haydSZJov6kfDKNOzZhCG5FiYxuxoN10r0UDmWNgcdw6M8khDDQJzrIj/HAftbeoDK7LH09DxMMrtjVqkv2WhBSfLm1t0PUTG1iZsJj4+K2sQ1tOw++A+praWojF8aqHa+3w8NZ7O4iKddPEpFxfqa+iaiRSYbOEVFBfBGDPq+YuTDPOyvmYbN8q2pr5Tor5w4DLDzqrgW2GML5L4I50T/gJ/d7G+hhGu/a3cnQtF7XxsodqbxpgEYyT6x6q+q+PJsRgUtZCMb3dlhSajXr+2sGFGiDiwyvcQH0Nc606KOE5ryrbX8gThZnwWkt0PnQfdBM3t4DMzfa7IhM6WPv3aQdMvsQDmQX/z8XWXRYyUwhTcKtHPjbS61VA6X48pVm/XFB/87EX1boTp192ubv5UUTtQUeF9Lrih8y1shYg6q+HTZZCFNwt39X/+sCFTrHbgwZ1koZCMc8SorSl5Ao600PCN7/qbqPFRWp6HDvKxdGRUc8AYm0PX+c8f18ocNVN1FAsHxMX2Bx38GBstsJCMB/9ZjF/fx6dfeqlL8WGB4ThfdD8U43MsgO3v06iFdc/8EAv5qqdYSc/9W7emPNHvDFFgL11ukFkNGg7N0DgqHG/7mOAUu28Mc/DnT/cp/WhLuLVsWotjtqasbK3l02TziJ+bbGEvyUo+r3xe4yr3sOE1ew6sAh1v4bUKHc507MtvwUqtQ3/a0SMGBbir8H4LXdc534xS5MgSAnbp+54HBK63jiNmIjtwen2ZhdZNbP53ZcQpd3vvUUx1zDYyvMpH4wUW/2X33LLLHrzdoVOhf2v8ZZYpPnPgDGBfaELEz2XmTbxZyD+097L7KMfFaNmxfvKZoX9a4zEzcA35c18vnGwdh/0rYzFz73LPUoKu7QkaYtHKUmZbaGD9fQv73cd6ZESkyyyfEaxrYTfpjRGnwe3dIDtlaVBmEWY/z/JHLJNFa0f83EMeEenmEZJ3NG4Th4vmwy1EKOPksVimNKqKKbYM0gpWojEz+oLF64001SMkK8ec+4posATkDmg7C1sa+H75DyJ8bhG/hryWLFNi36tM70TNUw1UNb2RWkdP2LXxak2/aoJlG3/2RfN2bpJ5ET63rF+zZr+GffLyhfNYJNi6N9KlFppdR+ExaE8L8fc/QdM13iMz0Z/knEYdCr0c8XOspL3Yr9Upfu1yRZ6raNmVkdt72ez6UR/8i0X4HNvD/MGNwje0PqHx3y5f+EJ7C194c70wM8Ln2IiclbQPW3g1Xq47aBalzJzJp79avLetzvHPbOKKmrwqOswrMb/EPBNDtfdF/Fzr97lwKrtZEU5G0fZh8CJV87ZVPkVY/tDkT5dpJTTGBA9ocBrF/NIbVdyc+D6XFYp0Uoq6Uant21YHWLT2p9N9fcLp1x4+dSsyfIpe5QGMjTygEeUpuniV01sZJIPwVQvcxMV4O6tAo3R+ZKTrGp8mxBk4eWGqT4d4I+jvAYwotN7zEydAIoPkAFZ/sgqUiS1WhUbN2FamHiv59G1qjs9B60TqMIseyWNY9npLYEOSDJLN78yq0Lg1P+/63TPu/oVGw0pobl/dwOKV4rR9gQ0X7J3LOFjKTNuq0bUiTr/G+mBjnJ91YLMz+N0qW5lX9DXYsxE/l6lXoMkg2aCy74AlLWwkwfd5RylpYQBgf59+xYn8JAX3T7MX7U4WdmOeAb0X4XOZfYmmDJItOFDYjmicr1WOsvCGrI6o5A549+VelQdSPu6P/AnIok52s7zFopWAZP41zDJIdmmCTvOpRtTXfc31xWxvC7sfx/gaICk4sAf7NKoy0KOwphtqik8xe+hyyyDVwjIJlkuwbILlEyyjWDTC5yotbDj94r76yXU6nnn+hNjGnxhsqvZxjOAEt66+6FPKLrq8Mkg9YV6EZRRxssbsyDLc1wS7WIgIVUPl96zqa4zxFq3TYNvw9taWoQ1JMkgxoTHi1h2x+O8mX+Ow+I+772ZF+ByjTwOqeBJxz/9oi5cgFTJIXWlduco98WyfumSEz7F8fKCvHXh3b9tBkKFk1pIxlMz8xUUR1zJtu8awVZLeMFwDSXdWLCMzfECPjHG3541qB39SMHTM/EOcgsmubobKng0xn5o6K8ogycEpFd/fyD31d1sy73BkLdRgf4otrlNef4NoipUcTDQy4VjvqBGrZlk9yypaVtPuI3NoDZJ32uYdqmmExsDAUA8McP9FT51WGaRoVDLXcVpptg4tM3K2vE5jenTWKWgIlWbMFCNYLAj8pJ2fY65jK50uPUHKDPMTC8rMqwREBhFCBhFCBhFCBhFCBhFCyCBCyCBCyCBCyCBCyCBCyCBCyCBCyCBCyCBCyCBCCBlECBlECBlECBlECBlECBlECBlECBlECBlECCGDCCGDCCGDCCGDCCGDCCGDCCGDCCGDCCGDCCGDCCFkECFkECFkECFkECFkECFkECFkECFkECFkECFkECGEDCKEDCJEhgwyG7oVatFpFBllLjSull/QqaWltvHdfeTMdfCfY6C+UGddk6pYBvqwnX9/HVpZpyc2n0GXQsObBy3V3Ogp1kRoL6gHdL4/WYRoBB9DI6BuMMbAWs1hdb7jvwYdDA2DDoUGQkvrmokUmAGdDZ0LU7xXz19cjynWwqYNNMwh0HK6hppiJcBU6EzoAhhjVhJ/IMk1wwfQSdBZ0P7QkbrYok68Ap0GXQ5jzEnyD6UR5v2Ejz5oNWg/6F+6vqJKnoP2gNaELoTmJP0H08yDfO6RBUa9doWe1PUWEXkY2h7aALoG+iKtP9yIROE8C7HpjaGtoHt1/cUCuBPaHPoRdLs1IOfW6Ez6PdCWUE/oJjePKDccA9dBG0LbQg828mCyUmryOLQLtC4XXj4dE+WC64lLoLWg3aFnsnBQWavFehHaB1odOg/6VOOm8DCI8xcLQRxGO1/K0sFltViR8f/BUBN0irWfIxD5hmmAE/0aD4HezOJBZr2a9x3oOAv5k2OhtzWucg+v4dHQKtDx0LtZPti8lLt/BJ3qdxs+WSZrnOUOXrOD/RoO92uaefK2H2S2r024RtkbekHjLvO84NeK1yx3xax53TDFOv8rLES9doYe0zjMHE9YiEyu59dqbh6/RN53FDJxdDO0KbQFNF7jsuEwt8UE8CZWgNxWkbbc3gdtA20E3WBKOqZ9o6IZero57inKFyvinvQJ0G7Qdy0knuZo/KYy1eV06vGifcEiN22YZCHxxMUhN9N8ovFcN2b7gruHFTxYUoauJm9Av7UQXmRi6n2N76phaJYh2m4WQravFf0Ll6ntDxNSTEwxQXUUNE3jPfa5402GSb7pZfniZeyLxY39p0PdoUFQs8b/AmH5xxB/YpTy6VvmxnGcR4+C1oD6Q8/LD/+DBYMHWCggZCHhrLKeCHVWDJGYq6D1oR2hR0p8Llhizv5mLDm/2BQBlEFawVj+bdAPod4WdrOVBW5K2s7CJqWxphySDNIBD1jYzVbkAcMbArex9rKwrfUOXXYZpNopB7toXFSQKQcbHlxroQECGyH8Q5dZBqmVl6EB0KoW+nzlcdFKc1/o64t+FlroCBmkrkyBDrOQSxkKvZeDY57lpmZY+0A3u5BBEoW9YP/oRjkceiuDx0jzDvNjpKmn6rLJIGnDxsRn+t35IAstMRsNKwTY5rUJOsHNLGSQhsL3UYzxxTzn98824BhYEcDKAGa9z7BQMSBkkExRiRAxPMy8QhoRIr6fhZUArAgY5WYVMkimYY6BeYVeriTaZnKb8U4WtrSyEmCuTrsMkkf4FKk0Xr7aam+8zG3FfSxsM77F9I5IGaQgMO+wp0+FxsScClUafnM7MbcV36/TKYMUlVctRLwY+RrRwWKaPYovs/mvjJig05cueitt42Du5AjoZFtwZn4zC90lhQxSWhaWjZc5GkzNL/EUQmsQIWQQIYQMIoQMIoQMIoQMIoQMIoQMIoQMIoQMIoQMIoSQQYSQQYSQQYSQQYRIlf8IMABVs2rj5+hHbgAAAABJRU5ErkJggg==;fontFamily=Times New Roman;" parent="1" vertex="1">
          <mxGeometry x="1007" y="683.1099999999999" width="100" height="100" as="geometry" />
        </mxCell>
        <mxCell id="mqXQISDSsDl_yivasYSx-4" value="" style="image;aspect=fixed;html=1;points=[];align=center;fontSize=12;image=img/lib/azure2/compute/Images.svg;fontFamily=Times New Roman;" parent="1" vertex="1">
          <mxGeometry x="706" y="701.11" width="69" height="64" as="geometry" />
        </mxCell>
        <mxCell id="mqXQISDSsDl_yivasYSx-6" value="&lt;i&gt;docker build&lt;/i&gt;" style="text;html=1;strokeColor=none;fillColor=none;align=center;verticalAlign=middle;whiteSpace=wrap;rounded=0;fontFamily=Times New Roman;" parent="1" vertex="1">
          <mxGeometry x="540" y="689" width="83" height="30" as="geometry" />
        </mxCell>
        <mxCell id="mqXQISDSsDl_yivasYSx-7" value="&lt;i&gt;docker run&lt;/i&gt;" style="text;html=1;strokeColor=none;fillColor=none;align=center;verticalAlign=middle;whiteSpace=wrap;rounded=0;fontFamily=Times New Roman;" parent="1" vertex="1">
          <mxGeometry x="839" y="689" width="83" height="30" as="geometry" />
        </mxCell>
        <mxCell id="mqXQISDSsDl_yivasYSx-8" value="&lt;b&gt;Dockerfile&lt;/b&gt;" style="text;html=1;strokeColor=none;fillColor=none;align=center;verticalAlign=middle;whiteSpace=wrap;rounded=0;fontFamily=Times New Roman;" parent="1" vertex="1">
          <mxGeometry x="419" y="783.11" width="60" height="30" as="geometry" />
        </mxCell>
        <mxCell id="mqXQISDSsDl_yivasYSx-9" value="&lt;b&gt;Docker Image&lt;/b&gt;" style="text;html=1;strokeColor=none;fillColor=none;align=center;verticalAlign=middle;whiteSpace=wrap;rounded=0;fontFamily=Times New Roman;" parent="1" vertex="1">
          <mxGeometry x="701" y="783.11" width="86.5" height="30" as="geometry" />
        </mxCell>
        <mxCell id="mqXQISDSsDl_yivasYSx-10" value="&lt;b&gt;Docker container&lt;/b&gt;" style="text;html=1;strokeColor=none;fillColor=none;align=center;verticalAlign=middle;whiteSpace=wrap;rounded=0;fontFamily=Times New Roman;" parent="1" vertex="1">
          <mxGeometry x="1004.38" y="783.11" width="105.25" height="30" as="geometry" />
        </mxCell>
        <mxCell id="ekhj-JEz_ryX5zBUC3kf-1" value="&lt;b&gt;&lt;font style=&quot;font-size: 30px;&quot;&gt;Docker - from Dockerfile to Container&lt;/font&gt;&lt;/b&gt;" style="text;html=1;strokeColor=none;fillColor=none;align=center;verticalAlign=middle;whiteSpace=wrap;rounded=0;fontFamily=Times New Roman;" parent="1" vertex="1">
          <mxGeometry x="458.25" y="590" width="572" height="30" as="geometry" />
        </mxCell>
      </root>
    </mxGraphModel>
  </diagram>
  <diagram id="BuzcBxwfPadfeILkyzRb" name="Docker Layers">
    <mxGraphModel dx="1346" dy="1058" grid="0" gridSize="10" guides="1" tooltips="1" connect="1" arrows="1" fold="1" page="0" pageScale="1" pageWidth="850" pageHeight="1100" math="0" shadow="0">
      <root>
        <mxCell id="0" />
        <mxCell id="1" parent="0" />
        <mxCell id="TJzzN3rhzUJfULhul7NJ-2" value="" style="whiteSpace=wrap;html=1;aspect=fixed;fontFamily=Times New Roman;" parent="1" vertex="1">
          <mxGeometry x="-243" y="-33" width="353" height="353" as="geometry" />
        </mxCell>
        <mxCell id="TJzzN3rhzUJfULhul7NJ-3" value="" style="whiteSpace=wrap;html=1;aspect=fixed;fontFamily=Times New Roman;" parent="1" vertex="1">
          <mxGeometry x="253" y="-33" width="353" height="353" as="geometry" />
        </mxCell>
        <mxCell id="TJzzN3rhzUJfULhul7NJ-18" style="edgeStyle=orthogonalEdgeStyle;rounded=0;orthogonalLoop=1;jettySize=auto;html=1;exitX=1;exitY=0.5;exitDx=0;exitDy=0;entryX=0;entryY=0.5;entryDx=0;entryDy=0;fontFamily=Times New Roman;" parent="1" source="TJzzN3rhzUJfULhul7NJ-8" target="TJzzN3rhzUJfULhul7NJ-13" edge="1">
          <mxGeometry relative="1" as="geometry" />
        </mxCell>
        <mxCell id="-8yrrISrKEeUS4fuIcdL-1" value="&lt;div style=&quot;text-align: justify;&quot;&gt;FROM python:3.12-slim&lt;/div&gt;" style="edgeLabel;html=1;align=right;verticalAlign=middle;resizable=0;points=[];fontFamily=Times New Roman;" vertex="1" connectable="0" parent="TJzzN3rhzUJfULhul7NJ-18">
          <mxGeometry x="-0.2135" y="1" relative="1" as="geometry">
            <mxPoint x="77" y="-8" as="offset" />
          </mxGeometry>
        </mxCell>
        <mxCell id="TJzzN3rhzUJfULhul7NJ-8" value="&lt;font style=&quot;font-size: 16px;&quot;&gt;Command 1&lt;/font&gt;" style="rounded=0;whiteSpace=wrap;html=1;align=center;fillColor=#fff2cc;strokeColor=#d6b656;fontFamily=Times New Roman;" parent="1" vertex="1">
          <mxGeometry x="-220" y="-3" width="313" height="40" as="geometry" />
        </mxCell>
        <mxCell id="TJzzN3rhzUJfULhul7NJ-19" style="edgeStyle=orthogonalEdgeStyle;rounded=0;orthogonalLoop=1;jettySize=auto;html=1;exitX=1;exitY=0.5;exitDx=0;exitDy=0;fontFamily=Times New Roman;" parent="1" source="TJzzN3rhzUJfULhul7NJ-9" target="TJzzN3rhzUJfULhul7NJ-14" edge="1">
          <mxGeometry relative="1" as="geometry" />
        </mxCell>
        <mxCell id="-8yrrISrKEeUS4fuIcdL-2" value="apt-get update &amp;amp;&amp;amp; &lt;br&gt;apt-get install -y &lt;br&gt;--no-install-recommends git" style="edgeLabel;html=1;align=center;verticalAlign=middle;resizable=0;points=[];fontFamily=Times New Roman;" vertex="1" connectable="0" parent="TJzzN3rhzUJfULhul7NJ-19">
          <mxGeometry x="-0.4607" y="1" relative="1" as="geometry">
            <mxPoint x="40" y="-24" as="offset" />
          </mxGeometry>
        </mxCell>
        <mxCell id="TJzzN3rhzUJfULhul7NJ-9" value="&lt;font style=&quot;font-size: 16px;&quot;&gt;Command 2&lt;/font&gt;" style="rounded=0;whiteSpace=wrap;html=1;align=center;fillColor=#fff2cc;strokeColor=#d6b656;fontFamily=Times New Roman;" parent="1" vertex="1">
          <mxGeometry x="-220" y="65" width="313" height="40" as="geometry" />
        </mxCell>
        <mxCell id="TJzzN3rhzUJfULhul7NJ-20" style="edgeStyle=orthogonalEdgeStyle;rounded=0;orthogonalLoop=1;jettySize=auto;html=1;exitX=1;exitY=0.5;exitDx=0;exitDy=0;entryX=0;entryY=0.5;entryDx=0;entryDy=0;fontFamily=Times New Roman;" parent="1" source="TJzzN3rhzUJfULhul7NJ-10" target="TJzzN3rhzUJfULhul7NJ-15" edge="1">
          <mxGeometry relative="1" as="geometry" />
        </mxCell>
        <mxCell id="TJzzN3rhzUJfULhul7NJ-10" value="&lt;font style=&quot;font-size: 16px;&quot;&gt;Command 3&lt;/font&gt;" style="rounded=0;whiteSpace=wrap;html=1;align=center;fillColor=#fff2cc;strokeColor=#d6b656;fontFamily=Times New Roman;" parent="1" vertex="1">
          <mxGeometry x="-220" y="133" width="313" height="40" as="geometry" />
        </mxCell>
        <mxCell id="TJzzN3rhzUJfULhul7NJ-11" value="&lt;b&gt;&lt;font style=&quot;font-size: 16px;&quot;&gt;Dockerfile Initial Build&lt;/font&gt;&lt;/b&gt;" style="text;html=1;strokeColor=none;fillColor=none;align=center;verticalAlign=middle;whiteSpace=wrap;rounded=0;fontFamily=Times New Roman;" parent="1" vertex="1">
          <mxGeometry y="-69" width="345" height="30" as="geometry" />
        </mxCell>
        <mxCell id="TJzzN3rhzUJfULhul7NJ-21" style="edgeStyle=orthogonalEdgeStyle;rounded=0;orthogonalLoop=1;jettySize=auto;html=1;exitX=1;exitY=0.5;exitDx=0;exitDy=0;fontFamily=Times New Roman;" parent="1" source="TJzzN3rhzUJfULhul7NJ-12" target="TJzzN3rhzUJfULhul7NJ-16" edge="1">
          <mxGeometry relative="1" as="geometry" />
        </mxCell>
        <mxCell id="TJzzN3rhzUJfULhul7NJ-12" value="&lt;font style=&quot;font-size: 16px;&quot;&gt;Command 4&lt;/font&gt;" style="rounded=0;whiteSpace=wrap;html=1;align=center;fillColor=#fff2cc;strokeColor=#d6b656;fontFamily=Times New Roman;" parent="1" vertex="1">
          <mxGeometry x="-220" y="201" width="313" height="40" as="geometry" />
        </mxCell>
        <mxCell id="TJzzN3rhzUJfULhul7NJ-13" value="&lt;font style=&quot;font-size: 16px;&quot;&gt;Layer 1&lt;/font&gt;" style="rounded=0;whiteSpace=wrap;html=1;align=center;fillColor=#fff2cc;strokeColor=#d6b656;fontFamily=Times New Roman;" parent="1" vertex="1">
          <mxGeometry x="271" y="-3" width="313" height="40" as="geometry" />
        </mxCell>
        <mxCell id="TJzzN3rhzUJfULhul7NJ-14" value="&lt;font style=&quot;font-size: 16px;&quot;&gt;Layer 2&lt;/font&gt;" style="rounded=0;whiteSpace=wrap;html=1;align=center;fillColor=#fff2cc;strokeColor=#d6b656;fontFamily=Times New Roman;" parent="1" vertex="1">
          <mxGeometry x="271" y="65" width="313" height="40" as="geometry" />
        </mxCell>
        <mxCell id="TJzzN3rhzUJfULhul7NJ-15" value="&lt;font style=&quot;font-size: 16px;&quot;&gt;Layer 3&lt;/font&gt;" style="rounded=0;whiteSpace=wrap;html=1;align=center;fillColor=#fff2cc;strokeColor=#d6b656;fontFamily=Times New Roman;" parent="1" vertex="1">
          <mxGeometry x="271" y="133" width="313" height="40" as="geometry" />
        </mxCell>
        <mxCell id="TJzzN3rhzUJfULhul7NJ-16" value="&lt;font style=&quot;font-size: 16px;&quot;&gt;Layer 4&lt;/font&gt;" style="rounded=0;whiteSpace=wrap;html=1;align=center;fillColor=#fff2cc;strokeColor=#d6b656;fontFamily=Times New Roman;" parent="1" vertex="1">
          <mxGeometry x="271" y="201" width="313" height="40" as="geometry" />
        </mxCell>
        <mxCell id="TJzzN3rhzUJfULhul7NJ-22" value="" style="whiteSpace=wrap;html=1;aspect=fixed;fontFamily=Times New Roman;" parent="1" vertex="1">
          <mxGeometry x="-239" y="408" width="353" height="353" as="geometry" />
        </mxCell>
        <mxCell id="TJzzN3rhzUJfULhul7NJ-23" value="" style="whiteSpace=wrap;html=1;aspect=fixed;fontFamily=Times New Roman;" parent="1" vertex="1">
          <mxGeometry x="257" y="408" width="353" height="353" as="geometry" />
        </mxCell>
        <mxCell id="TJzzN3rhzUJfULhul7NJ-24" style="edgeStyle=orthogonalEdgeStyle;rounded=0;orthogonalLoop=1;jettySize=auto;html=1;exitX=1;exitY=0.5;exitDx=0;exitDy=0;entryX=0;entryY=0.5;entryDx=0;entryDy=0;fontFamily=Times New Roman;" parent="1" source="TJzzN3rhzUJfULhul7NJ-25" target="TJzzN3rhzUJfULhul7NJ-33" edge="1">
          <mxGeometry relative="1" as="geometry" />
        </mxCell>
        <mxCell id="TJzzN3rhzUJfULhul7NJ-25" value="&lt;font style=&quot;font-size: 16px;&quot;&gt;Command 1&lt;/font&gt;" style="rounded=0;whiteSpace=wrap;html=1;align=center;fillColor=#fff2cc;strokeColor=#d6b656;fontFamily=Times New Roman;" parent="1" vertex="1">
          <mxGeometry x="-216" y="438" width="313" height="40" as="geometry" />
        </mxCell>
        <mxCell id="TJzzN3rhzUJfULhul7NJ-26" style="edgeStyle=orthogonalEdgeStyle;rounded=0;orthogonalLoop=1;jettySize=auto;html=1;exitX=1;exitY=0.5;exitDx=0;exitDy=0;fontFamily=Times New Roman;" parent="1" source="TJzzN3rhzUJfULhul7NJ-27" target="TJzzN3rhzUJfULhul7NJ-34" edge="1">
          <mxGeometry relative="1" as="geometry" />
        </mxCell>
        <mxCell id="TJzzN3rhzUJfULhul7NJ-27" value="&lt;font style=&quot;font-size: 16px;&quot;&gt;Command 2&lt;/font&gt;" style="rounded=0;whiteSpace=wrap;html=1;align=center;fillColor=#fff2cc;strokeColor=#d6b656;fontFamily=Times New Roman;" parent="1" vertex="1">
          <mxGeometry x="-216" y="506" width="313" height="40" as="geometry" />
        </mxCell>
        <mxCell id="TJzzN3rhzUJfULhul7NJ-28" style="edgeStyle=orthogonalEdgeStyle;rounded=0;orthogonalLoop=1;jettySize=auto;html=1;exitX=1;exitY=0.5;exitDx=0;exitDy=0;entryX=0;entryY=0.5;entryDx=0;entryDy=0;fontFamily=Times New Roman;" parent="1" source="TJzzN3rhzUJfULhul7NJ-29" target="TJzzN3rhzUJfULhul7NJ-35" edge="1">
          <mxGeometry relative="1" as="geometry" />
        </mxCell>
        <mxCell id="TJzzN3rhzUJfULhul7NJ-29" value="&lt;font style=&quot;font-size: 16px;&quot;&gt;Command 5&lt;/font&gt;" style="rounded=0;whiteSpace=wrap;html=1;align=center;fillColor=#f8cecc;strokeColor=#b85450;fontFamily=Times New Roman;" parent="1" vertex="1">
          <mxGeometry x="-216" y="575" width="313" height="40" as="geometry" />
        </mxCell>
        <mxCell id="TJzzN3rhzUJfULhul7NJ-31" style="edgeStyle=orthogonalEdgeStyle;rounded=0;orthogonalLoop=1;jettySize=auto;html=1;exitX=1;exitY=0.5;exitDx=0;exitDy=0;fontFamily=Times New Roman;" parent="1" source="TJzzN3rhzUJfULhul7NJ-32" target="TJzzN3rhzUJfULhul7NJ-36" edge="1">
          <mxGeometry relative="1" as="geometry" />
        </mxCell>
        <mxCell id="TJzzN3rhzUJfULhul7NJ-32" value="&lt;font style=&quot;font-size: 16px;&quot;&gt;Command 3&lt;/font&gt;" style="rounded=0;whiteSpace=wrap;html=1;align=center;fillColor=#fff2cc;strokeColor=#d6b656;fontFamily=Times New Roman;" parent="1" vertex="1">
          <mxGeometry x="-216" y="643" width="313" height="40" as="geometry" />
        </mxCell>
        <mxCell id="TJzzN3rhzUJfULhul7NJ-33" value="&lt;font style=&quot;font-size: 16px;&quot;&gt;Layer 1 (Cached)&lt;/font&gt;" style="rounded=0;whiteSpace=wrap;html=1;align=center;fillColor=#fff2cc;strokeColor=#d6b656;fontFamily=Times New Roman;" parent="1" vertex="1">
          <mxGeometry x="275" y="438" width="313" height="40" as="geometry" />
        </mxCell>
        <mxCell id="TJzzN3rhzUJfULhul7NJ-34" value="&lt;font style=&quot;font-size: 16px;&quot;&gt;&lt;font style=&quot;font-size: 16px;&quot;&gt;Layer 2 (&lt;/font&gt;Cached)&lt;/font&gt;" style="rounded=0;whiteSpace=wrap;html=1;align=center;fillColor=#fff2cc;strokeColor=#d6b656;fontFamily=Times New Roman;" parent="1" vertex="1">
          <mxGeometry x="275" y="506" width="313" height="40" as="geometry" />
        </mxCell>
        <mxCell id="TJzzN3rhzUJfULhul7NJ-35" value="&lt;font style=&quot;font-size: 16px;&quot;&gt;Layer 3 (New Layer)&lt;/font&gt;" style="rounded=0;whiteSpace=wrap;html=1;align=center;fillColor=#f8cecc;strokeColor=#b85450;fontFamily=Times New Roman;" parent="1" vertex="1">
          <mxGeometry x="275" y="575" width="313" height="40" as="geometry" />
        </mxCell>
        <mxCell id="TJzzN3rhzUJfULhul7NJ-36" value="&lt;font style=&quot;font-size: 16px;&quot;&gt;Rebuild Layer 3 (as layer 4)&lt;/font&gt;" style="rounded=0;whiteSpace=wrap;html=1;align=center;fillColor=#e1d5e7;strokeColor=#9673a6;fontFamily=Times New Roman;" parent="1" vertex="1">
          <mxGeometry x="275" y="643" width="313" height="40" as="geometry" />
        </mxCell>
        <mxCell id="TJzzN3rhzUJfULhul7NJ-37" value="&lt;b&gt;&lt;font style=&quot;font-size: 16px;&quot;&gt;Dockerfile Rebuild&lt;/font&gt;&lt;/b&gt;" style="text;html=1;strokeColor=none;fillColor=none;align=center;verticalAlign=middle;whiteSpace=wrap;rounded=0;fontFamily=Times New Roman;" parent="1" vertex="1">
          <mxGeometry x="8" y="371" width="345" height="30" as="geometry" />
        </mxCell>
        <mxCell id="TJzzN3rhzUJfULhul7NJ-38" style="edgeStyle=orthogonalEdgeStyle;rounded=0;orthogonalLoop=1;jettySize=auto;html=1;exitX=1;exitY=0.5;exitDx=0;exitDy=0;fontFamily=Times New Roman;" parent="1" source="TJzzN3rhzUJfULhul7NJ-39" target="TJzzN3rhzUJfULhul7NJ-40" edge="1">
          <mxGeometry relative="1" as="geometry" />
        </mxCell>
        <mxCell id="TJzzN3rhzUJfULhul7NJ-39" value="&lt;font style=&quot;font-size: 16px;&quot;&gt;Command 4&lt;/font&gt;" style="rounded=0;whiteSpace=wrap;html=1;align=center;fillColor=#fff2cc;strokeColor=#d6b656;fontFamily=Times New Roman;" parent="1" vertex="1">
          <mxGeometry x="-216" y="711" width="313" height="40" as="geometry" />
        </mxCell>
        <mxCell id="TJzzN3rhzUJfULhul7NJ-40" value="&lt;font style=&quot;font-size: 16px;&quot;&gt;Rebuild Layer 4 (as layer 5)&lt;/font&gt;" style="rounded=0;whiteSpace=wrap;html=1;align=center;fillColor=#e1d5e7;strokeColor=#9673a6;fontFamily=Times New Roman;" parent="1" vertex="1">
          <mxGeometry x="275" y="711" width="313" height="40" as="geometry" />
        </mxCell>
      </root>
    </mxGraphModel>
  </diagram>
  <diagram id="kHYoIYQpDzTpTHb3wmSV" name="Multi-Stage with Slim Image">
    <mxGraphModel dx="3231" dy="3435" grid="1" gridSize="10" guides="1" tooltips="1" connect="1" arrows="1" fold="1" page="1" pageScale="1" pageWidth="827" pageHeight="1169" math="0" shadow="0">
      <root>
        <mxCell id="0" />
        <mxCell id="1" parent="0" />
        <mxCell id="bZcr6-ZDZR9N3TpB6naI-1" value="" style="rounded=1;whiteSpace=wrap;html=1;fillColor=#dae8fc;gradientColor=#7ea6e0;strokeColor=#6c8ebf;fontFamily=Times New Roman;fontStyle=0" vertex="1" parent="1">
          <mxGeometry x="-1630" y="-2241" width="280" height="363" as="geometry" />
        </mxCell>
        <mxCell id="bZcr6-ZDZR9N3TpB6naI-2" value="&lt;span&gt;&lt;font style=&quot;font-size: 24px;&quot;&gt;Software&lt;/font&gt;&lt;/span&gt;" style="rounded=1;whiteSpace=wrap;html=1;fillColor=#fff2cc;gradientColor=#ffd966;strokeColor=#d6b656;fontFamily=Times New Roman;align=left;fontStyle=0" vertex="1" parent="1">
          <mxGeometry x="-1600" y="-2121" width="220" height="50" as="geometry" />
        </mxCell>
        <mxCell id="bZcr6-ZDZR9N3TpB6naI-3" value="&lt;span&gt;&lt;font style=&quot;font-size: 24px;&quot;&gt;OS / Base Image&lt;/font&gt;&lt;/span&gt;" style="rounded=1;whiteSpace=wrap;html=1;fillColor=#ffcd28;gradientColor=#ffa500;strokeColor=#d79b00;fontFamily=Times New Roman;align=left;fontStyle=0" vertex="1" parent="1">
          <mxGeometry x="-1600" y="-1956" width="220" height="50" as="geometry" />
        </mxCell>
        <mxCell id="bZcr6-ZDZR9N3TpB6naI-4" value="&lt;span&gt;&lt;font style=&quot;font-size: 24px;&quot;&gt;Dependencies&lt;/font&gt;&lt;/span&gt;" style="rounded=1;whiteSpace=wrap;html=1;fillColor=#66FFFF;gradientColor=#00CCCC;strokeColor=#82b366;fontFamily=Times New Roman;align=left;fontStyle=0" vertex="1" parent="1">
          <mxGeometry x="-1600" y="-2038" width="220" height="50" as="geometry" />
        </mxCell>
        <mxCell id="bZcr6-ZDZR9N3TpB6naI-5" value="&lt;span&gt;&lt;font style=&quot;font-size: 24px;&quot;&gt;Binaries&lt;/font&gt;&lt;/span&gt;" style="rounded=1;whiteSpace=wrap;html=1;fillColor=#99FF99;gradientColor=#97d077;strokeColor=#82b366;fontFamily=Times New Roman;align=left;fontStyle=0" vertex="1" parent="1">
          <mxGeometry x="-1600" y="-2203" width="220" height="50" as="geometry" />
        </mxCell>
        <mxCell id="bZcr6-ZDZR9N3TpB6naI-6" value="&lt;span&gt;&lt;font style=&quot;font-size: 32px;&quot; color=&quot;#ffffff&quot;&gt;Builder Image&lt;/font&gt;&lt;/span&gt;" style="text;html=1;align=center;verticalAlign=middle;resizable=0;points=[];autosize=1;strokeColor=none;fillColor=none;fontSize=16;fontFamily=Times New Roman;fontStyle=0" vertex="1" parent="1">
          <mxGeometry x="-1537.5" y="-2290" width="210" height="50" as="geometry" />
        </mxCell>
        <mxCell id="bZcr6-ZDZR9N3TpB6naI-7" value="" style="rounded=1;whiteSpace=wrap;html=1;fillColor=#dae8fc;gradientColor=#7ea6e0;strokeColor=#6c8ebf;fontFamily=Times New Roman;fontStyle=0" vertex="1" parent="1">
          <mxGeometry x="-1104" y="-2241" width="260" height="363" as="geometry" />
        </mxCell>
        <mxCell id="bZcr6-ZDZR9N3TpB6naI-8" value="&lt;span&gt;&lt;font style=&quot;font-size: 32px;&quot; color=&quot;#ffffff&quot;&gt;Final Image&lt;/font&gt;&lt;/span&gt;" style="text;html=1;align=center;verticalAlign=middle;resizable=0;points=[];autosize=1;strokeColor=none;fillColor=none;fontSize=16;fontFamily=Times New Roman;fontStyle=0" vertex="1" parent="1">
          <mxGeometry x="-1015.5" y="-2290" width="180" height="50" as="geometry" />
        </mxCell>
        <mxCell id="bZcr6-ZDZR9N3TpB6naI-9" value="&lt;span&gt;&lt;font style=&quot;font-size: 24px;&quot;&gt;OS / Base Image&lt;/font&gt;&lt;/span&gt;" style="rounded=1;whiteSpace=wrap;html=1;fillColor=#ffcd28;gradientColor=#ffa500;strokeColor=#d79b00;fontFamily=Times New Roman;align=left;fontStyle=0" vertex="1" parent="1">
          <mxGeometry x="-1084" y="-1956" width="220" height="50" as="geometry" />
        </mxCell>
        <mxCell id="bZcr6-ZDZR9N3TpB6naI-10" value="&lt;span&gt;&lt;font style=&quot;font-size: 24px;&quot;&gt;Binaries&lt;/font&gt;&lt;/span&gt;" style="rounded=1;whiteSpace=wrap;html=1;fillColor=#99FF99;gradientColor=#97d077;strokeColor=#82b366;fontFamily=Times New Roman;align=left;fontStyle=0" vertex="1" parent="1">
          <mxGeometry x="-1094" y="-2203" width="220" height="50" as="geometry" />
        </mxCell>
        <mxCell id="bZcr6-ZDZR9N3TpB6naI-11" value="" style="shape=flexArrow;endArrow=classic;html=1;rounded=0;fontSize=12;startSize=8;endSize=11;curved=1;entryX=0;entryY=0.5;entryDx=0;entryDy=0;strokeColor=none;fillColor=#f2921e;exitX=1;exitY=0.5;exitDx=0;exitDy=0;strokeWidth=5;fontFamily=Times New Roman;labelBackgroundColor=#f2921e;fontStyle=0" edge="1" parent="1" source="bZcr6-ZDZR9N3TpB6naI-5" target="bZcr6-ZDZR9N3TpB6naI-10">
          <mxGeometry width="50" height="50" relative="1" as="geometry">
            <mxPoint x="-1225.4099999999999" y="-1931.5" as="sourcePoint" />
            <mxPoint x="-1103.5949999999998" y="-1931.295" as="targetPoint" />
          </mxGeometry>
        </mxCell>
        <mxCell id="bZcr6-ZDZR9N3TpB6naI-12" value="&lt;span style=&quot;white-space-collapse: preserve;&quot;&gt;COPY --from=builder&lt;/span&gt;" style="edgeLabel;html=1;align=center;verticalAlign=middle;resizable=0;points=[];fontSize=12;fontFamily=Times New Roman;fontStyle=0" vertex="1" connectable="0" parent="bZcr6-ZDZR9N3TpB6naI-11">
          <mxGeometry x="-0.0765" y="-2" relative="1" as="geometry">
            <mxPoint x="-4" y="-24" as="offset" />
          </mxGeometry>
        </mxCell>
        <mxCell id="BBLBpFc3PPsXw8zWlMmz-1" value="" style="rounded=1;whiteSpace=wrap;html=1;fillColor=#dae8fc;gradientColor=#7ea6e0;strokeColor=#6c8ebf;fontFamily=Times New Roman;fontStyle=0" vertex="1" parent="1">
          <mxGeometry x="-1640" y="-1671" width="320" height="363" as="geometry" />
        </mxCell>
        <mxCell id="BBLBpFc3PPsXw8zWlMmz-2" value="&lt;span&gt;&lt;font style=&quot;font-size: 24px;&quot;&gt;Install Libraries&lt;/font&gt;&lt;/span&gt;" style="rounded=1;whiteSpace=wrap;html=1;fillColor=#fff2cc;gradientColor=#ffd966;strokeColor=#d6b656;fontFamily=Times New Roman;align=left;fontStyle=0" vertex="1" parent="1">
          <mxGeometry x="-1610" y="-1551" width="260" height="50" as="geometry" />
        </mxCell>
        <mxCell id="BBLBpFc3PPsXw8zWlMmz-3" value="&lt;span&gt;&lt;font style=&quot;font-size: 24px;&quot;&gt;Python:3.12-slim&lt;/font&gt;&lt;/span&gt;" style="rounded=1;whiteSpace=wrap;html=1;fillColor=#ffcd28;gradientColor=#ffa500;strokeColor=#d79b00;fontFamily=Times New Roman;align=left;fontStyle=0" vertex="1" parent="1">
          <mxGeometry x="-1610" y="-1386" width="260" height="50" as="geometry" />
        </mxCell>
        <mxCell id="BBLBpFc3PPsXw8zWlMmz-4" value="&lt;span&gt;&lt;font style=&quot;font-size: 24px;&quot;&gt;Set Virtual Environment&lt;/font&gt;&lt;/span&gt;" style="rounded=1;whiteSpace=wrap;html=1;fillColor=#66FFFF;gradientColor=#00CCCC;strokeColor=#82b366;fontFamily=Times New Roman;align=left;fontStyle=0" vertex="1" parent="1">
          <mxGeometry x="-1610" y="-1468" width="260" height="50" as="geometry" />
        </mxCell>
        <mxCell id="BBLBpFc3PPsXw8zWlMmz-5" value="&lt;span&gt;&lt;font style=&quot;font-size: 24px;&quot;&gt;Build Libraries&lt;/font&gt;&lt;/span&gt;" style="rounded=1;whiteSpace=wrap;html=1;fillColor=#99FF99;gradientColor=#97d077;strokeColor=#82b366;fontFamily=Times New Roman;align=left;fontStyle=0" vertex="1" parent="1">
          <mxGeometry x="-1610" y="-1633" width="260" height="50" as="geometry" />
        </mxCell>
        <mxCell id="BBLBpFc3PPsXw8zWlMmz-6" value="&lt;span&gt;&lt;font color=&quot;#ffffff&quot; style=&quot;font-size: 32px;&quot;&gt;Builder Image&lt;/font&gt;&lt;/span&gt;" style="text;html=1;align=center;verticalAlign=middle;resizable=0;points=[];autosize=1;strokeColor=none;fillColor=none;fontSize=16;fontFamily=Times New Roman;fontStyle=0" vertex="1" parent="1">
          <mxGeometry x="-1547.5" y="-1720" width="210" height="50" as="geometry" />
        </mxCell>
        <mxCell id="BBLBpFc3PPsXw8zWlMmz-7" value="" style="rounded=1;whiteSpace=wrap;html=1;fillColor=#dae8fc;gradientColor=#7ea6e0;strokeColor=#6c8ebf;fontFamily=Times New Roman;fontStyle=0" vertex="1" parent="1">
          <mxGeometry x="-1165" y="-1671" width="319" height="363" as="geometry" />
        </mxCell>
        <mxCell id="BBLBpFc3PPsXw8zWlMmz-8" value="&lt;span&gt;&lt;font color=&quot;#ffffff&quot; style=&quot;font-size: 32px;&quot;&gt;Final Image&lt;/font&gt;&lt;/span&gt;" style="text;html=1;align=center;verticalAlign=middle;resizable=0;points=[];autosize=1;strokeColor=none;fillColor=none;fontSize=16;fontFamily=Times New Roman;fontStyle=0" vertex="1" parent="1">
          <mxGeometry x="-1057.5" y="-1720" width="180" height="50" as="geometry" />
        </mxCell>
        <mxCell id="BBLBpFc3PPsXw8zWlMmz-9" value="&lt;span&gt;&lt;font style=&quot;font-size: 24px;&quot;&gt;Python:3.12-slim&lt;/font&gt;&lt;/span&gt;" style="rounded=1;whiteSpace=wrap;html=1;fillColor=#ffcd28;gradientColor=#ffa500;strokeColor=#d79b00;fontFamily=Times New Roman;align=left;fontStyle=0" vertex="1" parent="1">
          <mxGeometry x="-1136" y="-1386" width="260" height="50" as="geometry" />
        </mxCell>
        <mxCell id="BBLBpFc3PPsXw8zWlMmz-10" value="&lt;span&gt;&lt;font style=&quot;font-size: 24px;&quot;&gt;Build Libraries&lt;/font&gt;&lt;/span&gt;" style="rounded=1;whiteSpace=wrap;html=1;fillColor=#99FF99;gradientColor=#97d077;strokeColor=#82b366;fontFamily=Times New Roman;align=left;fontStyle=0" vertex="1" parent="1">
          <mxGeometry x="-1136" y="-1633" width="260" height="50" as="geometry" />
        </mxCell>
        <mxCell id="BBLBpFc3PPsXw8zWlMmz-11" value="" style="shape=flexArrow;endArrow=classic;html=1;rounded=0;fontSize=12;startSize=8;endSize=11;curved=1;entryX=0;entryY=0.5;entryDx=0;entryDy=0;strokeColor=none;fillColor=#f2921e;exitX=1;exitY=0.5;exitDx=0;exitDy=0;strokeWidth=5;fontFamily=Times New Roman;fontStyle=0" edge="1" parent="1" source="BBLBpFc3PPsXw8zWlMmz-5" target="BBLBpFc3PPsXw8zWlMmz-10">
          <mxGeometry width="50" height="50" relative="1" as="geometry">
            <mxPoint x="-1235.4099999999999" y="-1361.5" as="sourcePoint" />
            <mxPoint x="-1113.5949999999998" y="-1361.295" as="targetPoint" />
          </mxGeometry>
        </mxCell>
        <mxCell id="BBLBpFc3PPsXw8zWlMmz-12" value="&lt;span style=&quot;white-space-collapse: preserve;&quot;&gt;COPY --from=builder&lt;/span&gt;" style="edgeLabel;html=1;align=center;verticalAlign=middle;resizable=0;points=[];fontSize=12;fontFamily=Times New Roman;fontStyle=0" vertex="1" connectable="0" parent="BBLBpFc3PPsXw8zWlMmz-11">
          <mxGeometry x="-0.0765" y="-2" relative="1" as="geometry">
            <mxPoint x="5" y="-24" as="offset" />
          </mxGeometry>
        </mxCell>
      </root>
    </mxGraphModel>
  </diagram>
  <diagram id="wiXrQsMyOPoTY8GzHMcn" name="Page-6">
    <mxGraphModel dx="2463" dy="1645" grid="1" gridSize="10" guides="1" tooltips="1" connect="1" arrows="1" fold="1" page="1" pageScale="1" pageWidth="827" pageHeight="1169" math="0" shadow="0">
      <root>
        <mxCell id="0" />
        <mxCell id="1" parent="0" />
        <mxCell id="9Cq6Ni-K5o4SU2zhS06C-1" value="" style="shape=image;verticalLabelPosition=bottom;labelBackgroundColor=default;verticalAlign=top;aspect=fixed;imageAspect=0;image=https://miro.medium.com/v2/resize:fit:1400/1*dEb2FP7s0hsihQgwQM7idQ.png;" vertex="1" parent="1">
          <mxGeometry x="240" y="30" width="1200" height="813" as="geometry" />
        </mxCell>
      </root>
    </mxGraphModel>
  </diagram>
</mxfile>
